  0
SECTION
  2
HEADER
  9
$ACADVER
  1
AC1032
  9
$ACADMAINTVER
 90
      203
  9
$DWGCODEPAGE
  3
ANSI_1251
  9
$LASTSAVEDBY
  1
mas13
  9
$REQUIREDVERSIONS
160
                 0
  9
$INSBASE
 10
0.0
 20
0.0
 30
0.0
  9
$EXTMIN
 10
-114.3968552790602
 20
-122.0151959221502
 30
0.0
  9
$EXTMAX
 10
121.1227185474788
 20
78.42255749821425
 30
0.0
  9
$LIMMIN
 10
0.0
 20
0.0
  9
$LIMMAX
 10
420.0
 20
297.0
  9
$ORTHOMODE
 70
     0
  9
$REGENMODE
 70
     1
  9
$FILLMODE
 70
     1
  9
$QTEXTMODE
 70
     0
  9
$MIRRTEXT
 70
     1
  9
$LTSCALE
 40
1.0
  9
$ATTMODE
 70
     1
  9
$TEXTSIZE
 40
2.5
  9
$TRACEWID
 40
1.0
  9
$TEXTSTYLE
  7
Standard
  9
$CLAYER
  8
0
  9
$CELTYPE
  6
ByLayer
  9
$CECOLOR
 62
   256
  9
$CELTSCALE
 40
1.0
  9
$DISPSILH
 70
     0
  9
$DIMSCALE
 40
1.0
  9
$DIMASZ
 40
2.5
  9
$DIMEXO
 40
0.625
  9
$DIMDLI
 40
3.75
  9
$DIMRND
 40
0.0
  9
$DIMDLE
 40
0.0
  9
$DIMEXE
 40
1.25
  9
$DIMTP
 40
0.0
  9
$DIMTM
 40
0.0
  9
$DIMTXT
 40
2.5
  9
$DIMCEN
 40
2.5
  9
$DIMTSZ
 40
0.0
  9
$DIMTOL
 70
     0
  9
$DIMLIM
 70
     0
  9
$DIMTIH
 70
     0
  9
$DIMTOH
 70
     0
  9
$DIMSE1
 70
     0
  9
$DIMSE2
 70
     0
  9
$DIMTAD
 70
     1
  9
$DIMZIN
 70
     8
  9
$DIMBLK
  1

  9
$DIMASO
 70
     1
  9
$DIMSHO
 70
     1
  9
$DIMPOST
  1

  9
$DIMAPOST
  1

  9
$DIMALT
 70
     0
  9
$DIMALTD
 70
     3
  9
$DIMALTF
 40
0.03937007874016
  9
$DIMLFAC
 40
1.0
  9
$DIMTOFL
 70
     1
  9
$DIMTVP
 40
0.0
  9
$DIMTIX
 70
     0
  9
$DIMSOXD
 70
     0
  9
$DIMSAH
 70
     0
  9
$DIMBLK1
  1

  9
$DIMBLK2
  1

  9
$DIMSTYLE
  2
ISO-25
  9
$DIMCLRD
 70
     0
  9
$DIMCLRE
 70
     0
  9
$DIMCLRT
 70
     0
  9
$DIMTFAC
 40
1.0
  9
$DIMGAP
 40
0.625
  9
$DIMJUST
 70
     0
  9
$DIMSD1
 70
     0
  9
$DIMSD2
 70
     0
  9
$DIMTOLJ
 70
     0
  9
$DIMTZIN
 70
     8
  9
$DIMALTZ
 70
     0
  9
$DIMALTTZ
 70
     0
  9
$DIMUPT
 70
     0
  9
$DIMDEC
 70
     2
  9
$DIMTDEC
 70
     2
  9
$DIMALTU
 70
     2
  9
$DIMALTTD
 70
     3
  9
$DIMTXSTY
  7
Standard
  9
$DIMAUNIT
 70
     0
  9
$DIMADEC
 70
     0
  9
$DIMALTRND
 40
0.0
  9
$DIMAZIN
 70
     0
  9
$DIMDSEP
 70
    44
  9
$DIMATFIT
 70
     3
  9
$DIMFRAC
 70
     0
  9
$DIMLDRBLK
  1

  9
$DIMLUNIT
 70
     6
  9
$DIMLWD
 70
    -2
  9
$DIMLWE
 70
    -2
  9
$DIMTMOVE
 70
     0
  9
$DIMFXL
 40
1.0
  9
$DIMFXLON
 70
     0
  9
$DIMJOGANG
 40
0.7853981633974483
  9
$DIMTFILL
 70
     0
  9
$DIMTFILLCLR
 70
     0
  9
$DIMARCSYM
 70
     0
  9
$DIMLTYPE
  6

  9
$DIMLTEX1
  6

  9
$DIMLTEX2
  6

  9
$DIMTXTDIRECTION
 70
     0
  9
$LUNITS
 70
     2
  9
$LUPREC
 70
     4
  9
$SKETCHINC
 40
1.0
  9
$FILLETRAD
 40
10.0
  9
$AUNITS
 70
     0
  9
$AUPREC
 70
     0
  9
$MENU
  1
.
  9
$ELEVATION
 40
0.0
  9
$PELEVATION
 40
0.0
  9
$THICKNESS
 40
0.0
  9
$LIMCHECK
 70
     0
  9
$CHAMFERA
 40
0.0
  9
$CHAMFERB
 40
0.0
  9
$CHAMFERC
 40
0.0
  9
$CHAMFERD
 40
0.0
  9
$SKPOLY
 70
     0
  9
$TDCREATE
 40
2460654.287905093
  9
$TDUCREATE
 40
2460654.121245417
  9
$TDUPDATE
 40
2460654.558576389
  9
$TDUUPDATE
 40
2460654.391909722
  9
$TDINDWG
 40
0.0259143634
  9
$TDUSRTIMER
 40
0.0259143634
  9
$USRTIMER
 70
     1
  9
$ANGBASE
 50
0.0
  9
$ANGDIR
 70
     0
  9
$PDMODE
 70
     0
  9
$PDSIZE
 40
0.0
  9
$PLINEWID
 40
0.0
  9
$SPLFRAME
 70
     0
  9
$SPLINETYPE
 70
     6
  9
$SPLINESEGS
 70
     8
  9
$HANDSEED
  5
172
  9
$SURFTAB1
 70
     6
  9
$SURFTAB2
 70
     6
  9
$SURFTYPE
 70
     6
  9
$SURFU
 70
     6
  9
$SURFV
 70
     6
  9
$UCSBASE
  2

  9
$UCSNAME
  2

  9
$UCSORG
 10
0.0
 20
0.0
 30
0.0
  9
$UCSXDIR
 10
1.0
 20
0.0
 30
0.0
  9
$UCSYDIR
 10
0.0
 20
1.0
 30
0.0
  9
$UCSORTHOREF
  2

  9
$UCSORTHOVIEW
 70
     0
  9
$UCSORGTOP
 10
0.0
 20
0.0
 30
0.0
  9
$UCSORGBOTTOM
 10
0.0
 20
0.0
 30
0.0
  9
$UCSORGLEFT
 10
0.0
 20
0.0
 30
0.0
  9
$UCSORGRIGHT
 10
0.0
 20
0.0
 30
0.0
  9
$UCSORGFRONT
 10
0.0
 20
0.0
 30
0.0
  9
$UCSORGBACK
 10
0.0
 20
0.0
 30
0.0
  9
$PUCSBASE
  2

  9
$PUCSNAME
  2

  9
$PUCSORG
 10
0.0
 20
0.0
 30
0.0
  9
$PUCSXDIR
 10
1.0
 20
0.0
 30
0.0
  9
$PUCSYDIR
 10
0.0
 20
1.0
 30
0.0
  9
$PUCSORTHOREF
  2

  9
$PUCSORTHOVIEW
 70
     0
  9
$PUCSORGTOP
 10
0.0
 20
0.0
 30
0.0
  9
$PUCSORGBOTTOM
 10
0.0
 20
0.0
 30
0.0
  9
$PUCSORGLEFT
 10
0.0
 20
0.0
 30
0.0
  9
$PUCSORGRIGHT
 10
0.0
 20
0.0
 30
0.0
  9
$PUCSORGFRONT
 10
0.0
 20
0.0
 30
0.0
  9
$PUCSORGBACK
 10
0.0
 20
0.0
 30
0.0
  9
$USERI1
 70
     0
  9
$USERI2
 70
     0
  9
$USERI3
 70
     0
  9
$USERI4
 70
     0
  9
$USERI5
 70
     0
  9
$USERR1
 40
0.0
  9
$USERR2
 40
0.0
  9
$USERR3
 40
0.0
  9
$USERR4
 40
0.0
  9
$USERR5
 40
0.0
  9
$WORLDVIEW
 70
     1
  9
$SHADEDGE
 70
     3
  9
$SHADEDIF
 70
    70
  9
$TILEMODE
 70
     1
  9
$MAXACTVP
 70
    64
  9
$PINSBASE
 10
0.0
 20
0.0
 30
0.0
  9
$PLIMCHECK
 70
     0
  9
$PEXTMIN
 10
1.000000000000000E+20
 20
1.000000000000000E+20
 30
1.000000000000000E+20
  9
$PEXTMAX
 10
-1.000000000000000E+20
 20
-1.000000000000000E+20
 30
-1.000000000000000E+20
  9
$PLIMMIN
 10
0.0
 20
0.0
  9
$PLIMMAX
 10
420.0
 20
297.0
  9
$UNITMODE
 70
     0
  9
$VISRETAIN
 70
     1
  9
$PLINEGEN
 70
     0
  9
$PSLTSCALE
 70
     1
  9
$TREEDEPTH
 70
  3020
  9
$CMLSTYLE
  2
Standard
  9
$CMLJUST
 70
     0
  9
$CMLSCALE
 40
20.0
  9
$PROXYGRAPHICS
 70
     1
  9
$MEASUREMENT
 70
     1
  9
$CELWEIGHT
370
    -1
  9
$ENDCAPS
280
     0
  9
$JOINSTYLE
280
     0
  9
$LWDISPLAY
290
     0
  9
$INSUNITS
 70
     4
  9
$HYPERLINKBASE
  1

  9
$STYLESHEET
  1

  9
$XEDIT
290
     1
  9
$CEPSNTYPE
380
     0
  9
$PSTYLEMODE
290
     1
  9
$FINGERPRINTGUID
  2
{E71387F8-459F-7C4D-8EAF-5A17D71A16B5}
  9
$VERSIONGUID
  2
{F888BFE5-49FC-0D45-873C-712F6899B794}
  9
$EXTNAMES
290
     1
  9
$PSVPSCALE
 40
0.0
  9
$OLESTARTUP
290
     0
  9
$SORTENTS
280
   127
  9
$INDEXCTL
280
     0
  9
$HIDETEXT
280
     1
  9
$XCLIPFRAME
280
     2
  9
$HALOGAP
280
     0
  9
$OBSCOLOR
 70
   257
  9
$OBSLTYPE
280
     0
  9
$INTERSECTIONDISPLAY
280
     0
  9
$INTERSECTIONCOLOR
 70
   257
  9
$DIMASSOC
280
     2
  9
$PROJECTNAME
  1

  9
$CAMERADISPLAY
290
     0
  9
$LENSLENGTH
 40
50.0
  9
$CAMERAHEIGHT
 40
0.0
  9
$STEPSPERSEC
 40
2.0
  9
$STEPSIZE
 40
6.0
  9
$3DDWFPREC
 40
2.0
  9
$PSOLWIDTH
 40
5.0
  9
$PSOLHEIGHT
 40
80.0
  9
$LOFTANG1
 40
1.570796326794896
  9
$LOFTANG2
 40
1.570796326794896
  9
$LOFTMAG1
 40
0.0
  9
$LOFTMAG2
 40
0.0
  9
$LOFTPARAM
 70
     7
  9
$LOFTNORMALS
280
     1
  9
$LATITUDE
 40
37.795
  9
$LONGITUDE
 40
-122.394
  9
$NORTHDIRECTION
 40
0.0
  9
$TIMEZONE
 70
 -8000
  9
$LIGHTGLYPHDISPLAY
280
     1
  9
$TILEMODELIGHTSYNCH
280
     1
  9
$CMATERIAL
347
2E
  9
$SOLIDHIST
280
     0
  9
$SHOWHIST
280
     1
  9
$DWFFRAME
280
     2
  9
$DGNFRAME
280
     2
  9
$REALWORLDSCALE
290
     1
  9
$INTERFERECOLOR
 62
   256
  9
$INTERFEREOBJVS
345
3F
  9
$INTERFEREVPVS
346
40
  9
$CSHADOW
280
     0
  9
$SHADOWPLANELOCATION
 40
0.0
  0
ENDSEC
  0
SECTION
  2
CLASSES
  0
CLASS
  1
ACDBDICTIONARYWDFLT
  2
AcDbDictionaryWithDefault
  3
ObjectDBX Classes
 90
        0
 91
        1
280
     0
281
     0
  0
CLASS
  1
VISUALSTYLE
  2
AcDbVisualStyle
  3
ObjectDBX Classes
 90
     4095
 91
       24
280
     0
281
     0
  0
CLASS
  1
MATERIAL
  2
AcDbMaterial
  3
ObjectDBX Classes
 90
     1153
 91
        3
280
     0
281
     0
  0
CLASS
  1
SCALE
  2
AcDbScale
  3
ObjectDBX Classes
 90
     1153
 91
       33
280
     0
281
     0
  0
CLASS
  1
TABLESTYLE
  2
AcDbTableStyle
  3
ObjectDBX Classes
 90
     4095
 91
        1
280
     0
281
     0
  0
CLASS
  1
MLEADERSTYLE
  2
AcDbMLeaderStyle
  3
ACDB_MLEADERSTYLE_CLASS
 90
     4095
 91
        1
280
     0
281
     0
  0
CLASS
  1
SUN
  2
AcDbSun
  3
SCENEOE
 90
     1153
 91
        1
280
     0
281
     0
  0
CLASS
  1
WIPEOUTVARIABLES
  2
AcDbWipeoutVariables
  3
"WipeOut|Product Desc:     WipeOut Dbx Application|Company:          Autodesk, Inc.|WEB Address:      www.autodesk.com"
 90
        0
 91
        0
280
     0
281
     0
  0
CLASS
  1
WIPEOUT
  2
AcDbWipeout
  3
WipeOut|Product Desc: Object Enabler for WipeOut entity | Company: Autodesk, Inc. | WEB Address: www.autodesk.com
 90
     2175
 91
        0
280
     0
281
     1
  0
CLASS
  1
DICTIONARYVAR
  2
AcDbDictionaryVar
  3
ObjectDBX Classes
 90
        0
 91
        8
280
     0
281
     0
  0
CLASS
  1
ACDBSECTIONVIEWSTYLE
  2
AcDbSectionViewStyle
  3
ObjectDBX Classes
 90
     1025
 91
        1
280
     0
281
     0
  0
CLASS
  1
ACDBDETAILVIEWSTYLE
  2
AcDbDetailViewStyle
  3
ObjectDBX Classes
 90
     1025
 91
        1
280
     0
281
     0
  0
CLASS
  1
ACAD_EVALUATION_GRAPH
  2
AcDbEvalGraph
  3
ObjectDBX Classes
 90
     1153
 91
        1
280
     0
281
     0
  0
CLASS
  1
ACAECUSTOBJ
  2
AcAeEditorObj
  3
AcAeEditorObj
 90
     1024
 91
        0
280
     0
281
     0
  0
CLASS
  1
CELLSTYLEMAP
  2
AcDbCellStyleMap
  3
ObjectDBX Classes
 90
     1152
 91
        7
280
     0
281
     0
  0
CLASS
  1
ACDB_DYNAMICBLOCKPURGEPREVENTER_VERSION
  2
AcDbDynamicBlockPurgePreventer
  3
ObjectDBX Classes
 90
     1153
 91
        1
280
     0
281
     0
  0
ENDSEC
  0
SECTION
  2
TABLES
  0
TABLE
  2
VPORT
  5
20
330
0
100
AcDbSymbolTable
 70
     1
  0
VPORT
  5
21
330
20
100
AcDbSymbolTableRecord
100
AcDbViewportTableRecord
  2
*Active
 70
     0
 10
0.0
 20
0.0
 11
1.0
 21
1.0
 12
15.71346923280362
 22
1.34881218694274
 13
0.0
 23
0.0
 14
10.0
 24
10.0
 15
10.0
 25
10.0
 16
0.0
 26
0.0
 36
1.0
 17
0.0
 27
0.0
 37
0.0
 40
46.15379902589851
 41
2.303721488595438
 42
50.0
 43
0.0
 44
0.0
 50
0.0
 51
0.0
 71
     0
 72
   100
 73
     1
 74
     3
 75
     0
 76
     0
 77
     0
 78
     0
281
     0
 65
     1
110
0.0
120
0.0
130
0.0
111
1.0
121
0.0
131
0.0
112
0.0
122
1.0
132
0.0
 79
     0
146
0.0
348
22
 60
     3
 61
     5
292
     1
282
     1
141
0.0
142
0.0
 63
   250
421
  3355443
361
24
1001
ACAD_NAV_VCDISPLAY
1070
     3
  0
ENDTAB
  0
TABLE
  2
LTYPE
  5
1B
330
0
100
AcDbSymbolTable
 70
     3
  0
LTYPE
  5
1C
330
1B
100
AcDbSymbolTableRecord
100
AcDbLinetypeTableRecord
  2
ByBlock
 70
     0
  3

 72
    65
 73
     0
 40
0.0
  0
LTYPE
  5
1D
330
1B
100
AcDbSymbolTableRecord
100
AcDbLinetypeTableRecord
  2
ByLayer
 70
     0
  3

 72
    65
 73
     0
 40
0.0
  0
LTYPE
  5
C
330
1B
100
AcDbSymbolTableRecord
100
AcDbLinetypeTableRecord
  2
Continuous
 70
     0
  3
Solid line
 72
    65
 73
     0
 40
0.0
  0
LTYPE
  5
67
330
1B
100
AcDbSymbolTableRecord
100
AcDbLinetypeTableRecord
  2
K5LT_BASIC
 70
     0
  3

 72
    65
 73
     0
 40
0.0
  0
ENDTAB
  0
TABLE
  2
LAYER
  5
15
102
{ACAD_XDICTIONARY
360
16
102
}
330
0
100
AcDbSymbolTable
 70
     2
  0
LAYER
  5
6
330
15
100
AcDbSymbolTableRecord
100
AcDbLayerTableRecord
  2
0
 70
     0
 62
     7
  6
Continuous
370
    -3
390
7
347
A
348
0
  0
LAYER
  5
63
330
15
100
AcDbSymbolTableRecord
100
AcDbLayerTableRecord
  2
Системный слой
 70
     0
 62
     7
  6
Continuous
370
    -3
390
7
347
A
348
0
  0
ENDTAB
  0
TABLE
  2
STYLE
  5
18
330
0
100
AcDbSymbolTable
 70
     1
  0
STYLE
  5
19
330
18
100
AcDbSymbolTableRecord
100
AcDbTextStyleTableRecord
  2
Standard
 70
     0
 40
0.0
 41
1.0
 50
0.0
 71
     0
 42
2.5
  3
txt
  4

  0
ENDTAB
  0
TABLE
  2
VIEW
  5
1E
330
0
100
AcDbSymbolTable
 70
     1
  0
ENDTAB
  0
TABLE
  2
UCS
  5
1F
330
0
100
AcDbSymbolTable
 70
     0
  0
ENDTAB
  0
TABLE
  2
APPID
  5
26
330
0
100
AcDbSymbolTable
 70
     6
  0
APPID
  5
27
330
26
100
AcDbSymbolTableRecord
100
AcDbRegAppTableRecord
  2
ACAD
 70
     0
  0
APPID
  5
25
330
26
100
AcDbSymbolTableRecord
100
AcDbRegAppTableRecord
  2
ACAD_NAV_VCDISPLAY
 70
     0
  0
APPID
  5
10
330
26
100
AcDbSymbolTableRecord
100
AcDbRegAppTableRecord
  2
ACAUTHENVIRON
 70
     0
  0
APPID
  5
128
330
26
100
AcDbSymbolTableRecord
100
AcDbRegAppTableRecord
  2
AcDbDynamicBlockTrueName
 70
     0
  0
APPID
  5
129
330
26
100
AcDbSymbolTableRecord
100
AcDbRegAppTableRecord
  2
AcDbDynamicBlockGUID
 70
     0
  0
APPID
  5
15C
330
26
100
AcDbSymbolTableRecord
100
AcDbRegAppTableRecord
  2
ACAD_EXEMPT_FROM_CAD_STANDARDS
 70
     0
  0
ENDTAB
  0
TABLE
  2
DIMSTYLE
  5
28
330
0
100
AcDbSymbolTable
 70
     2
100
AcDbDimStyleTable
 71
     1
340
29
  0
DIMSTYLE
105
29
330
28
100
AcDbSymbolTableRecord
100
AcDbDimStyleTableRecord
  2
ISO-25
 70
     0
 41
2.5
 42
0.625
 43
3.75
 44
1.25
 73
     0
 74
     0
 77
     1
 78
     8
140
2.5
141
2.5
143
0.03937007874016
147
0.625
171
     3
172
     1
271
     2
272
     2
274
     3
278
    44
283
     0
284
     8
340
19
  0
ENDTAB
  0
TABLE
  2
BLOCK_RECORD
  5
1
330
0
100
AcDbSymbolTable
 70
     5
  0
BLOCK_RECORD
  5
2
102
{ACAD_XDICTIONARY
360
3
102
}
330
1
100
AcDbSymbolTableRecord
100
AcDbBlockTableRecord
  2
*Model_Space
340
E
 70
     0
280
     1
281
     0
1001
ACAUTHENVIRON
1005
0
  0
BLOCK_RECORD
  5
11
330
1
100
AcDbSymbolTableRecord
100
AcDbBlockTableRecord
  2
*Paper_Space
340
14
 70
     0
280
     1
281
     0
  0
BLOCK_RECORD
  5
64
330
1
100
AcDbSymbolTableRecord
100
AcDbBlockTableRecord
  2
U5
340
0
 70
     0
280
     1
281
     0
  0
BLOCK_RECORD
  5
99
330
1
100
AcDbSymbolTableRecord
100
AcDbBlockTableRecord
  2
U6
340
0
 70
     0
280
     1
281
     0
  0
BLOCK_RECORD
  5
C3
330
1
100
AcDbSymbolTableRecord
100
AcDbBlockTableRecord
  2
U7
340
0
102
{BLKREFS
331
C2
102
}
 70
     0
280
     1
281
     0
  0
ENDTAB
  0
ENDSEC
  0
SECTION
  2
BLOCKS
  0
BLOCK
  5
5
330
2
100
AcDbEntity
  8
0
100
AcDbBlockBegin
  2
*Model_Space
 70
     0
 10
0.0
 20
0.0
 30
0.0
  3
*Model_Space
  1

  0
ENDBLK
  5
D
330
2
100
AcDbEntity
  8
0
100
AcDbBlockEnd
  0
BLOCK
  5
12
330
11
100
AcDbEntity
 67
     1
  8
0
100
AcDbBlockBegin
  2
*Paper_Space
 70
     0
 10
0.0
 20
0.0
 30
0.0
  3
*Paper_Space
  1

  0
ENDBLK
  5
13
330
11
100
AcDbEntity
 67
     1
  8
0
100
AcDbBlockEnd
  0
BLOCK
  5
65
330
64
100
AcDbEntity
  8
0
100
AcDbBlockBegin
  2
U5
 70
     0
 10
0.0
 20
0.0
 30
0.0
  3
U5
  1

  0
ARC
  5
66
330
64
100
AcDbEntity
  8
Системный слой
  6
K5LT_BASIC
 62
   150
420
    33023
370
    60
100
AcDbCircle
 10
1432.005592328629
 20
-694.2565414719107
 30
0.0
 40
2.969999999999973
100
AcDbArc
 50
30.53453534746328
 51
329.4654646527911
  0
SPLINE
  5
68
330
64
100
AcDbEntity
  8
Системный слой
  6
K5LT_BASIC
 62
   150
420
    33023
370
    60
100
AcDbSpline
210
0.0
220
0.0
230
1.0
 70
     8
 71
     3
 72
    32
 73
    28
 74
     0
 42
0.000000001
 43
0.0000000001
 40
0.0
 40
0.0
 40
0.0
 40
0.0
 40
5.792637548767761
 40
5.792637548767761
 40
11.619183973249
 40
11.619183973249
 40
17.44654686383634
 40
17.44654686383634
 40
23.22237480498748
 40
23.22237480498748
 40
29.00392393855849
 40
29.00392393855849
 40
34.83310717895364
 40
34.83310717895364
 40
40.63163372268713
 40
40.63163372268713
 40
46.43673631810454
 40
46.43673631810454
 40
52.26529294781979
 40
52.26529294781979
 40
58.04145148412324
 40
58.04145148412324
 40
63.81271449910979
 40
63.81271449910979
 40
69.64392050414993
 40
69.64392050414993
 40
73.0
 40
73.0
 40
73.0
 40
73.0
 10
1436.434082398287
 20
-688.8280224560075
 30
0.0
 10
1436.475609660161
 20
-688.8280219006271
 30
0.0
 10
1436.517149722388
 20
-688.8306117856633
 30
0.0
 10
1436.599882990034
 20
-688.8409770063605
 30
0.0
 10
1436.640991434825
 20
-688.8487690076082
 30
0.0
 10
1436.722021613675
 20
-688.8694609179158
 30
0.0
 10
1436.761848060064
 20
-688.8823382442438
 30
0.0
 10
1436.839306644724
 20
-688.912865603507
 30
0.0
 10
1436.876891367434
 20
-688.9304499304742
 30
0.0
 10
1436.949618834833
 20
-688.9701512401521
 30
0.0
 10
1436.984810859264
 20
-688.9923063818137
 30
0.0
 10
1437.052389552179
 20
-689.0409709971858
 30
0.0
 10
1437.084774359278
 20
-689.0675249108872
 30
0.0
 10
1437.145849226109
 20
-689.1243682129318
 30
0.0
 10
1437.174535019366
 20
-689.1546195085799
 30
0.0
 10
1437.227925099348
 20
-689.2184624541323
 30
0.0
 10
1437.252633805974
 20
-689.2520648776768
 30
0.0
 10
1437.297791757955
 20
-689.3222767464723
 30
0.0
 10
1437.318178184693
 20
-689.3588210766803
 30
0.0
 10
1437.354110516693
 20
-689.4339440844728
 30
0.0
 10
1437.36965001464
 20
-689.4724032539059
 30
0.0
 10
1437.395857342608
 20
-689.550996356011
 30
0.0
 10
1437.406511547353
 20
-689.5910912803595
 30
0.0
 10
1437.422847315067
 20
-689.6726512501028
 30
0.0
 10
1437.428490284241
 20
-689.7142073819952
 30
0.0
 10
1437.433243373808
 20
-689.7799376799237
 30
0.0
 10
1437.434111666303
 20
-689.8039917355946
 30
0.0
 10
1437.434111344532
 20
-689.8280514022522
 30
0.0
  0
SPLINE
  5
69
330
64
100
AcDbEntity
  8
Системный слой
  6
K5LT_BASIC
 62
   150
420
    33023
370
    60
100
AcDbSpline
210
0.0
220
0.0
230
1.0
 70
     8
 71
     3
 72
    34
 73
    30
 74
     0
 42
0.000000001
 43
0.0000000001
 40
0.0
 40
0.0
 40
0.0
 40
0.0
 40
0.0001174359832615
 40
0.0001174359832615
 40
5.792637548767392
 40
5.792637548767392
 40
11.61918397324902
 40
11.61918397324902
 40
17.44654686383579
 40
17.44654686383579
 40
23.22237480498652
 40
23.22237480498652
 40
29.00392393855647
 40
29.00392393855647
 40
34.83310717895275
 40
34.83310717895275
 40
40.63163372268646
 40
40.63163372268646
 40
46.4367363181036
 40
46.4367363181036
 40
52.26529294781887
 40
52.26529294781887
 40
58.04145148412197
 40
58.04145148412197
 40
63.81271449910702
 40
63.81271449910702
 40
69.64392050414689
 40
69.64392050414689
 40
73.0
 40
73.0
 40
73.0
 40
73.0
 10
1427.57710225897
 20
-699.6850604878138
 30
0.0
 10
1427.577101417075
 20
-699.6850604878253
 30
0.0
 10
1427.577100573365
 20
-699.6850605402634
 30
0.0
 10
1427.535662828198
 20
-699.6824749351567
 30
0.0
 10
1427.494034098678
 20
-699.6824710533959
 30
0.0
 10
1427.411301667224
 20
-699.6721059374607
 30
0.0
 10
1427.370193222433
 20
-699.6643139362134
 30
0.0
 10
1427.289163043582
 20
-699.6436220259054
 30
0.0
 10
1427.249336597193
 20
-699.6307446995778
 30
0.0
 10
1427.171878012534
 20
-699.6002173403142
 30
0.0
 10
1427.134293289823
 20
-699.5826330133472
 30
0.0
 10
1427.061565822425
 20
-699.5429317036694
 30
0.0
 10
1427.026373797994
 20
-699.5207765620074
 30
0.0
 10
1426.958795105079
 20
-699.4721119466357
 30
0.0
 10
1426.926410297979
 20
-699.4455580329344
 30
0.0
 10
1426.865335431148
 20
-699.3887147308895
 30
0.0
 10
1426.836649637891
 20
-699.3584634352417
 30
0.0
 10
1426.783259557909
 20
-699.2946204896891
 30
0.0
 10
1426.758550851283
 20
-699.2610180661444
 30
0.0
 10
1426.713392899303
 20
-699.1908061973489
 30
0.0
 10
1426.693006472565
 20
-699.1542618671412
 30
0.0
 10
1426.657074140564
 20
-699.0791388593487
 30
0.0
 10
1426.641534642617
 20
-699.0406796899153
 30
0.0
 10
1426.615327314649
 20
-698.9620865878102
 30
0.0
 10
1426.604673109905
 20
-698.921991663462
 30
0.0
 10
1426.588337342191
 20
-698.8404316937185
 30
0.0
 10
1426.582694373017
 20
-698.7988755618263
 30
0.0
 10
1426.577941283449
 20
-698.7331452638976
 30
0.0
 10
1426.577072990955
 20
-698.7090912082268
 30
0.0
 10
1426.577073312725
 20
-698.685031541569
 30
0.0
  0
SPLINE
  5
6A
330
64
100
AcDbEntity
  8
Системный слой
  6
K5LT_BASIC
 62
   150
420
    33023
370
    60
100
AcDbSpline
210
0.0
220
0.0
230
1.0
 70
     8
 71
     3
 72
    32
 73
    28
 74
     0
 42
0.000000001
 43
0.0000000001
 40
0.0
 40
0.0
 40
0.0
 40
0.0
 40
5.792637548767372
 40
5.792637548767372
 40
11.61918397324845
 40
11.61918397324845
 40
17.44654686383541
 40
17.44654686383541
 40
23.22237480498563
 40
23.22237480498563
 40
29.00392393855565
 40
29.00392393855565
 40
34.83310717895125
 40
34.83310717895125
 40
40.63163372268453
 40
40.63163372268453
 40
46.43673631810178
 40
46.43673631810178
 40
52.26529294781662
 40
52.26529294781662
 40
58.04145148411944
 40
58.04145148411944
 40
63.81271449910503
 40
63.81271449910503
 40
69.6439205041451
 40
69.6439205041451
 40
73.0
 40
73.0
 40
73.0
 40
73.0
 10
1426.577073312725
 20
-689.8280514022522
 30
0.0
 10
1426.577072757345
 20
-689.7865241403779
 30
0.0
 10
1426.579662642382
 20
-689.7449840781515
 30
0.0
 10
1426.590027863079
 20
-689.6622508105052
 30
0.0
 10
1426.597819864326
 20
-689.6211423657145
 30
0.0
 10
1426.618511774634
 20
-689.540112186864
 30
0.0
 10
1426.631389100962
 20
-689.5002857404749
 30
0.0
 10
1426.661916460225
 20
-689.4228271558154
 30
0.0
 10
1426.679500787192
 20
-689.3852424331051
 30
0.0
 10
1426.71920209687
 20
-689.3125149657069
 30
0.0
 10
1426.741357238532
 20
-689.2773229412756
 30
0.0
 10
1426.790021853904
 20
-689.2097442483607
 30
0.0
 10
1426.816575767605
 20
-689.1773594412613
 30
0.0
 10
1426.87341906965
 20
-689.1162845744299
 30
0.0
 10
1426.903670365297
 20
-689.0875987811734
 30
0.0
 10
1426.967513310851
 20
-689.0342087011916
 30
0.0
 10
1427.001115734395
 20
-689.0094999945652
 30
0.0
 10
1427.07132760319
 20
-688.9643420425851
 30
0.0
 10
1427.107871933398
 20
-688.9439556158467
 30
0.0
 10
1427.182994941191
 20
-688.9080232838464
 30
0.0
 10
1427.221454110624
 20
-688.8924837858994
 30
0.0
 10
1427.300047212729
 20
-688.8662764579312
 30
0.0
 10
1427.340142137078
 20
-688.8556222531867
 30
0.0
 10
1427.421702106821
 20
-688.8392864854727
 30
0.0
 10
1427.463258238713
 20
-688.8336435162987
 30
0.0
 10
1427.528988536642
 20
-688.8288904267309
 30
0.0
 10
1427.553042592313
 20
-688.8280221342364
 30
0.0
 10
1427.57710225897
 20
-688.8280224560075
 30
0.0
  0
LINE
  5
6B
330
64
100
AcDbEntity
  8
Системный слой
  6
K5LT_BASIC
 62
   150
420
    33023
370
    60
100
AcDbLine
 10
1426.577073312161
 20
-689.8280488765663
 30
0.0
 11
1426.577073312161
 21
-698.6850340672552
 31
0.0
  0
SPLINE
  5
6C
330
64
100
AcDbEntity
  8
Системный слой
  6
K5LT_BASIC
 62
   150
420
    33023
370
    60
100
AcDbSpline
210
0.0
220
0.0
230
1.0
 70
     8
 71
     3
 72
    32
 73
    28
 74
     0
 42
0.000000001
 43
0.0000000001
 40
0.0
 40
0.0
 40
0.0
 40
0.0
 40
5.792637548767192
 40
5.792637548767192
 40
11.61918397324824
 40
11.61918397324824
 40
17.44654686383561
 40
17.44654686383561
 40
23.22237480498703
 40
23.22237480498703
 40
29.0039239385576
 40
29.0039239385576
 40
34.83310717895295
 40
34.83310717895295
 40
40.63163372268628
 40
40.63163372268628
 40
46.43673631810357
 40
46.43673631810357
 40
52.26529294781883
 40
52.26529294781883
 40
58.04145148412285
 40
58.04145148412285
 40
63.81271449910911
 40
63.81271449910911
 40
69.64392050414931
 40
69.64392050414931
 40
73.0
 40
73.0
 40
73.0
 40
73.0
 10
1437.434111344532
 20
-698.685031541569
 30
0.0
 10
1437.434111899912
 20
-698.7265588034432
 30
0.0
 10
1437.431522014876
 20
-698.7680988656697
 30
0.0
 10
1437.421156794179
 20
-698.8508321333162
 30
0.0
 10
1437.413364792931
 20
-698.8919405781066
 30
0.0
 10
1437.392672882623
 20
-698.9729707569575
 30
0.0
 10
1437.379795556296
 20
-699.0127972033462
 30
0.0
 10
1437.349268197032
 20
-699.0902557880059
 30
0.0
 10
1437.331683870065
 20
-699.1278405107164
 30
0.0
 10
1437.291982560387
 20
-699.2005679781144
 30
0.0
 10
1437.269827418726
 20
-699.2357600025459
 30
0.0
 10
1437.221162803354
 20
-699.3033386954608
 30
0.0
 10
1437.194608889652
 20
-699.3357235025601
 30
0.0
 10
1437.137765587608
 20
-699.3967983693911
 30
0.0
 10
1437.10751429196
 20
-699.4254841626482
 30
0.0
 10
1437.043671346407
 20
-699.4788742426297
 30
0.0
 10
1437.010068922863
 20
-699.5035829492561
 30
0.0
 10
1436.939857054067
 20
-699.5487409012364
 30
0.0
 10
1436.903312723859
 20
-699.5691273279747
 30
0.0
 10
1436.828189716067
 20
-699.6050596599751
 30
0.0
 10
1436.789730546633
 20
-699.6205991579222
 30
0.0
 10
1436.711137444528
 20
-699.6468064858902
 30
0.0
 10
1436.67104252018
 20
-699.6574606906346
 30
0.0
 10
1436.589482550437
 20
-699.6737964583486
 30
0.0
 10
1436.547926418544
 20
-699.6794394275227
 30
0.0
 10
1436.482196120616
 20
-699.6841925170903
 30
0.0
 10
1436.458142064945
 20
-699.6850608095847
 30
0.0
 10
1436.434082398287
 20
-699.6850604878138
 30
0.0
  0
LINE
  5
6D
330
64
100
AcDbEntity
  8
Системный слой
  6
K5LT_BASIC
 62
   150
420
    33023
370
    60
100
AcDbLine
 10
1436.434084923973
 20
-688.8280224554432
 30
0.0
 11
1427.577099733284
 21
-688.8280224554432
 31
0.0
  0
LINE
  5
6E
330
64
100
AcDbEntity
  8
Системный слой
  6
K5LT_BASIC
 62
   150
420
    33023
370
    60
100
AcDbLine
 10
1437.434111345096
 20
-698.6850340672552
 30
0.0
 11
1437.43411134563
 21
-695.7565414719107
 31
0.0
  0
LINE
  5
6F
330
64
100
AcDbEntity
  8
Системный слой
  6
K5LT_BASIC
 62
   150
420
    33023
370
    60
100
AcDbLine
 10
1437.43411134563
 20
-692.7565414719107
 30
0.0
 11
1437.434111345096
 21
-689.8280488765663
 31
0.0
  0
LINE
  5
70
330
64
100
AcDbEntity
  8
Системный слой
  6
K5LT_BASIC
 62
   150
420
    33023
370
    60
100
AcDbLine
 10
1427.577099733284
 20
-699.6850604883783
 30
0.0
 11
1431.455592328629
 21
-699.6850604889118
 31
0.0
  0
LINE
  5
71
330
64
100
AcDbEntity
  8
Системный слой
  6
K5LT_BASIC
 62
   150
420
    33023
370
    60
100
AcDbLine
 10
1432.555592328629
 20
-699.6850604889118
 30
0.0
 11
1436.434084923973
 21
-699.6850604883783
 31
0.0
  0
LINE
  5
72
330
64
100
AcDbEntity
  8
Системный слой
  6
K5LT_BASIC
 62
   150
420
    33023
370
    60
100
AcDbLine
 10
1431.455592328629
 20
-699.660359653729
 30
0.0
 11
1431.455592328629
 21
-699.6850340688298
 31
0.0
  0
LINE
  5
73
330
64
100
AcDbEntity
  8
Системный слой
  6
K5LT_BASIC
 62
   150
420
    33023
370
    60
100
AcDbLine
 10
1432.555592328629
 20
-699.6850604889118
 30
0.0
 11
1432.555592328629
 21
-699.6850340688298
 31
0.0
  0
LINE
  5
74
330
64
100
AcDbEntity
  8
Системный слой
  6
K5LT_BASIC
 62
   150
420
    33023
370
    60
100
AcDbLine
 10
1431.455592328629
 20
-699.6850604889118
 30
0.0
 11
1431.455592328629
 21
-699.6850340688298
 31
0.0
  0
LINE
  5
75
330
64
100
AcDbEntity
  8
Системный слой
  6
K5LT_BASIC
 62
   150
420
    33023
370
    60
100
AcDbLine
 10
1431.455592328629
 20
-699.660359653729
 30
0.0
 11
1432.555592328629
 21
-699.660359653729
 31
0.0
  0
LINE
  5
76
330
64
100
AcDbEntity
  8
Системный слой
  6
K5LT_BASIC
 62
   150
420
    33023
370
    60
100
AcDbLine
 10
1432.555592328629
 20
-699.6850340688298
 30
0.0
 11
1432.555592328629
 21
-699.660359653729
 31
0.0
  0
LINE
  5
77
330
64
100
AcDbEntity
  8
Системный слой
  6
K5LT_BASIC
 62
   150
420
    33023
370
    60
100
AcDbLine
 10
1432.505592328629
 20
-699.6665414719107
 30
0.0
 11
1432.505592328629
 21
-699.660359653729
 31
0.0
  0
LINE
  5
78
330
64
100
AcDbEntity
  8
Системный слой
  6
K5LT_BASIC
 62
   150
420
    33023
370
    60
100
AcDbLine
 10
1431.505592328629
 20
-699.6665414719107
 30
0.0
 11
1431.505592328629
 21
-699.660359653729
 31
0.0
  0
LINE
  5
79
330
64
100
AcDbEntity
  8
Системный слой
  6
K5LT_BASIC
 62
   150
420
    33023
370
    60
100
AcDbLine
 10
1432.505592328629
 20
-699.6665414719107
 30
0.0
 11
1431.505592328629
 21
-699.6665414719107
 31
0.0
  0
ARC
  5
7A
330
64
100
AcDbEntity
  8
Системный слой
  6
K5LT_BASIC
 62
   150
420
    33023
370
    60
100
AcDbCircle
 10
1432.005592328629
 20
-694.2565414719107
 30
0.0
 40
2.95000000000006
100
AcDbArc
 50
30.78583945068535
 51
329.2141605503835
  0
ELLIPSE
  5
7B
330
64
100
AcDbEntity
  8
Системный слой
  6
K5LT_BASIC
 62
   150
420
    33023
370
    60
100
AcDbEllipse
 10
1432.005592328629
 20
-694.2565414719107
 30
0.0
 11
-2.399999999999999
 21
0.0000000000000003
 31
0.0
210
0.0
220
0.0
230
1.0
 40
0.9166666666666664
 41
4.712388980384688
 42
8.624714760743732
  0
ELLIPSE
  5
7C
330
64
100
AcDbEntity
  8
Системный слой
  6
K5LT_BASIC
 62
   150
420
    33023
370
    60
100
AcDbEllipse
 10
1432.005592328629
 20
-694.2565414719107
 30
0.0
 11
-2.399999999999999
 21
0.0000000000000003
 31
0.0
210
0.0
220
0.0
230
1.0
 40
0.9166666666666664
 41
3.94165585361544
 42
4.712388980384688
  0
ELLIPSE
  5
7D
330
64
100
AcDbEntity
  8
Системный слой
  6
K5LT_BASIC
 62
   150
420
    33023
370
    60
100
AcDbEllipse
 10
1432.005592328629
 20
-694.2565414719107
 30
0.0
 11
-2.399999999999999
 21
0.0000000000000003
 31
0.0
210
0.0
220
0.0
230
1.0
 40
0.7708333333333333
 41
4.712388980384688
 42
8.110710740483472
  0
ELLIPSE
  5
7E
330
64
100
AcDbEntity
  8
Системный слой
  6
K5LT_BASIC
 62
   150
420
    33023
370
    60
100
AcDbEllipse
 10
1432.005592328629
 20
-694.2565414719107
 30
0.0
 11
-2.399999999999999
 21
0.0000000000000003
 31
0.0
210
0.0
220
0.0
230
1.0
 40
0.7708333333333333
 41
4.712388980384688
 42
8.110710740483506
  0
LINE
  5
7F
330
64
100
AcDbEntity
  8
Системный слой
  6
K5LT_BASIC
 62
   150
420
    33023
370
    60
100
AcDbLine
 10
1435.005592328629
 20
-692.7565414719107
 30
0.0
 11
1435.00523108775
 21
-692.7565414656347
 31
0.0
  0
SPLINE
  5
80
330
64
100
AcDbEntity
  8
Системный слой
  6
K5LT_BASIC
 62
   150
420
    33023
370
    60
100
AcDbSpline
210
0.0
220
0.0
230
1.0
 70
     8
 71
     3
 72
    78
 73
    74
 74
     0
 42
0.000000001
 43
0.0000000001
 40
0.0
 40
0.0
 40
0.0
 40
0.0
 40
0.0014900848288224
 40
0.0014900848288224
 40
0.0044702446608442
 40
0.0044702446608442
 40
0.0104346790206106
 40
0.0104346790206106
 40
0.022377320213699
 40
0.022377320213699
 40
0.0463187342163797
 40
0.0463187342163797
 40
0.0944251605398246
 40
0.0944251605398246
 40
0.1915058057354723
 40
0.1915058057354723
 40
0.388876526525625
 40
0.388876526525625
 40
0.7941397318581829
 40
0.7941397318581829
 40
1.390866760600956
 40
1.390866760600956
 40
1.493736686555904
 40
1.493736686555904
 40
1.576249416748101
 40
1.576249416748101
 40
2.126236914958303
 40
2.126236914958303
 40
2.89471896230896
 40
2.89471896230896
 40
3.414313599732856
 40
3.414313599732856
 40
4.465032612285765
 40
4.465032612285765
 40
5.515751624838673
 40
5.515751624838673
 40
6.566470637391581
 40
6.566470637391581
 40
7.644887487777371
 40
7.644887487777371
 40
8.67753137424523
 40
8.67753137424523
 40
9.672024424323927
 40
9.672024424323927
 40
10.58457411581219
 40
10.58457411581219
 40
11.41541212903217
 40
11.41541212903217
 40
12.24625014225215
 40
12.24625014225215
 40
12.42018256575488
 40
12.42018256575488
 40
12.5460200453547
 40
12.5460200453547
 40
12.67185752495452
 40
12.67185752495452
 40
12.79769500455434
 40
12.79769500455434
 40
12.92353248415416
 40
12.92353248415416
 40
13.04936996375399
 40
13.04936996375399
 40
13.17520744335381
 40
13.17520744335381
 40
13.30104492295363
 40
13.30104492295363
 40
13.5357400878348
 40
13.5357400878348
 40
13.77043525271598
 40
13.77043525271598
 40
14.00513041759715
 40
14.00513041759715
 40
14.19386781414477
 40
14.19386781414477
 40
14.19386781414477
 40
14.19386781414477
 10
1435.00523108775
 20
-692.7565414656347
 30
0.0
 10
1435.005082694942
 20
-692.7565414604788
 30
0.0
 10
1435.004934301821
 20
-692.7565414521457
 30
0.0
 10
1435.00448912246
 20
-692.7565414176184
 30
0.0
 10
1435.00419233532
 20
-692.7565413818953
 30
0.0
 10
1435.003301560366
 20
-692.7565412365577
 30
0.0
 10
1435.002707569068
 20
-692.7565410887718
 30
0.0
 10
1435.000924209855
 20
-692.7565404924487
 30
0.0
 10
1434.99973482881
 20
-692.7565398909349
 30
0.0
 10
1434.996161051314
 20
-692.7565374720517
 30
0.0
 10
1434.993776608801
 20
-692.7565350402893
 30
0.0
 10
1434.98660092221
 20
-692.7565252681073
 30
0.0
 10
1434.981809549337
 20
-692.7565154504767
 30
0.0
 10
1434.967349336452
 20
-692.7564759428185
 30
0.0
 10
1434.957680493449
 20
-692.7564361951747
 30
0.0
 10
1434.928361240784
 20
-692.75627572247
 30
0.0
 10
1434.908716056505
 20
-692.756113741778
 30
0.0
 10
1434.848804700051
 20
-692.7554576793776
 30
0.0
 10
1434.808610589222
 20
-692.7547933420099
 30
0.0
 10
1434.70976598251
 20
-692.7526356372717
 30
0.0
 10
1434.651333514328
 20
-692.7508985230778
 30
0.0
 10
1434.583579178799
 20
-692.7483851132715
 30
0.0
 10
1434.573516593162
 20
-692.7480615105046
 30
0.0
 10
1434.555865474744
 20
-692.747248440521
 30
0.0
 10
1434.547734725813
 20
-692.7470123120164
 30
0.0
 10
1434.48765682087
 20
-692.7441685033387
 30
0.0
 10
1434.434868399909
 20
-692.7419047027155
 30
0.0
 10
1434.31169601871
 20
-692.7351305025778
 30
0.0
 10
1434.241498975057
 20
-692.7306116178312
 30
0.0
 10
1434.127392208423
 20
-692.7222834129295
 30
0.0
 10
1434.082284592664
 20
-692.718715669639
 30
0.0
 10
1433.948800427879
 20
-692.7073829342007
 30
0.0
 10
1433.864142515946
 20
-692.6991285844502
 30
0.0
 10
1433.703885782775
 20
-692.6816977881242
 30
0.0
 10
1433.629181986748
 20
-692.6726195473873
 30
0.0
 10
1433.489799309264
 20
-692.6541081651451
 30
0.0
 10
1433.426083612863
 20
-692.644803802655
 30
0.0
 10
1433.307734430729
 20
-692.6261688987306
 30
0.0
 10
1433.254385316719
 20
-692.6170015481687
 30
0.0
 10
1433.161319167392
 20
-692.5999074820927
 30
0.0
 10
1433.121905268535
 20
-692.5920893782838
 30
0.0
 10
1433.054830266576
 20
-692.5780207921795
 30
0.0
 10
1433.027553220934
 20
-692.5718860685106
 30
0.0
 10
1432.98382331867
 20
-692.5615858152431
 30
0.0
 10
1432.967832630374
 20
-692.5575863640212
 30
0.0
 10
1432.941958411058
 20
-692.5508793684875
 30
0.0
 10
1432.934330579646
 20
-692.5487990374891
 30
0.0
 10
1432.91852453507
 20
-692.5443822211701
 30
0.0
 10
1432.918039385115
 20
-692.5442538315421
 30
0.0
 10
1432.903577646794
 20
-692.5399971904242
 30
0.0
 10
1432.90449663547
 20
-692.5402687101357
 30
0.0
 10
1432.897259805063
 20
-692.5381294095947
 30
0.0
 10
1432.898359974308
 20
-692.5384544151575
 30
0.0
 10
1432.890945256931
 20
-692.5362611049771
 30
0.0
 10
1432.891291084447
 20
-692.5363624931216
 30
0.0
 10
1432.882773177387
 20
-692.5338492788272
 30
0.0
 10
1432.881354568547
 20
-692.5334309514605
 30
0.0
 10
1432.871925876418
 20
-692.5306686812615
 30
0.0
 10
1432.867680076777
 20
-692.5294312504387
 30
0.0
 10
1432.857487222297
 20
-692.5264839833348
 30
0.0
 10
1432.849589459306
 20
-692.524221399771
 30
0.0
 10
1432.838735554896
 20
-692.5211461524386
 30
0.0
 10
1432.827143991383
 20
-692.5179049658511
 30
0.0
 10
1432.81569813985
 20
-692.5147508682527
 30
0.0
 10
1432.801819807497
 20
-692.5109874239109
 30
0.0
 10
1432.784289319229
 20
-692.5063163418804
 30
0.0
 10
1432.758804417191
 20
-692.4997351048108
 30
0.0
 10
1432.730810135153
 20
-692.4927892975329
 30
0.0
 10
1432.710216949549
 20
-692.4878466565416
 30
0.0
 10
1432.677177575645
 20
-692.4802569578641
 30
0.0
 10
1432.660645448752
 20
-692.4765912427162
 30
0.0
 10
1432.626556736253
 20
-692.469391248245
 30
0.0
 10
1432.631459961158
 20
-692.4704873247252
 30
0.0
 10
1432.614996065325
 20
-692.4671739451087
 30
0.0
  0
SPLINE
  5
81
330
64
100
AcDbEntity
  8
Системный слой
  6
K5LT_BASIC
 62
   150
420
    33023
370
    60
100
AcDbSpline
210
0.0
220
0.0
230
1.0
 70
     8
 71
     3
 72
    82
 73
    78
 74
     0
 42
0.000000001
 43
0.0000000001
 40
0.0
 40
0.0
 40
0.0
 40
0.0
 40
0.0041750226316325
 40
0.0041750226316325
 40
0.0083500452632649
 40
0.0083500452632649
 40
0.0167000905265299
 40
0.0167000905265299
 40
0.0334001810530598
 40
0.0334001810530598
 40
0.0668003621061196
 40
0.0668003621061196
 40
0.1336007242122391
 40
0.1336007242122391
 40
0.2672014484244782
 40
0.2672014484244782
 40
0.5344028968489565
 40
0.5344028968489565
 40
1.045911365565358
 40
1.045911365565358
 40
1.49494581673905
 40
1.49494581673905
 40
1.577458553187272
 40
1.577458553187272
 40
1.642637743823351
 40
1.642637743823351
 40
2.411119812046122
 40
2.411119812046122
 40
2.516393641699123
 40
2.516393641699123
 40
2.670002849406766
 40
2.670002849406766
 40
2.977221264822051
 40
2.977221264822051
 40
3.415522730521492
 40
3.415522730521492
 40
4.466241743286599
 40
4.466241743286599
 40
5.516960756051707
 40
5.516960756051707
 40
6.567679768816812
 40
6.567679768816812
 40
7.646096619432446
 40
7.646096619432446
 40
8.678740506118934
 40
8.678740506118934
 40
9.67323355640647
 40
9.67323355640647
 40
10.58578324807275
 40
10.58578324807275
 40
11.41662126171348
 40
11.41662126171348
 40
12.24745927535421
 40
12.24745927535421
 40
12.42139169898622
 40
12.42139169898622
 40
12.54722917859157
 40
12.54722917859157
 40
12.67306665819692
 40
12.67306665819692
 40
12.79890413780227
 40
12.79890413780227
 40
12.92474161740761
 40
12.92474161740761
 40
13.05057909701296
 40
13.05057909701296
 40
13.17641657661831
 40
13.17641657661831
 40
13.30225405622366
 40
13.30225405622366
 40
13.53694922108822
 40
13.53694922108822
 40
13.77164438595279
 40
13.77164438595279
 40
14.00633955081735
 40
14.00633955081735
 40
14.1950769475504
 40
14.1950769475504
 40
14.1950769475504
 40
14.1950769475504
 10
1435.005592328629
 20
-695.7565414719107
 30
0.0
 10
1435.005176552137
 20
-695.7565414719107
 30
0.0
 10
1435.004760774354
 20
-695.756541496854
 30
0.0
 10
1435.00392921287
 20
-695.7565415966016
 30
0.0
 10
1435.003513429678
 20
-695.7565416714062
 30
0.0
 10
1435.002266073303
 20
-695.7565419705749
 30
0.0
 10
1435.001434493034
 20
-695.756542269694
 30
0.0
 10
1434.998939728743
 20
-695.7565434657712
 30
0.0
 10
1434.99727651873
 20
-695.7565446614512
 30
0.0
 10
1434.992286824364
 20
-695.7565494409546
 30
0.0
 10
1434.988960255486
 20
-695.7565542172757
 30
0.0
 10
1434.978980525184
 20
-695.7565732964897
 30
0.0
 10
1434.972327192063
 20
-695.75659235012
 30
0.0
 10
1434.952368914407
 20
-695.7566683508838
 30
0.0
 10
1434.939064787113
 20
-695.7567441439199
 30
0.0
 10
1434.89917297968
 20
-695.7570455306592
 30
0.0
 10
1434.872603290773
 20
-695.7573451726898
 30
0.0
 10
1434.795344056116
 20
-695.7584946996444
 30
0.0
 10
1434.744836305668
 20
-695.7595968009606
 30
0.0
 10
1434.650735563693
 20
-695.7622632229872
 30
0.0
 10
1434.607262977874
 20
-695.7639119429662
 30
0.0
 10
1434.555720950349
 20
-695.7657593925394
 30
0.0
 10
1434.547827325275
 20
-695.7661127295449
 30
0.0
 10
1434.533633089422
 20
-695.7667014210297
 30
0.0
 10
1434.527381767221
 20
-695.7669684300341
 30
0.0
 10
1434.447537170935
 20
-695.7704250725519
 30
0.0
 10
1434.375240499143
 20
-695.7742483421891
 30
0.0
 10
1434.294987184765
 20
-695.7792005492429
 30
0.0
 10
1434.285365118797
 20
-695.7798062464932
 30
0.0
 10
1434.261767702739
 20
-695.7813206041455
 30
0.0
 10
1434.247846049781
 20
-695.7822391704795
 30
0.0
 10
1434.206315679282
 20
-695.7850530841471
 30
0.0
 10
1434.178920812943
 20
-695.7870081667842
 30
0.0
 10
1434.113292497581
 20
-695.7919210523872
 30
0.0
 10
1434.075374284635
 20
-695.7949539557026
 30
0.0
 10
1433.948800427951
 20
-695.8057000096139
 30
0.0
 10
1433.864142516016
 20
-695.8139543593643
 30
0.0
 10
1433.703885782839
 20
-695.8313851556896
 30
0.0
 10
1433.629181986809
 20
-695.8404633964266
 30
0.0
 10
1433.489799309318
 20
-695.8589747786686
 30
0.0
 10
1433.426083612914
 20
-695.8682791411587
 30
0.0
 10
1433.307734430774
 20
-695.8869140450834
 30
0.0
 10
1433.254385316759
 20
-695.8960813956454
 30
0.0
 10
1433.161319167425
 20
-695.9131754617223
 30
0.0
 10
1433.121905268565
 20
-695.9209935655315
 30
0.0
 10
1433.0548302666
 20
-695.9350621516366
 30
0.0
 10
1433.027553220954
 20
-695.9411968753062
 30
0.0
 10
1432.983823318685
 20
-695.9514971285747
 30
0.0
 10
1432.967832630387
 20
-695.9554965797967
 30
0.0
 10
1432.941958411064
 20
-695.9622035753321
 30
0.0
 10
1432.93433057965
 20
-695.9642839063311
 30
0.0
 10
1432.918524535067
 20
-695.9687007226523
 30
0.0
 10
1432.918039385128
 20
-695.9688291122754
 30
0.0
 10
1432.903577646782
 20
-695.9730857534006
 30
0.0
 10
1432.904496635462
 20
-695.9728142336881
 30
0.0
 10
1432.897259805048
 20
-695.9749535342308
 30
0.0
 10
1432.898359974291
 20
-695.9746285286691
 30
0.0
 10
1432.890945256914
 20
-695.9768218388492
 30
0.0
 10
1432.891291084424
 20
-695.9767204507065
 30
0.0
 10
1432.882773177366
 20
-695.9792336650003
 30
0.0
 10
1432.881354568517
 20
-695.9796519923696
 30
0.0
 10
1432.871925876392
 20
-695.9824142625673
 30
0.0
 10
1432.867680076741
 20
-695.9836516933932
 30
0.0
 10
1432.857487222266
 20
-695.9865989604955
 30
0.0
 10
1432.849589459265
 20
-695.988861544062
 30
0.0
 10
1432.838735554861
 20
-695.9919367913928
 30
0.0
 10
1432.827143991343
 20
-695.9951779779816
 30
0.0
 10
1432.815698139816
 20
-695.9983320755783
 30
0.0
 10
1432.801819807468
 20
-696.0020955199182
 30
0.0
 10
1432.784289319202
 20
-696.0067666019481
 30
0.0
 10
1432.758804417186
 20
-696.0133478390121
 30
0.0
 10
1432.730810135153
 20
-696.0202936462883
 30
0.0
 10
1432.710216949566
 20
-696.0252362872759
 30
0.0
 10
1432.67717757567
 20
-696.0328259859517
 30
0.0
 10
1432.660645448785
 20
-696.0364917010977
 30
0.0
 10
1432.626556736279
 20
-696.0436916955711
 30
0.0
 10
1432.631459961167
 20
-696.0425956190944
 30
0.0
 10
1432.614996065319
 20
-696.0459089987141
 30
0.0
  0
LINE
  5
82
330
64
100
AcDbEntity
  8
Системный слой
  6
K5LT_BASIC
 62
   150
420
    33023
370
    60
100
AcDbLine
 10
1436.206838446604
 20
-692.7565414719107
 30
0.0
 11
1452.804346210654
 21
-692.7565414719107
 31
0.0
  0
LINE
  5
83
330
64
100
AcDbEntity
  8
Системный слой
  6
K5LT_BASIC
 62
   150
420
    33023
370
    60
100
AcDbLine
 10
1436.206838446604
 20
-695.7565414719107
 30
0.0
 11
1452.804346210654
 21
-695.7565414719107
 31
0.0
  0
LINE
  5
84
330
64
100
AcDbEntity
  8
Системный слой
  6
K5LT_BASIC
 62
   150
420
    33023
370
    60
100
AcDbLine
 10
1435.005592328629
 20
-695.7565414719107
 30
0.0
 11
1435.804346210654
 21
-695.7565414719107
 31
0.0
  0
LINE
  5
85
330
64
100
AcDbEntity
  8
Системный слой
  6
K5LT_BASIC
 62
   150
420
    33023
370
    60
100
AcDbLine
 10
1453.206838446604
 20
-695.7565414719107
 30
0.0
 11
1454.945592328629
 21
-695.7565414719107
 31
0.0
  0
LINE
  5
86
330
64
100
AcDbEntity
  8
Системный слой
  6
K5LT_BASIC
 62
   150
420
    33023
370
    60
100
AcDbLine
 10
1453.206838446604
 20
-692.7565414719107
 30
0.0
 11
1454.945592328629
 21
-692.7565414719107
 31
0.0
  0
LINE
  5
87
330
64
100
AcDbEntity
  8
Системный слой
  6
K5LT_BASIC
 62
   150
420
    33023
370
    60
100
AcDbLine
 10
1435.005592328629
 20
-692.7565414719107
 30
0.0
 11
1435.804346210654
 21
-692.7565414719107
 31
0.0
  0
ARC
  5
88
330
64
100
AcDbEntity
  8
Системный слой
  6
K5LT_BASIC
 62
   150
420
    33023
370
    60
100
AcDbCircle
 10
1453.005592328629
 20
-695.7565414719107
 30
0.0
 40
0.1500000000000079
100
AcDbArc
 50
16.60154959900638
 51
163.3984504009936
  0
ARC
  5
89
330
64
100
AcDbEntity
  8
Системный слой
  6
K5LT_BASIC
 62
   150
420
    33023
370
    60
100
AcDbCircle
 10
1453.005592328629
 20
-692.7565414719107
 30
0.0
 40
0.1500000000000079
100
AcDbArc
 50
196.6015495990063
 51
343.3984504009936
  0
ARC
  5
8A
330
64
100
AcDbEntity
  8
Системный слой
  6
K5LT_BASIC
 62
   150
420
    33023
370
    60
100
AcDbCircle
 10
1435.804346206816
 20
-695.6965414667616
 30
0.0
 40
0.0600000000000365
100
AcDbArc
 50
270.0000036649109
 51
343.3984467360279
  0
ARC
  5
8B
330
64
100
AcDbEntity
  8
Системный слой
  6
K5LT_BASIC
 62
   150
420
    33023
370
    60
100
AcDbCircle
 10
1436.206838446604
 20
-692.8165414719106
 30
0.0
 40
0.0600000000000364
100
AcDbArc
 50
90.0
 51
163.3984504009395
  0
ARC
  5
8C
330
64
100
AcDbEntity
  8
Системный слой
  6
K5LT_BASIC
 62
   150
420
    33023
370
    60
100
AcDbCircle
 10
1435.804346210654
 20
-692.8165414719106
 30
0.0
 40
0.0600000000000364
100
AcDbArc
 50
16.60154959906048
 51
90.0
  0
ARC
  5
8D
330
64
100
AcDbEntity
  8
Системный слой
  6
K5LT_BASIC
 62
   150
420
    33023
370
    60
100
AcDbCircle
 10
1453.206838450442
 20
-695.6965414667616
 30
0.0
 40
0.0600000000000138
100
AcDbArc
 50
196.6015532639513
 51
269.9999963350456
  0
ARC
  5
8E
330
64
100
AcDbEntity
  8
Системный слой
  6
K5LT_BASIC
 62
   150
420
    33023
370
    60
100
AcDbCircle
 10
1452.804346210654
 20
-692.8165414719106
 30
0.0
 40
0.0600000000000137
100
AcDbArc
 50
16.60154959903968
 51
89.99999999995656
  0
ARC
  5
8F
330
64
100
AcDbEntity
  8
Системный слой
  6
K5LT_BASIC
 62
   150
420
    33023
370
    60
100
AcDbCircle
 10
1453.206838446604
 20
-692.8165414719106
 30
0.0
 40
0.0600000000000364
100
AcDbArc
 50
90.0
 51
163.3984504009395
  0
LINE
  5
90
330
64
100
AcDbEntity
  8
Системный слой
  6
K5LT_BASIC
 62
   150
420
    33023
370
    60
100
AcDbLine
 10
1455.005592328629
 20
-692.8165414719106
 30
0.0
 11
1455.005592328629
 21
-695.6965414719107
 31
0.0
  0
ARC
  5
91
330
64
100
AcDbEntity
  8
Системный слой
  6
K5LT_BASIC
 62
   150
420
    33023
370
    60
100
AcDbCircle
 10
1436.206838450442
 20
-695.6965414667616
 30
0.0
 40
0.0600000000000365
100
AcDbArc
 50
196.6015532639929
 51
269.9999963350891
  0
ARC
  5
92
330
64
100
AcDbEntity
  8
Системный слой
  6
K5LT_BASIC
 62
   150
420
    33023
370
    60
100
AcDbCircle
 10
1454.945592328629
 20
-695.6965414719107
 30
0.0
 40
0.0599999999999909
100
AcDbArc
 50
270.0
 51
0.0
  0
ARC
  5
93
330
64
100
AcDbEntity
  8
Системный слой
  6
K5LT_BASIC
 62
   150
420
    33023
370
    60
100
AcDbCircle
 10
1454.945592328629
 20
-692.8165414719106
 30
0.0
 40
0.0599999999999909
100
AcDbArc
 50
0.0
 51
90.0
  0
ARC
  5
94
330
64
100
AcDbEntity
  8
Системный слой
  6
K5LT_BASIC
 62
   150
420
    33023
370
    60
100
AcDbCircle
 10
1452.804346206816
 20
-695.6965414667616
 30
0.0
 40
0.0600000000000138
100
AcDbArc
 50
270.0000036649543
 51
343.3984467360487
  0
ARC
  5
95
330
64
100
AcDbEntity
  8
Системный слой
  6
K5LT_BASIC
 62
   150
420
    33023
370
    60
100
AcDbCircle
 10
1436.005592328629
 20
-692.7565414719107
 30
0.0
 40
0.1500000000000079
100
AcDbArc
 50
196.6015495990063
 51
343.3984504009936
  0
ARC
  5
96
330
64
100
AcDbEntity
  8
Системный слой
  6
K5LT_BASIC
 62
   150
420
    33023
370
    60
100
AcDbCircle
 10
1436.005592328629
 20
-695.7565414719107
 30
0.0
 40
0.1500000000000079
100
AcDbArc
 50
16.60154959900638
 51
163.3984504009936
  0
ENDBLK
  5
97
330
64
100
AcDbEntity
  8
0
100
AcDbBlockEnd
  0
BLOCK
  5
9A
330
99
100
AcDbEntity
  8
0
100
AcDbBlockBegin
  2
U6
 70
     0
 10
0.0
 20
0.0
 30
0.0
  3
U6
  1

  0
LINE
  5
9B
330
99
100
AcDbEntity
  8
Системный слой
  6
K5LT_BASIC
 62
   150
420
    33023
370
    60
100
AcDbLine
 10
1433.315906800723
 20
-715.7010616393393
 30
0.0
 11
1433.315906800723
 21
-713.1307304771977
 31
0.0
  0
LINE
  5
9C
330
99
100
AcDbEntity
  8
Системный слой
  6
K5LT_BASIC
 62
   150
420
    33023
370
    60
100
AcDbLine
 10
1430.815906800723
 20
-713.1307304771978
 30
0.0
 11
1430.815906800723
 21
-715.7010616393393
 31
0.0
  0
ARC
  5
9D
330
99
100
AcDbEntity
  8
Системный слой
  6
K5LT_BASIC
 62
   150
420
    33023
370
    60
100
AcDbCircle
 10
1432.295903907403
 20
-715.6810616393394
 30
0.0
 40
0.7999999999999547
100
AcDbArc
 50
270.0
 51
0.0002072189156238
  0
LINE
  5
9E
330
99
100
AcDbEntity
  8
Системный слой
  6
K5LT_BASIC
 62
   150
420
    33023
370
    60
100
AcDbLine
 10
1433.095903907397
 20
-715.6810587460174
 30
0.0
 11
1433.09589464966
 21
-713.1213056400984
 31
0.0
  0
LINE
  5
9F
330
99
100
AcDbEntity
  8
Системный слой
  6
K5LT_BASIC
 62
   150
420
    33023
370
    60
100
AcDbLine
 10
1431.815906800723
 20
-716.7010616393394
 30
0.0
 11
1432.315906800723
 21
-716.7010616393394
 31
0.0
  0
LINE
  5
A0
330
99
100
AcDbEntity
  8
Системный слой
  6
K5LT_BASIC
 62
   150
420
    33023
370
    60
100
AcDbLine
 10
1431.835909694043
 20
-716.4810616393395
 30
0.0
 11
1432.295903907403
 21
-716.4810616393395
 31
0.0
  0
ARC
  5
A1
330
99
100
AcDbEntity
  8
Системный слой
  6
K5LT_BASIC
 62
   150
420
    33023
370
    60
100
AcDbCircle
 10
1433.295894649659
 20
-713.1213049167679
 30
0.0
 40
0.1999999999999893
100
AcDbArc
 50
129.3469193055753
 51
180.0002072189188
  0
ARC
  5
A2
330
99
100
AcDbEntity
  8
Системный слой
  6
K5LT_BASIC
 62
   150
420
    33023
370
    60
100
AcDbCircle
 10
1431.815906800723
 20
-715.7010616393392
 30
0.0
 40
1.00000000000009
100
AcDbArc
 50
180.0000000000025
 51
269.9999999999948
  0
ARC
  5
A3
330
99
100
AcDbEntity
  8
Системный слой
  6
K5LT_BASIC
 62
   150
420
    33023
370
    60
100
AcDbCircle
 10
1431.835909694043
 20
-715.6810616393394
 30
0.0
 40
0.8000000000000479
100
AcDbArc
 50
179.9997927810892
 51
269.9999999999968
  0
LINE
  5
A4
330
99
100
AcDbEntity
  8
Системный слой
  6
K5LT_BASIC
 62
   150
420
    33023
370
    60
100
AcDbLine
 10
1431.035918951785
 20
-713.1213056400984
 30
0.0
 11
1431.035909694048
 21
-715.6810587460174
 31
0.0
  0
ARC
  5
A5
330
99
100
AcDbEntity
  8
Системный слой
  6
K5LT_BASIC
 62
   150
420
    33023
370
    60
100
AcDbCircle
 10
1430.835918951787
 20
-713.1213049167679
 30
0.0
 40
0.1999999999999904
100
AcDbArc
 50
359.9997927810812
 51
50.65308069442464
  0
ARC
  5
A6
330
99
100
AcDbEntity
  8
Системный слой
  6
K5LT_BASIC
 62
   150
420
    33023
370
    60
100
AcDbCircle
 10
1432.065906800723
 20
-711.6210616393394
 30
0.0
 40
1.960000000000006
100
AcDbArc
 50
309.624626067138
 51
230.3753739328619
  0
ARC
  5
A7
330
99
100
AcDbEntity
  8
Системный слой
  6
K5LT_BASIC
 62
   150
420
    33023
370
    60
100
AcDbCircle
 10
1432.315906800723
 20
-715.7010616393393
 30
0.0
 40
1.0
100
AcDbArc
 50
270.0000000000026
 51
0.0
  0
ARC
  5
A8
330
99
100
AcDbEntity
  8
Системный слой
  6
K5LT_BASIC
 62
   150
420
    33023
370
    60
100
AcDbCircle
 10
1432.065906800723
 20
-711.6210616393394
 30
0.0
 40
1.740000000000004
100
AcDbArc
 50
309.3469193055728
 51
230.6530806944273
  0
LINE
  5
A9
330
99
100
AcDbEntity
  8
Системный слой
  6
K5LT_BASIC
 62
   150
420
    33023
370
    60
100
AcDbLine
 10
1432.565906800723
 20
-718.6410616393394
 30
0.0
 11
1432.565906800723
 21
-718.6348798211577
 31
0.0
  0
LINE
  5
AA
330
99
100
AcDbEntity
  8
Системный слой
  6
K5LT_BASIC
 62
   150
420
    33023
370
    60
100
AcDbLine
 10
1431.565906800723
 20
-718.6410616393394
 30
0.0
 11
1431.565906800723
 21
-718.6348798211577
 31
0.0
  0
LINE
  5
AB
330
99
100
AcDbEntity
  8
Системный слой
  6
K5LT_BASIC
 62
   150
420
    33023
370
    60
100
AcDbLine
 10
1432.565906800723
 20
-718.6410616393394
 30
0.0
 11
1431.565906800723
 21
-718.6410616393394
 31
0.0
  0
LINE
  5
AC
330
99
100
AcDbEntity
  8
Системный слой
  6
K5LT_BASIC
 62
   150
420
    33023
370
    60
100
AcDbLine
 10
1431.815906800723
 20
-716.732311138939
 30
0.0
 11
1432.315906800723
 21
-716.732311138939
 31
0.0
  0
LINE
  5
AD
330
99
100
AcDbEntity
  8
Системный слой
  6
K5LT_BASIC
 62
   150
420
    33023
370
    60
100
AcDbLine
 10
1430.815906800723
 20
-715.7010616393393
 30
0.0
 11
1430.815906800723
 21
-715.732311138939
 31
0.0
  0
LINE
  5
AE
330
99
100
AcDbEntity
  8
Системный слой
  6
K5LT_BASIC
 62
   150
420
    33023
370
    60
100
AcDbLine
 10
1433.315906800723
 20
-715.732311138939
 30
0.0
 11
1433.315906800723
 21
-715.7010616393393
 31
0.0
  0
ARC
  5
AF
330
99
100
AcDbEntity
  8
Системный слой
  6
K5LT_BASIC
 62
   150
420
    33023
370
    60
100
AcDbCircle
 10
1432.065906800723
 20
-711.6310616393394
 30
0.0
 40
2.000000000000013
100
AcDbArc
 50
311.2305771548674
 51
228.7694228451326
  0
ARC
  5
B0
330
99
100
AcDbEntity
  8
Системный слой
  6
K5LT_BASIC
 62
   150
420
    33023
370
    60
100
AcDbCircle
 10
1432.315906800723
 20
-715.7323111389389
 30
0.0
 40
1.00000000000009
100
AcDbArc
 50
270.0000000000052
 51
0.0
  0
ARC
  5
B1
330
99
100
AcDbEntity
  8
Системный слой
  6
K5LT_BASIC
 62
   150
420
    33023
370
    60
100
AcDbCircle
 10
1431.815906800723
 20
-715.7323111389389
 30
0.0
 40
1.000000000000067
100
AcDbArc
 50
180.0000000000038
 51
269.9999999999948
  0
ARC
  5
B2
330
99
100
AcDbEntity
  8
Системный слой
  6
K5LT_BASIC
 62
   150
420
    33023
370
    60
100
AcDbCircle
 10
1430.615906800723
 20
-713.2856008501167
 30
0.0
 40
0.1999999999998636
100
AcDbArc
 50
0.0
 51
48.76942284514523
  0
ARC
  5
B3
330
99
100
AcDbEntity
  8
Системный слой
  6
K5LT_BASIC
 62
   150
420
    33023
370
    60
100
AcDbCircle
 10
1433.515906800723
 20
-713.2856008501167
 30
0.0
 40
0.1999999999998722
100
AcDbArc
 50
131.2305771548547
 51
180.0000000000195
  0
SPLINE
  5
B4
330
99
100
AcDbEntity
  8
Системный слой
  6
K5LT_BASIC
 62
   150
420
    33023
370
    60
100
AcDbSpline
210
0.0
220
0.0
230
1.0
 70
     8
 71
     3
 72
    32
 73
    28
 74
     0
 42
0.000000001
 43
0.0000000001
 40
0.0
 40
0.0
 40
0.0
 40
0.0
 40
5.792637548767761
 40
5.792637548767761
 40
11.619183973249
 40
11.619183973249
 40
17.44654686383634
 40
17.44654686383634
 40
23.22237480498748
 40
23.22237480498748
 40
29.00392393855849
 40
29.00392393855849
 40
34.83310717895364
 40
34.83310717895364
 40
40.63163372268713
 40
40.63163372268713
 40
46.43673631810454
 40
46.43673631810454
 40
52.26529294781979
 40
52.26529294781979
 40
58.04145148412324
 40
58.04145148412324
 40
63.81271449910979
 40
63.81271449910979
 40
69.64392050414993
 40
69.64392050414993
 40
73.0
 40
73.0
 40
73.0
 40
73.0
 10
1436.494396870381
 20
-707.8025426234362
 30
0.0
 10
1436.535924132255
 20
-707.8025420680559
 30
0.0
 10
1436.577464194482
 20
-707.8051319530922
 30
0.0
 10
1436.660197462128
 20
-707.8154971737894
 30
0.0
 10
1436.701305906919
 20
-707.8232891750367
 30
0.0
 10
1436.78233608577
 20
-707.8439810853446
 30
0.0
 10
1436.822162532157
 20
-707.8568584116724
 30
0.0
 10
1436.899621116818
 20
-707.8873857709358
 30
0.0
 10
1436.937205839529
 20
-707.9049700979028
 30
0.0
 10
1437.009933306927
 20
-707.9446714075809
 30
0.0
 10
1437.045125331358
 20
-707.9668265492427
 30
0.0
 10
1437.112704024273
 20
-708.0154911646145
 30
0.0
 10
1437.145088831372
 20
-708.0420450783157
 30
0.0
 10
1437.206163698204
 20
-708.0988883803605
 30
0.0
 10
1437.23484949146
 20
-708.1291396760086
 30
0.0
 10
1437.288239571442
 20
-708.1929826215613
 30
0.0
 10
1437.312948278068
 20
-708.2265850451054
 30
0.0
 10
1437.358106230048
 20
-708.296796913901
 30
0.0
 10
1437.378492656787
 20
-708.3333412441087
 30
0.0
 10
1437.414424988787
 20
-708.4084642519013
 30
0.0
 10
1437.429964486734
 20
-708.4469234213346
 30
0.0
 10
1437.456171814702
 20
-708.5255165234398
 30
0.0
 10
1437.466826019447
 20
-708.5656114477882
 30
0.0
 10
1437.483161787161
 20
-708.6471714175314
 30
0.0
 10
1437.488804756335
 20
-708.6887275494237
 30
0.0
 10
1437.493557845902
 20
-708.7544578473526
 30
0.0
 10
1437.494426138397
 20
-708.7785119030232
 30
0.0
 10
1437.494425816626
 20
-708.8025715696809
 30
0.0
  0
SPLINE
  5
B5
330
99
100
AcDbEntity
  8
Системный слой
  6
K5LT_BASIC
 62
   150
420
    33023
370
    60
100
AcDbSpline
210
0.0
220
0.0
230
1.0
 70
     8
 71
     3
 72
    32
 73
    28
 74
     0
 42
0.000000001
 43
0.0000000001
 40
0.0
 40
0.0
 40
0.0
 40
0.0
 40
5.792637548767392
 40
5.792637548767392
 40
11.61918397324902
 40
11.61918397324902
 40
17.44654686383579
 40
17.44654686383579
 40
23.22237480498652
 40
23.22237480498652
 40
29.00392393855647
 40
29.00392393855647
 40
34.83310717895275
 40
34.83310717895275
 40
40.63163372268646
 40
40.63163372268646
 40
46.4367363181036
 40
46.4367363181036
 40
52.26529294781887
 40
52.26529294781887
 40
58.04145148412197
 40
58.04145148412197
 40
63.81271449910702
 40
63.81271449910702
 40
69.64392050414689
 40
69.64392050414689
 40
73.0
 40
73.0
 40
73.0
 40
73.0
 10
1427.637416731064
 20
-718.6595806552427
 30
0.0
 10
1427.59588946919
 20
-718.659581210623
 30
0.0
 10
1427.554349406964
 20
-718.6569913255866
 30
0.0
 10
1427.471616139317
 20
-718.6466261048897
 30
0.0
 10
1427.430507694527
 20
-718.638834103642
 30
0.0
 10
1427.349477515676
 20
-718.6181421933341
 30
0.0
 10
1427.309651069287
 20
-718.6052648670065
 30
0.0
 10
1427.232192484627
 20
-718.574737507743
 30
0.0
 10
1427.194607761917
 20
-718.5571531807759
 30
0.0
 10
1427.121880294519
 20
-718.517451871098
 30
0.0
 10
1427.086688270088
 20
-718.4952967294361
 30
0.0
 10
1427.019109577173
 20
-718.4466321140643
 30
0.0
 10
1426.986724770073
 20
-718.420078200363
 30
0.0
 10
1426.925649903242
 20
-718.3632348983182
 30
0.0
 10
1426.896964109985
 20
-718.3329836026703
 30
0.0
 10
1426.843574030004
 20
-718.2691406571177
 30
0.0
 10
1426.818865323378
 20
-718.2355382335733
 30
0.0
 10
1426.773707371397
 20
-718.1653263647777
 30
0.0
 10
1426.753320944659
 20
-718.12878203457
 30
0.0
 10
1426.717388612658
 20
-718.0536590267775
 30
0.0
 10
1426.701849114711
 20
-718.0151998573442
 30
0.0
 10
1426.675641786744
 20
-717.9366067552392
 30
0.0
 10
1426.664987581999
 20
-717.8965118308909
 30
0.0
 10
1426.648651814285
 20
-717.8149518611473
 30
0.0
 10
1426.643008845111
 20
-717.773395729255
 30
0.0
 10
1426.638255755543
 20
-717.7076654313264
 30
0.0
 10
1426.637387463049
 20
-717.6836113756555
 30
0.0
 10
1426.637387784819
 20
-717.6595517089978
 30
0.0
  0
SPLINE
  5
B6
330
99
100
AcDbEntity
  8
Системный слой
  6
K5LT_BASIC
 62
   150
420
    33023
370
    60
100
AcDbSpline
210
0.0
220
0.0
230
1.0
 70
     8
 71
     3
 72
    32
 73
    28
 74
     0
 42
0.000000001
 43
0.0000000001
 40
0.0
 40
0.0
 40
0.0
 40
0.0
 40
5.792637548767372
 40
5.792637548767372
 40
11.61918397324845
 40
11.61918397324845
 40
17.44654686383541
 40
17.44654686383541
 40
23.22237480498563
 40
23.22237480498563
 40
29.00392393855565
 40
29.00392393855565
 40
34.83310717895125
 40
34.83310717895125
 40
40.63163372268453
 40
40.63163372268453
 40
46.43673631810178
 40
46.43673631810178
 40
52.26529294781662
 40
52.26529294781662
 40
58.04145148411944
 40
58.04145148411944
 40
63.81271449910503
 40
63.81271449910503
 40
69.6439205041451
 40
69.6439205041451
 40
73.0
 40
73.0
 40
73.0
 40
73.0
 10
1426.637387784819
 20
-708.8025715696809
 30
0.0
 10
1426.637387229439
 20
-708.7610443078067
 30
0.0
 10
1426.639977114476
 20
-708.7195042455803
 30
0.0
 10
1426.650342335173
 20
-708.6367709779341
 30
0.0
 10
1426.65813433642
 20
-708.5956625331434
 30
0.0
 10
1426.678826246727
 20
-708.5146323542927
 30
0.0
 10
1426.691703573056
 20
-708.4748059079037
 30
0.0
 10
1426.722230932319
 20
-708.397347323244
 30
0.0
 10
1426.739815259286
 20
-708.3597626005337
 30
0.0
 10
1426.779516568964
 20
-708.2870351331356
 30
0.0
 10
1426.801671710626
 20
-708.2518431087044
 30
0.0
 10
1426.850336325998
 20
-708.1842644157894
 30
0.0
 10
1426.876890239699
 20
-708.1518796086901
 30
0.0
 10
1426.933733541744
 20
-708.0908047418589
 30
0.0
 10
1426.963984837392
 20
-708.0621189486021
 30
0.0
 10
1427.027827782944
 20
-708.0087288686203
 30
0.0
 10
1427.061430206489
 20
-707.9840201619941
 30
0.0
 10
1427.131642075284
 20
-707.9388622100139
 30
0.0
 10
1427.168186405492
 20
-707.9184757832753
 30
0.0
 10
1427.243309413285
 20
-707.8825434512752
 30
0.0
 10
1427.281768582718
 20
-707.8670039533281
 30
0.0
 10
1427.360361684823
 20
-707.8407966253601
 30
0.0
 10
1427.400456609172
 20
-707.8301424206157
 30
0.0
 10
1427.482016578915
 20
-707.8138066529013
 30
0.0
 10
1427.523572710807
 20
-707.8081636837274
 30
0.0
 10
1427.589303008736
 20
-707.8034105941597
 30
0.0
 10
1427.613357064407
 20
-707.8025423016652
 30
0.0
 10
1427.637416731064
 20
-707.8025426234362
 30
0.0
  0
LINE
  5
B7
330
99
100
AcDbEntity
  8
Системный слой
  6
K5LT_BASIC
 62
   150
420
    33023
370
    60
100
AcDbLine
 10
1426.637387784255
 20
-708.8025690439949
 30
0.0
 11
1426.637387784255
 21
-717.659554234684
 31
0.0
  0
SPLINE
  5
B8
330
99
100
AcDbEntity
  8
Системный слой
  6
K5LT_BASIC
 62
   150
420
    33023
370
    60
100
AcDbSpline
210
0.0
220
0.0
230
1.0
 70
     8
 71
     3
 72
    32
 73
    28
 74
     0
 42
0.000000001
 43
0.0000000001
 40
0.0
 40
0.0
 40
0.0
 40
0.0
 40
5.792637548767192
 40
5.792637548767192
 40
11.61918397324824
 40
11.61918397324824
 40
17.44654686383561
 40
17.44654686383561
 40
23.22237480498703
 40
23.22237480498703
 40
29.0039239385576
 40
29.0039239385576
 40
34.83310717895295
 40
34.83310717895295
 40
40.63163372268628
 40
40.63163372268628
 40
46.43673631810357
 40
46.43673631810357
 40
52.26529294781883
 40
52.26529294781883
 40
58.04145148412285
 40
58.04145148412285
 40
63.81271449910911
 40
63.81271449910911
 40
69.64392050414931
 40
69.64392050414931
 40
73.0
 40
73.0
 40
73.0
 40
73.0
 10
1437.494425816626
 20
-717.6595517089978
 30
0.0
 10
1437.494426372006
 20
-717.7010789708722
 30
0.0
 10
1437.49183648697
 20
-717.7426190330987
 30
0.0
 10
1437.481471266273
 20
-717.8253523007447
 30
0.0
 10
1437.473679265025
 20
-717.8664607455356
 30
0.0
 10
1437.452987354718
 20
-717.9474909243863
 30
0.0
 10
1437.44011002839
 20
-717.9873173707751
 30
0.0
 10
1437.409582669127
 20
-718.0647759554346
 30
0.0
 10
1437.391998342159
 20
-718.1023606781451
 30
0.0
 10
1437.352297032481
 20
-718.1750881455432
 30
0.0
 10
1437.33014189082
 20
-718.2102801699747
 30
0.0
 10
1437.281477275448
 20
-718.2778588628893
 30
0.0
 10
1437.254923361747
 20
-718.3102436699887
 30
0.0
 10
1437.198080059702
 20
-718.3713185368199
 30
0.0
 10
1437.167828764054
 20
-718.4000043300767
 30
0.0
 10
1437.103985818501
 20
-718.4533944100586
 30
0.0
 10
1437.070383394957
 20
-718.4781031166849
 30
0.0
 10
1437.000171526161
 20
-718.5232610686649
 30
0.0
 10
1436.963627195954
 20
-718.5436474954034
 30
0.0
 10
1436.888504188161
 20
-718.5795798274036
 30
0.0
 10
1436.850045018728
 20
-718.5951193253507
 30
0.0
 10
1436.771451916623
 20
-718.6213266533187
 30
0.0
 10
1436.731356992274
 20
-718.6319808580632
 30
0.0
 10
1436.649797022531
 20
-718.6483166257773
 30
0.0
 10
1436.608240890638
 20
-718.6539595949515
 30
0.0
 10
1436.54251059271
 20
-718.6587126845191
 30
0.0
 10
1436.518456537039
 20
-718.6595809770135
 30
0.0
 10
1436.494396870381
 20
-718.6595806552427
 30
0.0
  0
LINE
  5
B9
330
99
100
AcDbEntity
  8
Системный слой
  6
K5LT_BASIC
 62
   150
420
    33023
370
    60
100
AcDbLine
 10
1436.494399396067
 20
-707.802542622872
 30
0.0
 11
1427.637414205378
 21
-707.802542622872
 31
0.0
  0
LINE
  5
BA
330
99
100
AcDbEntity
  8
Системный слой
  6
K5LT_BASIC
 62
   150
420
    33023
370
    60
100
AcDbLine
 10
1437.49442581719
 20
-717.659554234684
 30
0.0
 11
1437.49442581719
 21
-708.8025690439949
 31
0.0
  0
LINE
  5
BB
330
99
100
AcDbEntity
  8
Системный слой
  6
K5LT_BASIC
 62
   150
420
    33023
370
    60
100
AcDbLine
 10
1427.637414205378
 20
-718.6595806558068
 30
0.0
 11
1431.515906800723
 21
-718.6595806563408
 31
0.0
  0
LINE
  5
BC
330
99
100
AcDbEntity
  8
Системный слой
  6
K5LT_BASIC
 62
   150
420
    33023
370
    60
100
AcDbLine
 10
1432.615906800723
 20
-718.6595806563408
 30
0.0
 11
1436.494399396067
 21
-718.6595806558068
 31
0.0
  0
LINE
  5
BD
330
99
100
AcDbEntity
  8
Системный слой
  6
K5LT_BASIC
 62
   150
420
    33023
370
    60
100
AcDbLine
 10
1431.515906800723
 20
-718.6348798211577
 30
0.0
 11
1431.515906800723
 21
-718.6595542362587
 31
0.0
  0
LINE
  5
BE
330
99
100
AcDbEntity
  8
Системный слой
  6
K5LT_BASIC
 62
   150
420
    33023
370
    60
100
AcDbLine
 10
1432.615906800723
 20
-718.6595806563408
 30
0.0
 11
1432.615906800723
 21
-718.6595542362587
 31
0.0
  0
LINE
  5
BF
330
99
100
AcDbEntity
  8
Системный слой
  6
K5LT_BASIC
 62
   150
420
    33023
370
    60
100
AcDbLine
 10
1431.515906800723
 20
-718.6595806563408
 30
0.0
 11
1431.515906800723
 21
-718.6595542362587
 31
0.0
  0
LINE
  5
C0
330
99
100
AcDbEntity
  8
Системный слой
  6
K5LT_BASIC
 62
   150
420
    33023
370
    60
100
AcDbLine
 10
1431.515906800723
 20
-718.6348798211577
 30
0.0
 11
1432.615906800723
 21
-718.6348798211577
 31
0.0
  0
LINE
  5
C1
330
99
100
AcDbEntity
  8
Системный слой
  6
K5LT_BASIC
 62
   150
420
    33023
370
    60
100
AcDbLine
 10
1432.615906800723
 20
-718.6595542362587
 30
0.0
 11
1432.615906800723
 21
-718.6348798211577
 31
0.0
  0
INSERT
  5
C2
330
99
100
AcDbEntity
  8
Системный слой
100
AcDbBlockReference
  2
U7
 10
0.0
 20
0.0
 30
0.0
  0
ENDBLK
  5
CA
330
99
100
AcDbEntity
  8
0
100
AcDbBlockEnd
  0
BLOCK
  5
C4
330
C3
100
AcDbEntity
  8
0
100
AcDbBlockBegin
  2
U7
 70
     0
 10
0.0
 20
0.0
 30
0.0
  3
U7
  1

  0
LINE
  5
C5
330
C3
100
AcDbEntity
  8
Системный слой
  6
K5LT_BASIC
 62
   150
420
    33023
370
    60
100
AcDbLine
 10
1431.265906800723
 20
-711.8810616393394
 30
0.0
 11
1432.865906800723
 21
-711.8810616393394
 31
0.0
  0
LINE
  5
C6
330
C3
100
AcDbEntity
  8
Системный слой
  6
K5LT_BASIC
 62
   150
420
    33023
370
    60
100
AcDbLine
 10
1432.865906800723
 20
-711.8810616393394
 30
0.0
 11
1432.865906800723
 21
-711.3810616393394
 31
0.0
  0
LINE
  5
C7
330
C3
100
AcDbEntity
  8
Системный слой
  6
K5LT_BASIC
 62
   150
420
    33023
370
    60
100
AcDbLine
 10
1432.865906800723
 20
-711.3810616393394
 30
0.0
 11
1431.265906800723
 21
-711.3810616393394
 31
0.0
  0
LINE
  5
C8
330
C3
100
AcDbEntity
  8
Системный слой
  6
K5LT_BASIC
 62
   150
420
    33023
370
    60
100
AcDbLine
 10
1431.265906800723
 20
-711.3810616393394
 30
0.0
 11
1431.265906800723
 21
-711.8810616393394
 31
0.0
  0
ENDBLK
  5
C9
330
C3
100
AcDbEntity
  8
0
100
AcDbBlockEnd
  0
ENDSEC
  0
SECTION
  2
ENTITIES
  0
ARC
  5
12C
330
2
100
AcDbEntity
  8
Системный слой
  6
K5LT_BASIC
 62
   150
420
    33023
370
    60
100
AcDbCircle
 10
-0.0000000013722021
 20
0.0000000000003411
 30
0.0
 40
2.970000001181486
100
AcDbArc
 50
30.53453533400591
 51
329.4654646662218
  0
SPLINE
  5
12D
330
2
100
AcDbEntity
  8
Системный слой
  6
K5LT_BASIC
 62
   150
420
    33023
370
    60
100
AcDbSpline
210
0.0
220
0.0
230
1.0
 70
     8
 71
     3
 72
    32
 73
    28
 74
     0
 42
0.000000001
 43
0.0000000001
 40
0.0
 40
0.0
 40
0.0
 40
0.0
 40
5.792637548767761
 40
5.792637548767761
 40
11.619183973249
 40
11.619183973249
 40
17.44654686383634
 40
17.44654686383634
 40
23.22237480498748
 40
23.22237480498748
 40
29.00392393855849
 40
29.00392393855849
 40
34.83310717895364
 40
34.83310717895364
 40
40.63163372268713
 40
40.63163372268713
 40
46.43673631810454
 40
46.43673631810454
 40
52.26529294781979
 40
52.26529294781979
 40
58.04145148412324
 40
58.04145148412324
 40
63.81271449910979
 40
63.81271449910979
 40
69.64392050414993
 40
69.64392050414993
 40
73.0
 40
73.0
 40
73.0
 40
73.0
 10
4.428490069657755
 20
5.428519015903246
 30
0.0
 10
4.470017331531835
 20
5.428519571283684
 30
0.0
 10
4.511557393757811
 20
5.425929686247284
 30
0.0
 10
4.594290661404784
 20
5.415564465550231
 30
0.0
 10
4.635399106195791
 20
5.40777246430275
 30
0.0
 10
4.716429285045933
 20
5.387080553994676
 30
0.0
 10
4.756255731434748
 20
5.374203227667178
 30
0.0
 10
4.833714316094756
 20
5.343675868403577
 30
0.0
 10
4.871299038804863
 20
5.326091541436424
 30
0.0
 10
4.944026506202817
 20
5.286390231758671
 30
0.0
 10
4.979218530634852
 20
5.264235090096688
 30
0.0
 10
5.046797223548765
 20
5.215570474725039
 30
0.0
 10
5.079182030647643
 20
5.189016561023661
 30
0.0
 10
5.140256897479957
 20
5.132173258978694
 30
0.0
 10
5.168942690737139
 20
5.101921963330822
 30
0.0
 10
5.222332770718821
 20
5.038079017778271
 30
0.0
 10
5.247041477344737
 20
5.00447659423389
 30
0.0
 10
5.292199429324682
 20
4.934264725438195
 30
0.0
 10
5.31258585606406
 20
4.897720395230519
 30
0.0
 10
5.348518188063735
 20
4.822597387438007
 30
0.0
 10
5.364057686010937
 20
4.784138218004725
 30
0.0
 10
5.390265013978932
 20
4.705545115899665
 30
0.0
 10
5.400919218722947
 20
4.66545019155137
 30
0.0
 10
5.417254986437001
 20
4.58389022180779
 30
0.0
 10
5.422897955611915
 20
4.542334089915469
 30
0.0
 10
5.42765104517889
 20
4.476603791987029
 30
0.0
 10
5.428519337673833
 20
4.452549736316198
 30
0.0
 10
5.428519015902793
 20
4.428490069658321
 30
0.0
  0
SPLINE
  5
12E
330
2
100
AcDbEntity
  8
Системный слой
  6
K5LT_BASIC
 62
   150
420
    33023
370
    60
100
AcDbSpline
210
0.0
220
0.0
230
1.0
 70
     8
 71
     3
 72
    34
 73
    30
 74
     0
 42
0.000000001
 43
0.0000000001
 40
0.0
 40
0.0
 40
0.0
 40
0.0
 40
0.0001174359832615
 40
0.0001174359832615
 40
5.792637548767392
 40
5.792637548767392
 40
11.61918397324902
 40
11.61918397324902
 40
17.44654686383579
 40
17.44654686383579
 40
23.22237480498652
 40
23.22237480498652
 40
29.00392393855647
 40
29.00392393855647
 40
34.83310717895275
 40
34.83310717895275
 40
40.63163372268646
 40
40.63163372268646
 40
46.4367363181036
 40
46.4367363181036
 40
52.26529294781887
 40
52.26529294781887
 40
58.04145148412197
 40
58.04145148412197
 40
63.81271449910702
 40
63.81271449910702
 40
69.64392050414689
 40
69.64392050414689
 40
73.0
 40
73.0
 40
73.0
 40
73.0
 10
-4.428490069658895
 20
-5.428519015903132
 30
0.0
 10
-4.428490911554039
 20
-5.428519015914501
 30
0.0
 10
-4.428491755264989
 20
-5.428519068352668
 30
0.0
 10
-4.469929500431138
 20
-5.425933463245995
 30
0.0
 10
-4.511558229951109
 20
-5.425929581485204
 30
0.0
 10
-4.594290661406152
 20
-5.415564465550117
 30
0.0
 10
-4.635399106197159
 20
-5.407772464302523
 30
0.0
 10
-4.716429285047073
 20
-5.38708055399479
 30
0.0
 10
-4.756255731436116
 20
-5.374203227666951
 30
0.0
 10
-4.833714316096124
 20
-5.343675868403463
 30
0.0
 10
-4.871299038806004
 20
-5.326091541436424
 30
0.0
 10
-4.944026506204185
 20
-5.286390231758785
 30
0.0
 10
-4.97921853063622
 20
-5.264235090096802
 30
0.0
 10
-5.04679722355036
 20
-5.215570474725039
 30
0.0
 10
-5.079182030650148
 20
-5.189016561023548
 30
0.0
 10
-5.140256897481325
 20
-5.132173258978921
 30
0.0
 10
-5.168942690738052
 20
-5.101921963330708
 30
0.0
 10
-5.222332770720189
 20
-5.038079017778384
 30
0.0
 10
-5.247041477346105
 20
-5.004476594233663
 30
0.0
 10
-5.29219942932605
 20
-4.934264725438195
 30
0.0
 10
-5.312585856065201
 20
-4.897720395230406
 30
0.0
 10
-5.348518188065103
 20
-4.822597387437893
 30
0.0
 10
-5.364057686012078
 20
-4.784138218004725
 30
0.0
 10
-5.3902650139803
 20
-4.705545115899665
 30
0.0
 10
-5.400919218725224
 20
-4.665450191551256
 30
0.0
 10
-5.417254986438141
 20
-4.583890221807903
 30
0.0
 10
-5.422897955613056
 20
-4.542334089915582
 30
0.0
 10
-5.427651045180258
 20
-4.476603791987029
 30
0.0
 10
-5.428519337674973
 20
-4.452549736316084
 30
0.0
 10
-5.428519015904161
 20
-4.428490069658208
 30
0.0
  0
SPLINE
  5
12F
330
2
100
AcDbEntity
  8
Системный слой
  6
K5LT_BASIC
 62
   150
420
    33023
370
    60
100
AcDbSpline
210
0.0
220
0.0
230
1.0
 70
     8
 71
     3
 72
    32
 73
    28
 74
     0
 42
0.000000001
 43
0.0000000001
 40
0.0
 40
0.0
 40
0.0
 40
0.0
 40
5.792637548767372
 40
5.792637548767372
 40
11.61918397324845
 40
11.61918397324845
 40
17.44654686383541
 40
17.44654686383541
 40
23.22237480498563
 40
23.22237480498563
 40
29.00392393855565
 40
29.00392393855565
 40
34.83310717895125
 40
34.83310717895125
 40
40.63163372268453
 40
40.63163372268453
 40
46.43673631810178
 40
46.43673631810178
 40
52.26529294781662
 40
52.26529294781662
 40
58.04145148411944
 40
58.04145148411944
 40
63.81271449910503
 40
63.81271449910503
 40
69.6439205041451
 40
69.6439205041451
 40
73.0
 40
73.0
 40
73.0
 40
73.0
 10
-5.428519015904157
 20
4.428490069658325
 30
0.0
 10
-5.428519571284141
 20
4.470017331532746
 30
0.0
 10
-5.425929686248082
 20
4.511557393759291
 30
0.0
 10
-5.415564465550914
 20
4.594290661405468
 30
0.0
 10
-5.407772464303207
 20
4.635399106196247
 30
0.0
 10
-5.387080553995247
 20
4.716429285046844
 30
0.0
 10
-5.374203227667976
 20
4.756255731435887
 30
0.0
 10
-5.343675868404034
 20
4.833714316095212
 30
0.0
 10
-5.326091541437335
 20
4.871299038805775
 30
0.0
 10
-5.286390231759241
 20
4.944026506203728
 30
0.0
 10
-5.264235090097145
 20
4.979218530635195
 30
0.0
 10
-5.215570474726064
 20
5.046797223550131
 30
0.0
 10
-5.189016561024118
 20
5.079182030649237
 30
0.0
 10
-5.132173258979037
 20
5.140256897480755
 30
0.0
 10
-5.101921963332188
 20
5.168942690737482
 30
0.0
 10
-5.038079017779182
 20
5.222332770719164
 30
0.0
 10
-5.00447659423412
 20
5.247041477345421
 30
0.0
 10
-4.934264725439106
 20
5.292199429325707
 30
0.0
 10
-4.89772039523109
 20
5.312585856063948
 30
0.0
 10
-4.822597387439145
 20
5.348518188064305
 30
0.0
 10
-4.784138218006091
 20
5.36405768601128
 30
0.0
 10
-4.705545115900122
 20
5.390265013979275
 30
0.0
 10
-4.665450191552054
 20
5.400919218723858
 30
0.0
 10
-4.583890221809269
 20
5.417254986438139
 30
0.0
 10
-4.542334089916266
 20
5.422897955612144
 30
0.0
 10
-4.476603791988054
 20
5.427651045179688
 30
0.0
 10
-4.452549736316996
 20
5.428519337674289
 30
0.0
 10
-4.428490069658892
 20
5.428519015903249
 30
0.0
  0
LINE
  5
130
330
2
100
AcDbEntity
  8
Системный слой
  6
K5LT_BASIC
 62
   150
420
    33023
370
    60
100
AcDbLine
 10
-5.428519016468044
 20
4.428492595344552
 30
0.0
 11
-5.428519016468047
 21
-4.428492595344435
 31
0.0
  0
SPLINE
  5
131
330
2
100
AcDbEntity
  8
Системный слой
  6
K5LT_BASIC
 62
   150
420
    33023
370
    60
100
AcDbSpline
210
0.0
220
0.0
230
1.0
 70
     8
 71
     3
 72
    32
 73
    28
 74
     0
 42
0.000000001
 43
0.0000000001
 40
0.0
 40
0.0
 40
0.0
 40
0.0
 40
5.792637548767192
 40
5.792637548767192
 40
11.61918397324824
 40
11.61918397324824
 40
17.44654686383561
 40
17.44654686383561
 40
23.22237480498703
 40
23.22237480498703
 40
29.0039239385576
 40
29.0039239385576
 40
34.83310717895295
 40
34.83310717895295
 40
40.63163372268628
 40
40.63163372268628
 40
46.43673631810357
 40
46.43673631810357
 40
52.26529294781883
 40
52.26529294781883
 40
58.04145148412285
 40
58.04145148412285
 40
63.81271449910911
 40
63.81271449910911
 40
69.64392050414931
 40
69.64392050414931
 40
73.0
 40
73.0
 40
73.0
 40
73.0
 10
5.428519015902789
 20
-4.428490069658211
 30
0.0
 10
5.428519571282773
 20
-4.470017331532746
 30
0.0
 10
5.425929686246714
 20
-4.511557393759177
 30
0.0
 10
5.415564465549774
 20
-4.594290661405354
 30
0.0
 10
5.407772464301839
 20
-4.635399106196361
 30
0.0
 10
5.387080553993879
 20
-4.71642928504673
 30
0.0
 10
5.374203227665926
 20
-4.756255731435773
 30
0.0
 10
5.343675868402893
 20
-4.833714316095326
 30
0.0
 10
5.326091541435967
 20
-4.871299038805547
 30
0.0
 10
5.286390231757874
 20
-4.944026506203728
 30
0.0
 10
5.264235090096004
 20
-4.979218530635195
 30
0.0
 10
5.215570474724014
 20
-5.046797223550017
 30
0.0
 10
5.18901656102275
 20
-5.079182030649237
 30
0.0
 10
5.132173258977896
 20
-5.140256897480755
 30
0.0
 10
5.10192196332991
 20
-5.168942690737141
 30
0.0
 10
5.038079017777814
 20
-5.222332770719164
 30
0.0
 10
5.004476594232979
 20
-5.247041477345307
 30
0.0
 10
4.934264725437738
 20
-5.292199429325707
 30
0.0
 10
4.897720395229949
 20
-5.312585856064062
 30
0.0
 10
4.822597387437777
 20
-5.348518188064305
 30
0.0
 10
4.784138218004041
 20
-5.364057686011507
 30
0.0
 10
4.705545115898981
 20
-5.390265013979503
 30
0.0
 10
4.665450191550686
 20
-5.400919218723972
 30
0.0
 10
4.583890221806992
 20
-5.417254986438026
 30
0.0
 10
4.542334089914898
 20
-5.422897955612031
 30
0.0
 10
4.476603791986004
 20
-5.427651045179574
 30
0.0
 10
4.452549736314718
 20
-5.428519337674289
 30
0.0
 10
4.428490069657751
 20
-5.428519015903136
 30
0.0
  0
LINE
  5
132
330
2
100
AcDbEntity
  8
Системный слой
  6
K5LT_BASIC
 62
   150
420
    33023
370
    60
100
AcDbLine
 10
4.428492595343868
 20
5.428519016467587
 30
0.0
 11
-4.428492595345005
 21
5.428519016467591
 31
0.0
  0
LINE
  5
133
330
2
100
AcDbEntity
  8
Системный слой
  6
K5LT_BASIC
 62
   150
420
    33023
370
    60
100
AcDbLine
 10
5.428519016466903
 20
-4.428492595344438
 30
0.0
 11
5.428519017000778
 21
-1.500000000000001
 31
0.0
  0
LINE
  5
134
330
2
100
AcDbEntity
  8
Системный слой
  6
K5LT_BASIC
 62
   150
420
    33023
370
    60
100
AcDbLine
 10
5.428519017000779
 20
1.499999999999998
 30
0.0
 11
5.428519016466907
 21
4.428492595344549
 31
0.0
  0
LINE
  5
135
330
2
100
AcDbEntity
  8
Системный слой
  6
K5LT_BASIC
 62
   150
420
    33023
370
    60
100
AcDbLine
 10
-4.428492595345009
 20
-5.428519016467474
 30
0.0
 11
-0.5500000000010954
 21
-5.428519017001235
 31
0.0
  0
LINE
  5
136
330
2
100
AcDbEntity
  8
Системный слой
  6
K5LT_BASIC
 62
   150
420
    33023
370
    60
100
AcDbLine
 10
0.5499999999988137
 20
-5.428519017001235
 30
0.0
 11
4.428492595343865
 21
-5.428519016467477
 31
0.0
  0
LINE
  5
137
330
2
100
AcDbEntity
  8
Системный слой
  6
K5LT_BASIC
 62
   150
420
    33023
370
    60
100
AcDbLine
 10
-0.5500000000010954
 20
-5.403818181818223
 30
0.0
 11
-0.5500000000010954
 21
-5.428492596919113
 31
0.0
  0
LINE
  5
138
330
2
100
AcDbEntity
  8
Системный слой
  6
K5LT_BASIC
 62
   150
420
    33023
370
    60
100
AcDbLine
 10
0.5499999999988137
 20
-5.428519017001235
 30
0.0
 11
0.5499999999988137
 21
-5.428492596919113
 31
0.0
  0
LINE
  5
139
330
2
100
AcDbEntity
  8
Системный слой
  6
K5LT_BASIC
 62
   150
420
    33023
370
    60
100
AcDbLine
 10
-0.5500000000010954
 20
-5.428519017001235
 30
0.0
 11
-0.5500000000010954
 21
-5.428492596919113
 31
0.0
  0
LINE
  5
13A
330
2
100
AcDbEntity
  8
Системный слой
  6
K5LT_BASIC
 62
   150
420
    33023
370
    60
100
AcDbLine
 10
-0.5500000000010954
 20
-5.403818181818223
 30
0.0
 11
0.5499999999988137
 21
-5.403818181818223
 31
0.0
  0
LINE
  5
13B
330
2
100
AcDbEntity
  8
Системный слой
  6
K5LT_BASIC
 62
   150
420
    33023
370
    60
100
AcDbLine
 10
0.5499999999988137
 20
-5.428492596919113
 30
0.0
 11
0.5499999999988137
 21
-5.403818181818223
 31
0.0
  0
LINE
  5
13C
330
2
100
AcDbEntity
  8
Системный слой
  6
K5LT_BASIC
 62
   150
420
    33023
370
    60
100
AcDbLine
 10
0.4999999999988592
 20
-5.409999999999854
 30
0.0
 11
0.4999999999988592
 21
-5.403818181818223
 31
0.0
  0
LINE
  5
13D
330
2
100
AcDbEntity
  8
Системный слой
  6
K5LT_BASIC
 62
   150
420
    33023
370
    60
100
AcDbLine
 10
-0.5000000000011409
 20
-5.409999999999854
 30
0.0
 11
-0.5000000000011409
 21
-5.403818181818223
 31
0.0
  0
LINE
  5
13E
330
2
100
AcDbEntity
  8
Системный слой
  6
K5LT_BASIC
 62
   150
420
    33023
370
    60
100
AcDbLine
 10
0.4999999999988592
 20
-5.409999999999854
 30
0.0
 11
-0.5000000000011409
 21
-5.409999999999854
 31
0.0
  0
ARC
  5
13F
330
2
100
AcDbEntity
  8
Системный слой
  6
K5LT_BASIC
 62
   150
420
    33023
370
    60
100
AcDbCircle
 10
-0.0000000013640167
 20
0.0000000000003411
 30
0.0
 40
2.950000001171978
100
AcDbArc
 50
30.78583943711006
 51
329.2141605639357
  0
ELLIPSE
  5
140
330
2
100
AcDbEntity
  8
Системный слой
  6
K5LT_BASIC
 62
   150
420
    33023
370
    60
100
AcDbEllipse
 10
-0.0000000000011389
 20
0.0
 30
0.0
 11
2.399999999999999
 21
-0.0000000000000006
 31
0.0
210
0.0
220
0.0
230
-1.0
 40
0.9166666666666664
 41
0.8000632000256453
 42
4.712388980384688
  0
ELLIPSE
  5
141
330
2
100
AcDbEntity
  8
Системный слой
  6
K5LT_BASIC
 62
   150
420
    33023
370
    60
100
AcDbEllipse
 10
-0.0000000000011389
 20
0.0
 30
0.0
 11
2.399999999999999
 21
-0.0000000000000006
 31
0.0
210
0.0
220
0.0
230
-1.0
 40
0.9166666666666664
 41
4.712388980384688
 42
5.483122107153938
  0
ELLIPSE
  5
142
330
2
100
AcDbEntity
  8
Системный слой
  6
K5LT_BASIC
 62
   150
420
    33023
370
    60
100
AcDbEllipse
 10
-0.0000000000011389
 20
0.0
 30
0.0
 11
2.399999999999999
 21
-0.0000000000000006
 31
0.0
210
0.0
220
0.0
230
-1.0
 40
0.7708333333333333
 41
1.314067220285906
 42
4.712388980384688
  0
ELLIPSE
  5
143
330
2
100
AcDbEntity
  8
Системный слой
  6
K5LT_BASIC
 62
   150
420
    33023
370
    60
100
AcDbEllipse
 10
-0.0000000000011389
 20
0.0
 30
0.0
 11
2.399999999999999
 21
-0.0000000000000006
 31
0.0
210
0.0
220
0.0
230
-1.0
 40
0.7708333333333333
 41
1.314067220285872
 42
4.712388980384688
  0
LINE
  5
144
330
2
100
AcDbEntity
  8
Системный слой
  6
K5LT_BASIC
 62
   150
420
    33023
370
    60
100
AcDbLine
 10
2.999999999998861
 20
1.499999999999998
 30
0.0
 11
2.999638759119987
 21
1.50000000627608
 31
0.0
  0
SPLINE
  5
145
330
2
100
AcDbEntity
  8
Системный слой
  6
K5LT_BASIC
 62
   150
420
    33023
370
    60
100
AcDbSpline
210
0.0
220
0.0
230
1.0
 70
     8
 71
     3
 72
    78
 73
    74
 74
     0
 42
0.000000001
 43
0.0000000001
 40
0.0
 40
0.0
 40
0.0
 40
0.0
 40
0.0014900848288224
 40
0.0014900848288224
 40
0.0044702446608442
 40
0.0044702446608442
 40
0.0104346790206106
 40
0.0104346790206106
 40
0.022377320213699
 40
0.022377320213699
 40
0.0463187342163797
 40
0.0463187342163797
 40
0.0944251605398246
 40
0.0944251605398246
 40
0.1915058057354723
 40
0.1915058057354723
 40
0.388876526525625
 40
0.388876526525625
 40
0.7941397318581829
 40
0.7941397318581829
 40
1.390866760600956
 40
1.390866760600956
 40
1.493736686555904
 40
1.493736686555904
 40
1.576249416748101
 40
1.576249416748101
 40
2.126236914958303
 40
2.126236914958303
 40
2.89471896230896
 40
2.89471896230896
 40
3.414313599732856
 40
3.414313599732856
 40
4.465032612285765
 40
4.465032612285765
 40
5.515751624838673
 40
5.515751624838673
 40
6.566470637391581
 40
6.566470637391581
 40
7.644887487777371
 40
7.644887487777371
 40
8.67753137424523
 40
8.67753137424523
 40
9.672024424323927
 40
9.672024424323927
 40
10.58457411581219
 40
10.58457411581219
 40
11.41541212903217
 40
11.41541212903217
 40
12.24625014225215
 40
12.24625014225215
 40
12.42018256575488
 40
12.42018256575488
 40
12.5460200453547
 40
12.5460200453547
 40
12.67185752495452
 40
12.67185752495452
 40
12.79769500455434
 40
12.79769500455434
 40
12.92353248415416
 40
12.92353248415416
 40
13.04936996375399
 40
13.04936996375399
 40
13.17520744335381
 40
13.17520744335381
 40
13.30104492295363
 40
13.30104492295363
 40
13.5357400878348
 40
13.5357400878348
 40
13.77043525271598
 40
13.77043525271598
 40
14.00513041759715
 40
14.00513041759715
 40
14.19386781414477
 40
14.19386781414477
 40
14.19386781414477
 40
14.19386781414477
 10
2.999638759119987
 20
1.50000000627608
 30
0.0
 10
2.999490366311873
 20
1.500000011432006
 30
0.0
 10
2.999341973192029
 20
1.500000019764796
 30
0.0
 10
2.99889679382977
 20
1.500000054292285
 30
0.0
 10
2.99860000669082
 20
1.500000090015418
 30
0.0
 10
2.997709231736961
 20
1.500000235353126
 30
0.0
 10
2.997115240438914
 20
1.500000383138852
 30
0.0
 10
2.995331881225637
 20
1.500000979462128
 30
0.0
 10
2.994142500179803
 20
1.500001580975775
 30
0.0
 10
2.990568722684655
 20
1.500003999859017
 30
0.0
 10
2.988184280171934
 20
1.500006431621271
 30
0.0
 10
2.98100859358078
 20
1.500016203803282
 30
0.0
 10
2.976217220707893
 20
1.500026021433994
 30
0.0
 10
2.961757007823051
 20
1.500065529092238
 30
0.0
 10
2.952088164818859
 20
1.500105276736006
 30
0.0
 10
2.922768912154877
 20
1.500265749440585
 30
0.0
 10
2.903123727875707
 20
1.50042773013274
 30
0.0
 10
2.84321237142194
 20
1.501083792533107
 30
0.0
 10
2.803018260591896
 20
1.50174812990076
 30
0.0
 10
2.704173653879932
 20
1.503905834638998
 30
0.0
 10
2.645741185697714
 20
1.505642948832814
 30
0.0
 10
2.577986850169735
 20
1.508156358639211
 30
0.0
 10
2.567924264532847
 20
1.508479961405895
 30
0.0
 10
2.550273146114931
 20
1.509293031389574
 30
0.0
 10
2.542142397182713
 20
1.509529159894213
 30
0.0
 10
2.482064492240623
 20
1.512372968572093
 30
0.0
 10
2.429276071278762
 20
1.514636769195248
 30
0.0
 10
2.306103690081043
 20
1.52141096933269
 30
0.0
 10
2.235906646427791
 20
1.525929854079548
 30
0.0
 10
2.121799879793796
 20
1.534258058981321
 30
0.0
 10
2.076692264033907
 20
1.537825802271753
 30
0.0
 10
1.943208099248748
 20
1.549158537709899
 30
0.0
 10
1.858550187316721
 20
1.557412887460485
 30
0.0
 10
1.698293454145867
 20
1.574843683786411
 30
0.0
 10
1.623589658118815
 20
1.583921924523564
 30
0.0
 10
1.48420698063387
 20
1.60243330676576
 30
0.0
 10
1.420491284232865
 20
1.61173766925583
 30
0.0
 10
1.302142102099649
 20
1.630372573180238
 30
0.0
 10
1.248792988089688
 20
1.639539923741721
 30
0.0
 10
1.155726838761664
 20
1.656633989818146
 30
0.0
 10
1.116312939904899
 20
1.664452093626891
 30
0.0
 10
1.049237937946826
 20
1.678520679730922
 30
0.0
 10
1.021960892303921
 20
1.684655403400256
 30
0.0
 10
0.978230990039718
 20
1.694955656667616
 30
0.0
 10
0.9622403017447126
 20
1.698955107889218
 30
0.0
 10
0.9363660824287748
 20
1.705662103423264
 30
0.0
 10
0.928738251015828
 20
1.707742434421674
 30
0.0
 10
0.9129322064409265
 20
1.712159250740682
 30
0.0
 10
0.9124470564856878
 20
1.712287640368344
 30
0.0
 10
0.8979853181638176
 20
1.716544281486789
 30
0.0
 10
0.8989043068409031
 20
1.716272761775144
 30
0.0
 10
0.891667476432984
 20
1.718412062315905
 30
0.0
 10
0.892767645678758
 20
1.718087056753233
 30
0.0
 10
0.8853529283019256
 20
1.720280366933593
 30
0.0
 10
0.8856987558181103
 20
1.720178978789021
 30
0.0
 10
0.8771808487576876
 20
1.722692193083275
 30
0.0
 10
0.8757622399168653
 20
1.72311052045029
 30
0.0
 10
0.8663335477888253
 20
1.725872790649077
 30
0.0
 10
0.8620877481478132
 20
1.727110221472002
 30
0.0
 10
0.8518948936668934
 20
1.730057488575766
 30
0.0
 10
0.8439971306770516
 20
1.732320072139714
 30
0.0
 10
0.8331432262666552
 20
1.735395319472217
 30
0.0
 10
0.8215516627537894
 20
1.738636506059719
 30
0.0
 10
0.8101058112208633
 20
1.741790603657932
 30
0.0
 10
0.7962274788678756
 20
1.745554047999689
 30
0.0
 10
0.7786969905998818
 20
1.75022513003023
 30
0.0
 10
0.7532120885618938
 20
1.756806367100011
 30
0.0
 10
0.7252178065230042
 20
1.763752174377714
 30
0.0
 10
0.7046246209199567
 20
1.768694815369258
 30
0.0
 10
0.6715852470158539
 20
1.776284514046437
 30
0.0
 10
0.6550531201219188
 20
1.779950229194355
 30
0.0
 10
0.6209644076236587
 20
1.787150223665775
 30
0.0
 10
0.6258676325287511
 20
1.786054147185381
 30
0.0
 10
0.6094037366947292
 20
1.789367526802152
 30
0.0
  0
SPLINE
  5
146
330
2
100
AcDbEntity
  8
Системный слой
  6
K5LT_BASIC
 62
   150
420
    33023
370
    60
100
AcDbSpline
210
0.0
220
0.0
230
1.0
 70
     8
 71
     3
 72
    82
 73
    78
 74
     0
 42
0.000000001
 43
0.0000000001
 40
0.0
 40
0.0
 40
0.0
 40
0.0
 40
0.0041750226316325
 40
0.0041750226316325
 40
0.0083500452632649
 40
0.0083500452632649
 40
0.0167000905265299
 40
0.0167000905265299
 40
0.0334001810530598
 40
0.0334001810530598
 40
0.0668003621061196
 40
0.0668003621061196
 40
0.1336007242122391
 40
0.1336007242122391
 40
0.2672014484244782
 40
0.2672014484244782
 40
0.5344028968489565
 40
0.5344028968489565
 40
1.045911365565358
 40
1.045911365565358
 40
1.49494581673905
 40
1.49494581673905
 40
1.577458553187272
 40
1.577458553187272
 40
1.642637743823351
 40
1.642637743823351
 40
2.411119812046122
 40
2.411119812046122
 40
2.516393641699123
 40
2.516393641699123
 40
2.670002849406766
 40
2.670002849406766
 40
2.977221264822051
 40
2.977221264822051
 40
3.415522730521492
 40
3.415522730521492
 40
4.466241743286599
 40
4.466241743286599
 40
5.516960756051707
 40
5.516960756051707
 40
6.567679768816812
 40
6.567679768816812
 40
7.646096619432446
 40
7.646096619432446
 40
8.678740506118934
 40
8.678740506118934
 40
9.67323355640647
 40
9.67323355640647
 40
10.58578324807275
 40
10.58578324807275
 40
11.41662126171348
 40
11.41662126171348
 40
12.24745927535421
 40
12.24745927535421
 40
12.42139169898622
 40
12.42139169898622
 40
12.54722917859157
 40
12.54722917859157
 40
12.67306665819692
 40
12.67306665819692
 40
12.79890413780227
 40
12.79890413780227
 40
12.92474161740761
 40
12.92474161740761
 40
13.05057909701296
 40
13.05057909701296
 40
13.17641657661831
 40
13.17641657661831
 40
13.30225405622366
 40
13.30225405622366
 40
13.53694922108822
 40
13.53694922108822
 40
13.77164438595279
 40
13.77164438595279
 40
14.00633955081735
 40
14.00633955081735
 40
14.1950769475504
 40
14.1950769475504
 40
14.1950769475504
 40
14.1950769475504
 10
2.99999999999886
 20
-1.500000000000001
 30
0.0
 10
2.999584223507779
 20
-1.500000000000001
 30
0.0
 10
2.999168445724078
 20
-1.500000024943234
 30
0.0
 10
2.998336884240868
 20
-1.500000124690928
 30
0.0
 10
2.99792110104772
 20
-1.50000019949539
 30
0.0
 10
2.996673744672987
 20
-1.500000498664236
 30
0.0
 10
2.995842164404619
 20
-1.500000797783173
 30
0.0
 10
2.993347400113859
 20
-1.500001993860452
 30
0.0
 10
2.991684190100838
 20
-1.500003189540394
 30
0.0
 10
2.986694495735034
 20
-1.500007969044078
 30
0.0
 10
2.98336792685586
 20
-1.500012745364871
 30
0.0
 10
2.973388196555104
 20
-1.500031824579083
 30
0.0
 10
2.966734863432746
 20
-1.50005087820955
 30
0.0
 10
2.946776585777795
 20
-1.500126878973106
 30
0.0
 10
2.933472458482808
 20
-1.500202672009323
 30
0.0
 10
2.893580651049885
 20
-1.50050405874822
 30
0.0
 10
2.86701096214392
 20
-1.500803700779102
 30
0.0
 10
2.789751727485734
 20
-1.501953227733794
 30
0.0
 10
2.739243977038993
 20
-1.503055329049744
 30
0.0
 10
2.645143235063867
 20
-1.505721751076522
 30
0.0
 10
2.601670649244849
 20
-1.507370471055652
 30
0.0
 10
2.550128621719748
 20
-1.509217920628658
 30
0.0
 10
2.5422349966459
 20
-1.509571257634321
 30
0.0
 10
2.528040760792916
 20
-1.510159949118929
 30
0.0
 10
2.521789438591665
 20
-1.510426958123503
 30
0.0
 10
2.441944842305699
 20
-1.513883600641066
 30
0.0
 10
2.369648170512844
 20
-1.517706870278289
 30
0.0
 10
2.289394856135911
 20
-1.522659077332151
 30
0.0
 10
2.279772790166814
 20
-1.523264774582345
 30
0.0
 10
2.256175374108804
 20
-1.524779132234699
 30
0.0
 10
2.242253721150971
 20
-1.525697698568934
 30
0.0
 10
2.200723350651967
 20
-1.528511612236344
 30
0.0
 10
2.17332848431283
 20
-1.530466694873326
 30
0.0
 10
2.107700168951848
 20
-1.535379580476502
 30
0.0
 10
2.069781956004815
 20
-1.538412483791831
 30
0.0
 10
1.943208099321734
 20
-1.549158537703306
 30
0.0
 10
1.858550187386069
 20
-1.557412887453325
 30
0.0
 10
1.698293454209758
 20
-1.574843683779022
 30
0.0
 10
1.62358965817975
 20
-1.583921924515835
 30
0.0
 10
1.484206980688893
 20
-1.602433306757803
 30
0.0
 10
1.420491284284705
 20
-1.611737669247873
 30
0.0
 10
1.302142102144896
 20
-1.630372573172735
 30
0.0
 10
1.248792988129932
 20
-1.639539923734787
 30
0.0
 10
1.155726838795087
 20
-1.656633989811553
 30
0.0
 10
1.116312939934911
 20
-1.664452093620753
 30
0.0
 10
1.049237937969789
 20
-1.678520679725807
 30
0.0
 10
1.021960892325066
 20
-1.684655403395595
 30
0.0
 10
0.9782309900560877
 20
-1.694955656663865
 30
0.0
 10
0.962240301757899
 20
-1.698955107885922
 30
0.0
 10
0.9363660824349127
 20
-1.705662103421673
 30
0.0
 10
0.9287382510196922
 20
-1.707742434420538
 30
0.0
 10
0.912932206437742
 20
-1.712159250741251
 30
0.0
 10
0.9124470564988742
 20
-1.712287640364707
 30
0.0
 10
0.8979853181529025
 20
-1.716544281490087
 30
0.0
 10
0.8989043068318069
 20
-1.716272761777531
 30
0.0
 10
0.8916674764188856
 20
-1.718412062320226
 30
0.0
 10
0.8927676456617037
 20
-1.718087056758236
 30
0.0
 10
0.8853529282846439
 20
-1.720280366938595
 30
0.0
 10
0.8856987557949169
 20
-1.720178978795957
 30
0.0
 10
0.8771808487369954
 20
-1.722692193089415
 30
0.0
 10
0.8757622398868507
 20
-1.723110520458817
 30
0.0
 10
0.8663335477629034
 20
-1.725872790656581
 30
0.0
 10
0.8620877481121143
 20
-1.727110221482462
 30
0.0
 10
0.8518948936359693
 20
-1.730057488584748
 30
0.0
 10
0.8439971306358957
 20
-1.732320072151196
 30
0.0
 10
0.8331432262309563
 20
-1.735395319481995
 30
0.0
 10
0.8215516627137704
 20
-1.738636506070747
 30
0.0
 10
0.8101058111869834
 20
-1.741790603667368
 30
0.0
 10
0.7962274788376336
 20
-1.745554048007648
 30
0.0
 10
0.7786969905730503
 20
-1.750225130037392
 30
0.0
 10
0.7532120885568903
 20
-1.756806367101262
 30
0.0
 10
0.7252178065239124
 20
-1.7637521743776
 30
0.0
 10
0.7046246209370084
 20
-1.768694815365165
 30
0.0
 10
0.6715852470399542
 20
-1.776284514040981
 30
0.0
 10
0.6550531201557961
 20
-1.779950229187079
 30
0.0
 10
0.6209644076500327
 20
-1.787150223660319
 30
0.0
 10
0.6258676325371626
 20
-1.786054147183563
 30
0.0
 10
0.609403736689953
 20
-1.789367526803289
 30
0.0
  0
LINE
  5
147
330
2
100
AcDbEntity
  8
Системный слой
  6
K5LT_BASIC
 62
   150
420
    33023
370
    60
100
AcDbLine
 10
4.201246117973822
 20
1.499999999999998
 30
0.0
 11
20.79875388202367
 21
1.499999999999992
 31
0.0
  0
LINE
  5
148
330
2
100
AcDbEntity
  8
Системный слой
  6
K5LT_BASIC
 62
   150
420
    33023
370
    60
100
AcDbLine
 10
4.201246117973821
 20
-1.500000000000001
 30
0.0
 11
20.79875388202367
 21
-1.500000000000007
 31
0.0
  0
LINE
  5
149
330
2
100
AcDbEntity
  8
Системный слой
  6
K5LT_BASIC
 62
   150
420
    33023
370
    60
100
AcDbLine
 10
2.99999999999886
 20
-1.500000000000001
 30
0.0
 11
3.798753882023672
 21
-1.500000000000001
 31
0.0
  0
LINE
  5
14A
330
2
100
AcDbEntity
  8
Системный слой
  6
K5LT_BASIC
 62
   150
420
    33023
370
    60
100
AcDbLine
 10
21.20124611797382
 20
-1.500000000000007
 30
0.0
 11
22.93999999999892
 21
-1.500000000000008
 31
0.0
  0
LINE
  5
14B
330
2
100
AcDbEntity
  8
Системный слой
  6
K5LT_BASIC
 62
   150
420
    33023
370
    60
100
AcDbLine
 10
21.20124611797382
 20
1.499999999999992
 30
0.0
 11
22.93999999999892
 21
1.499999999999991
 31
0.0
  0
LINE
  5
14C
330
2
100
AcDbEntity
  8
Системный слой
  6
K5LT_BASIC
 62
   150
420
    33023
370
    60
100
AcDbLine
 10
2.999999999998861
 20
1.499999999999998
 30
0.0
 11
3.798753882023673
 21
1.499999999999998
 31
0.0
  0
ARC
  5
14D
330
2
100
AcDbEntity
  8
Системный слой
  6
K5LT_BASIC
 62
   150
420
    33023
370
    60
100
AcDbCircle
 10
21.00000000000068
 20
-1.499999999883024
 30
0.0
 40
0.1499999999687462
100
AcDbArc
 50
16.60154955579441
 51
163.3984504441462
  0
ARC
  5
14E
330
2
100
AcDbEntity
  8
Системный слой
  6
K5LT_BASIC
 62
   150
420
    33023
370
    60
100
AcDbCircle
 10
20.99999999999795
 20
1.499999999882781
 30
0.0
 40
0.1499999999690011
100
AcDbArc
 50
196.6015495557527
 51
343.3984504441172
  0
ARC
  5
14F
330
2
100
AcDbEntity
  8
Системный слой
  6
K5LT_BASIC
 62
   150
420
    33023
370
    60
100
AcDbCircle
 10
3.798753878073964
 20
-1.439999994771257
 30
0.0
 40
0.060000000130981
100
AcDbArc
 50
270.0000037673466
 51
343.398446694189
  0
ARC
  5
150
330
2
100
AcDbEntity
  8
Системный слой
  6
K5LT_BASIC
 62
   150
420
    33023
370
    60
100
AcDbCircle
 10
4.201246118124799
 20
1.439999999894096
 30
0.0
 40
0.0600000001745457
100
AcDbArc
 50
90.00000014017643
 51
163.3984503452956
  0
ARC
  5
151
330
2
100
AcDbEntity
  8
Системный слой
  6
K5LT_BASIC
 62
   150
420
    33023
370
    60
100
AcDbCircle
 10
3.798753881985929
 20
1.439999999970267
 30
0.0
 40
0.0600000000468754
100
AcDbArc
 50
16.60154961520117
 51
89.99999996173809
  0
ARC
  5
152
330
2
100
AcDbEntity
  8
Системный слой
  6
K5LT_BASIC
 62
   150
420
    33023
370
    60
100
AcDbCircle
 10
21.20124612185077
 20
-1.439999994821626
 30
0.0
 40
0.0600000000465572
100
AcDbArc
 50
196.6015532797968
 51
269.9999962999147
  0
ARC
  5
153
330
2
100
AcDbEntity
  8
Системный слой
  6
K5LT_BASIC
 62
   150
420
    33023
370
    60
100
AcDbCircle
 10
20.79875388198593
 20
1.439999999970488
 30
0.0
 40
0.0600000000466253
100
AcDbArc
 50
16.60154961502446
 51
89.99999996182927
  0
ARC
  5
154
330
2
100
AcDbEntity
  8
Системный слой
  6
K5LT_BASIC
 62
   150
420
    33023
370
    60
100
AcDbCircle
 10
21.20124611808796
 20
1.439999999920124
 30
0.0
 40
0.0600000001313447
100
AcDbArc
 50
90.00000010287855
 51
163.398450358918
  0
LINE
  5
155
330
2
100
AcDbEntity
  8
Системный слой
  6
K5LT_BASIC
 62
   150
420
    33023
370
    60
100
AcDbLine
 10
22.99999999999886
 20
1.439999999999932
 30
0.0
 11
22.99999999999886
 21
-1.440000000000063
 31
0.0
  0
ARC
  5
156
330
2
100
AcDbEntity
  8
Системный слой
  6
K5LT_BASIC
 62
   150
420
    33023
370
    60
100
AcDbCircle
 10
4.201246121850769
 20
-1.439999994821507
 30
0.0
 40
0.0600000000466027
100
AcDbArc
 50
196.6015532798316
 51
269.9999962998756
  0
ARC
  5
157
330
2
100
AcDbEntity
  8
Системный слой
  6
K5LT_BASIC
 62
   150
420
    33023
370
    60
100
AcDbCircle
 10
22.939999999988
 20
-1.439999999970731
 30
0.0
 40
0.0600000000292312
100
AcDbArc
 50
270.0000000114642
 51
359.9999999704274
  0
ARC
  5
158
330
2
100
AcDbEntity
  8
Системный слой
  6
K5LT_BASIC
 62
   150
420
    33023
370
    60
100
AcDbCircle
 10
22.93999999996299
 20
1.439999999912052
 30
0.0
 40
0.0600000000879845
100
AcDbArc
 50
0.000000079207502
 51
89.99999996547698
  0
ARC
  5
159
330
2
100
AcDbEntity
  8
Системный слой
  6
K5LT_BASIC
 62
   150
420
    33023
370
    60
100
AcDbCircle
 10
20.79875387807396
 20
-1.439999994771604
 30
0.0
 40
0.0600000001308901
100
AcDbArc
 50
270.0000037673466
 51
343.3984466942586
  0
ARC
  5
15A
330
2
100
AcDbEntity
  8
Системный слой
  6
K5LT_BASIC
 62
   150
420
    33023
370
    60
100
AcDbCircle
 10
3.999999999997952
 20
1.499999999943268
 30
0.0
 40
0.1499999999862342
100
AcDbArc
 50
196.6015495777753
 51
343.3984504221007
  0
ARC
  5
15B
330
2
100
AcDbEntity
  8
Системный слой
  6
K5LT_BASIC
 62
   150
420
    33023
370
    60
100
AcDbCircle
 10
4.000000000000679
 20
-1.499999999883017
 30
0.0
 40
0.1499999999687462
100
AcDbArc
 50
16.60154955579441
 51
163.3984504441462
  0
ENDSEC
  0
SECTION
  2
OBJECTS
  0
DICTIONARY
  5
9
330
0
100
AcDbDictionary
281
     1
  3
ACAD_CIP_PREVIOUS_PRODUCT_INFO
350
EC
  3
ACAD_COLOR
350
30
  3
ACAD_DETAILVIEWSTYLE
350
E8
  3
ACAD_GROUP
350
2B
  3
ACAD_LAYOUT
350
F
  3
ACAD_MATERIAL
350
B
  3
ACAD_MLEADERSTYLE
350
33
  3
ACAD_MLINESTYLE
350
2C
  3
ACAD_PLOTSETTINGS
350
2D
  3
ACAD_PLOTSTYLENAME
350
8
  3
ACAD_SCALELIST
350
31
  3
ACAD_SECTIONVIEWSTYLE
350
E6
  3
ACAD_TABLESTYLE
350
32
  3
ACAD_VISUALSTYLE
350
23
  3
ACDB_RECOMPOSE_DATA
350
171
  3
AcDbVariableDictionary
350
34
  0
SUN
  5
24
330
21
100
AcDbSun
 90
        1
290
     1
 63
     7
421
 16777215
 40
1.0
291
     1
 91
  2455826
 92
 54000000
292
     0
 70
     0
 71
   256
280
     1
  0
DICTIONARY
  5
16
330
15
100
AcDbDictionary
280
     1
281
     1
  3
ACAD_LAYERSTATES
360
17
  0
DICTIONARY
  5
3
330
2
100
AcDbDictionary
280
     1
281
     1
  0
XRECORD
  5
EC
102
{ACAD_REACTORS
330
9
102
}
330
9
100
AcDbXrecord
280
     1
300
ACD
300
2022
300
87545ACD_2022_0F
  0
DICTIONARY
  5
30
102
{ACAD_REACTORS
330
9
102
}
330
9
100
AcDbDictionary
281
     1
  0
DICTIONARY
  5
E8
102
{ACAD_REACTORS
330
9
102
}
330
9
100
AcDbDictionary
281
     1
  3
Metric50
350
E9
  0
DICTIONARY
  5
2B
102
{ACAD_REACTORS
330
9
102
}
330
9
100
AcDbDictionary
281
     1
  0
DICTIONARY
  5
F
102
{ACAD_REACTORS
330
9
102
}
330
9
100
AcDbDictionary
281
     1
  3
Layout1
350
14
  3
Model
350
E
  0
DICTIONARY
  5
B
102
{ACAD_REACTORS
330
9
102
}
330
9
100
AcDbDictionary
281
     1
  3
ByBlock
350
2F
  3
ByLayer
350
2E
  3
Global
350
A
  0
DICTIONARY
  5
33
102
{ACAD_REACTORS
330
9
102
}
330
9
100
AcDbDictionary
281
     1
  3
Standard
350
E5
  0
DICTIONARY
  5
2C
102
{ACAD_REACTORS
330
9
102
}
330
9
100
AcDbDictionary
281
     1
  3
Standard
350
3D
  0
DICTIONARY
  5
2D
102
{ACAD_REACTORS
330
9
102
}
330
9
100
AcDbDictionary
281
     1
  0
ACDBDICTIONARYWDFLT
  5
8
102
{ACAD_REACTORS
330
9
102
}
330
9
100
AcDbDictionary
281
     1
  3
Normal
350
7
100
AcDbDictionaryWithDefault
340
7
  0
DICTIONARY
  5
31
102
{ACAD_REACTORS
330
9
102
}
330
9
100
AcDbDictionary
281
     1
  3
A0
350
41
  3
A1
350
42
  3
A2
350
43
  3
A3
350
44
  3
A4
350
45
  3
A5
350
46
  3
A6
350
47
  3
A7
350
48
  3
A8
350
49
  3
A9
350
4A
  3
B0
350
4B
  3
B1
350
4C
  3
B2
350
4D
  3
B3
350
4E
  3
B4
350
4F
  3
B5
350
50
  3
B6
350
51
  3
B7
350
52
  3
B8
350
53
  3
B9
350
54
  3
C0
350
55
  3
C1
350
56
  3
C2
350
57
  3
C3
350
58
  3
C4
350
59
  3
C5
350
5A
  3
C6
350
5B
  3
C7
350
5C
  3
C8
350
5D
  3
C9
350
5E
  3
D0
350
5F
  3
D1
350
60
  3
D2
350
61
  0
DICTIONARY
  5
E6
102
{ACAD_REACTORS
330
9
102
}
330
9
100
AcDbDictionary
281
     1
  3
Metric50
350
E7
  0
DICTIONARY
  5
32
102
{ACAD_REACTORS
330
9
102
}
330
9
100
AcDbDictionary
281
     1
  3
Standard
350
3E
  0
DICTIONARY
  5
23
102
{ACAD_REACTORS
330
9
102
}
330
9
100
AcDbDictionary
281
     1
  3
2dWireframe
350
22
  3
Basic
350
D4
  3
Brighten
350
D8
  3
ColorChange
350
DC
  3
Conceptual
350
D6
  3
Dim
350
D7
  3
EdgeColorOff
350
E4
  3
Facepattern
350
DB
  3
Flat
350
D0
  3
FlatWithEdges
350
D1
  3
Gouraud
350
D2
  3
GouraudWithEdges
350
D3
  3
Hidden
350
D5
  3
JitterOff
350
E2
  3
Linepattern
350
DA
  3
OverhangOff
350
E3
  3
Realistic
350
3F
  3
Shaded
350
E1
  3
Shaded with edges
350
E0
  3
Shades of Gray
350
DD
  3
Sketchy
350
DE
  3
Thicken
350
D9
  3
Wireframe
350
40
  3
X-Ray
350
DF
  0
XRECORD
  5
171
102
{ACAD_REACTORS
330
9
102
}
330
9
100
AcDbXrecord
280
     1
 90
        1
330
3E
  0
DICTIONARY
  5
34
102
{ACAD_REACTORS
330
9
102
}
330
9
100
AcDbDictionary
281
     1
  3
CANNOSCALE
350
35
  3
CENTEREXE
350
36
  3
CENTERLTYPEFILE
350
37
  3
CMLEADERSTYLE
350
38
  3
CTABLESTYLE
350
39
  3
CVIEWDETAILSTYLE
350
3A
  3
CVIEWSECTIONSTYLE
350
3B
  3
WIPEOUTFRAME
350
3C
  0
DICTIONARY
  5
17
102
{ACAD_REACTORS
330
16
102
}
330
16
100
AcDbDictionary
281
     1
  0
ACDBDETAILVIEWSTYLE
  5
E9
102
{ACAD_REACTORS
330
E8
102
}
330
E8
100
AcDbModelDocViewStyle
 70
     0
  3
Metric50
290
     1
300
Metric50
 90
        0
100
AcDbDetailViewStyle
 70
     0
 71
     0
 90
        3
 71
     1
340
19
 62
   256
 40
5.0
340
0
 62
   256
 40
5.0
300

 40
0.0
280
     1
 71
     2
340
C
 90
       25
 62
   256
 71
     3
340
19
 62
   256
 40
5.0
 90
        0
 40
15.0
 90
        1
300
%<\AcVar ViewDetailId>% (%<\AcVar ViewScale \f "%sn">%)
 71
     4
340
C
 90
       25
 62
   256
340
C
 90
       25
 62
   256
280
     0
  0
LAYOUT
  5
14
102
{ACAD_REACTORS
330
F
102
}
330
F
100
AcDbPlotSettings
  1

  2
none_device
  4

  6

 40
0.0
 41
0.0
 42
0.0
 43
0.0
 44
0.0
 45
0.0
 46
0.0
 47
0.0
 48
0.0
 49
0.0
140
0.0
141
0.0
142
1.0
143
1.0
 70
   688
 72
     1
 73
     0
 74
     5
  7

 75
    16
147
1.0
 76
     0
 77
     2
 78
   300
148
0.0
149
0.0
100
AcDbLayout
  1
Layout1
 70
     1
 71
     1
 10
0.0
 20
0.0
 11
420.0
 21
297.0
 12
0.0
 22
0.0
 32
0.0
 14
1.000000000000000E+20
 24
1.000000000000000E+20
 34
1.000000000000000E+20
 15
-1.000000000000000E+20
 25
-1.000000000000000E+20
 35
-1.000000000000000E+20
146
0.0
 13
0.0
 23
0.0
 33
0.0
 16
1.0
 26
0.0
 36
0.0
 17
0.0
 27
1.0
 37
0.0
 76
     0
330
11
  0
LAYOUT
  5
E
102
{ACAD_REACTORS
330
F
102
}
330
F
100
AcDbPlotSettings
  1

  2
none_device
  4
Letter_(8.50_x_11.00_Inches)
  6

 40
6.349999999999998
 41
6.349999999999998
 42
6.350005079999998
 43
6.350005079999998
 44
215.9
 45
279.4
 46
0.0
 47
0.0
 48
0.0
 49
0.0
140
0.0
141
0.0
142
1.0
143
1.0
 70
  1712
 72
     1
 73
     0
 74
     0
  7

 75
     0
147
1.0
 76
     0
 77
     2
 78
   300
148
0.0
149
0.0
100
AcDbLayout
  1
Model
 70
     1
 71
     0
 10
0.0
 20
0.0
 11
420.0
 21
297.0
 12
0.0
 22
0.0
 32
0.0
 14
1385.575421096382
 24
-927.2731940246575
 34
0.0
 15
1973.751175835676
 25
-333.4129683267387
 35
0.0
146
0.0
 13
0.0
 23
0.0
 33
0.0
 16
1.0
 26
0.0
 36
0.0
 17
0.0
 27
1.0
 37
0.0
 76
     0
330
2
331
21
  0
MATERIAL
  5
2F
102
{ACAD_REACTORS
330
B
102
}
330
B
100
AcDbMaterial
  1
ByBlock
 73
     1
 78
     1
172
     1
176
     1
270
     1
274
     1
  0
MATERIAL
  5
2E
102
{ACAD_REACTORS
330
B
102
}
330
B
100
AcDbMaterial
  1
ByLayer
 73
     1
 78
     1
172
     1
176
     1
270
     1
274
     1
  0
MATERIAL
  5
A
102
{ACAD_REACTORS
330
B
102
}
330
B
100
AcDbMaterial
  1
Global
 73
     1
 78
     1
172
     1
176
     1
270
     1
274
     1
  0
MLEADERSTYLE
  5
E5
102
{ACAD_REACTORS
330
33
102
}
330
33
100
AcDbMLeaderStyle
179
     2
170
     2
171
     1
172
     0
 90
        2
 40
0.0
 41
0.0
173
     1
 91
-1056964608
340
1C
 92
       -2
290
     1
 42
2.0
291
     1
 43
0.36
  3
Standard
 44
4.0
300

342
19
174
     1
178
     6
175
     1
176
     0
 93
-1056964608
 45
4.0
292
     0
297
     0
 46
4.0
 94
-1056964608
 47
1.0
 49
1.0
140
1.0
293
     1
141
0.0
294
     1
177
     0
142
1.0
295
     1
296
     0
143
0.125
271
     0
272
     9
273
     9
298
     1
  0
MLINESTYLE
  5
3D
102
{ACAD_REACTORS
330
2C
102
}
330
2C
100
AcDbMlineStyle
  2
STANDARD
 70
     0
  3

 62
   256
 51
90.0
 52
90.0
 71
     2
 49
0.5
 62
   256
  6
BYLAYER
 49
-0.5
 62
   256
  6
BYLAYER
  0
ACDBPLACEHOLDER
  5
7
102
{ACAD_REACTORS
330
8
102
}
330
8
  0
SCALE
  5
41
102
{ACAD_REACTORS
330
31
102
}
330
31
100
AcDbScale
 70
     0
300
1:1
140
1.0
141
1.0
290
     1
  0
SCALE
  5
42
102
{ACAD_REACTORS
330
31
102
}
330
31
100
AcDbScale
 70
     0
300
1:2
140
1.0
141
2.0
290
     0
  0
SCALE
  5
43
102
{ACAD_REACTORS
330
31
102
}
330
31
100
AcDbScale
 70
     0
300
1:4
140
1.0
141
4.0
290
     0
  0
SCALE
  5
44
102
{ACAD_REACTORS
330
31
102
}
330
31
100
AcDbScale
 70
     0
300
1:5
140
1.0
141
5.0
290
     0
  0
SCALE
  5
45
102
{ACAD_REACTORS
330
31
102
}
330
31
100
AcDbScale
 70
     0
300
1:8
140
1.0
141
8.0
290
     0
  0
SCALE
  5
46
102
{ACAD_REACTORS
330
31
102
}
330
31
100
AcDbScale
 70
     0
300
1:10
140
1.0
141
10.0
290
     0
  0
SCALE
  5
47
102
{ACAD_REACTORS
330
31
102
}
330
31
100
AcDbScale
 70
     0
300
1:16
140
1.0
141
16.0
290
     0
  0
SCALE
  5
48
102
{ACAD_REACTORS
330
31
102
}
330
31
100
AcDbScale
 70
     0
300
1:20
140
1.0
141
20.0
290
     0
  0
SCALE
  5
49
102
{ACAD_REACTORS
330
31
102
}
330
31
100
AcDbScale
 70
     0
300
1:30
140
1.0
141
30.0
290
     0
  0
SCALE
  5
4A
102
{ACAD_REACTORS
330
31
102
}
330
31
100
AcDbScale
 70
     0
300
1:40
140
1.0
141
40.0
290
     0
  0
SCALE
  5
4B
102
{ACAD_REACTORS
330
31
102
}
330
31
100
AcDbScale
 70
     0
300
1:50
140
1.0
141
50.0
290
     0
  0
SCALE
  5
4C
102
{ACAD_REACTORS
330
31
102
}
330
31
100
AcDbScale
 70
     0
300
1:100
140
1.0
141
100.0
290
     0
  0
SCALE
  5
4D
102
{ACAD_REACTORS
330
31
102
}
330
31
100
AcDbScale
 70
     0
300
2:1
140
2.0
141
1.0
290
     0
  0
SCALE
  5
4E
102
{ACAD_REACTORS
330
31
102
}
330
31
100
AcDbScale
 70
     0
300
4:1
140
4.0
141
1.0
290
     0
  0
SCALE
  5
4F
102
{ACAD_REACTORS
330
31
102
}
330
31
100
AcDbScale
 70
     0
300
8:1
140
8.0
141
1.0
290
     0
  0
SCALE
  5
50
102
{ACAD_REACTORS
330
31
102
}
330
31
100
AcDbScale
 70
     0
300
10:1
140
10.0
141
1.0
290
     0
  0
SCALE
  5
51
102
{ACAD_REACTORS
330
31
102
}
330
31
100
AcDbScale
 70
     0
300
100:1
140
100.0
141
1.0
290
     0
  0
SCALE
  5
52
102
{ACAD_REACTORS
330
31
102
}
330
31
100
AcDbScale
 70
     0
300
1/128" = 1'-0"
140
0.0078125
141
12.0
290
     0
  0
SCALE
  5
53
102
{ACAD_REACTORS
330
31
102
}
330
31
100
AcDbScale
 70
     0
300
1/64" = 1'-0"
140
0.015625
141
12.0
290
     0
  0
SCALE
  5
54
102
{ACAD_REACTORS
330
31
102
}
330
31
100
AcDbScale
 70
     0
300
1/32" = 1'-0"
140
0.03125
141
12.0
290
     0
  0
SCALE
  5
55
102
{ACAD_REACTORS
330
31
102
}
330
31
100
AcDbScale
 70
     0
300
1/16" = 1'-0"
140
0.0625
141
12.0
290
     0
  0
SCALE
  5
56
102
{ACAD_REACTORS
330
31
102
}
330
31
100
AcDbScale
 70
     0
300
3/32" = 1'-0"
140
0.09375
141
12.0
290
     0
  0
SCALE
  5
57
102
{ACAD_REACTORS
330
31
102
}
330
31
100
AcDbScale
 70
     0
300
1/8" = 1'-0"
140
0.125
141
12.0
290
     0
  0
SCALE
  5
58
102
{ACAD_REACTORS
330
31
102
}
330
31
100
AcDbScale
 70
     0
300
3/16" = 1'-0"
140
0.1875
141
12.0
290
     0
  0
SCALE
  5
59
102
{ACAD_REACTORS
330
31
102
}
330
31
100
AcDbScale
 70
     0
300
1/4" = 1'-0"
140
0.25
141
12.0
290
     0
  0
SCALE
  5
5A
102
{ACAD_REACTORS
330
31
102
}
330
31
100
AcDbScale
 70
     0
300
3/8" = 1'-0"
140
0.375
141
12.0
290
     0
  0
SCALE
  5
5B
102
{ACAD_REACTORS
330
31
102
}
330
31
100
AcDbScale
 70
     0
300
1/2" = 1'-0"
140
0.5
141
12.0
290
     0
  0
SCALE
  5
5C
102
{ACAD_REACTORS
330
31
102
}
330
31
100
AcDbScale
 70
     0
300
3/4" = 1'-0"
140
0.75
141
12.0
290
     0
  0
SCALE
  5
5D
102
{ACAD_REACTORS
330
31
102
}
330
31
100
AcDbScale
 70
     0
300
1" = 1'-0"
140
1.0
141
12.0
290
     0
  0
SCALE
  5
5E
102
{ACAD_REACTORS
330
31
102
}
330
31
100
AcDbScale
 70
     0
300
1-1/2" = 1'-0"
140
1.5
141
12.0
290
     0
  0
SCALE
  5
5F
102
{ACAD_REACTORS
330
31
102
}
330
31
100
AcDbScale
 70
     0
300
3" = 1'-0"
140
3.0
141
12.0
290
     0
  0
SCALE
  5
60
102
{ACAD_REACTORS
330
31
102
}
330
31
100
AcDbScale
 70
     0
300
6" = 1'-0"
140
6.0
141
12.0
290
     0
  0
SCALE
  5
61
102
{ACAD_REACTORS
330
31
102
}
330
31
100
AcDbScale
 70
     0
300
1'-0" = 1'-0"
140
12.0
141
12.0
290
     0
  0
ACDBSECTIONVIEWSTYLE
  5
E7
102
{ACAD_REACTORS
330
E6
102
}
330
E6
100
AcDbModelDocViewStyle
 70
     0
  3
Metric50
290
     1
300
Metric50
 90
        0
100
AcDbSectionViewStyle
 70
     0
 71
     0
 90
      102
 71
     1
340
19
 62
   256
 40
5.0
340
0
340
0
 62
   256
 40
5.0
300
I, O, Q, S, X, Z
 40
10.0
 90
        0
 40
2.5
 90
        0
 71
     2
340
C
 90
       25
 62
   256
340
C
 90
       50
 62
   256
 40
5.0
 40
2.5
 40
5.0
 71
     3
340
19
 62
   256
 40
5.0
 90
        0
 40
15.0
 90
        1
300
%<\AcVar ViewSectionStartId>%-%<\AcVar ViewSectionEndId>% (%<\AcVar ViewScale \f "%sn">%)
 71
     4
 62
   256
 62
   257
300
ANSI31
 40
1.0
 90
        0
290
     0
290
     0
 90
        6
 40
0.0
 40
1.570796326794896
 40
0.2617993877991494
 40
1.308996938995747
 40
-0.2617993877991494
 40
1.832595714594046
  0
TABLESTYLE
  5
3E
102
{ACAD_XDICTIONARY
360
CB
102
}
102
{ACAD_REACTORS
330
32
102
}
330
32
100
AcDbTableStyle
280
     0
  3
Standard
 70
     0
 71
     0
 40
1.5
 41
1.5
280
     0
281
     0
  7
Standard
140
4.5
170
     2
 62
     0
 63
     7
283
     0
 90
        4
 91
        0
  1

274
    -2
284
     1
 64
     0
275
    -2
285
     1
 65
     0
276
    -2
286
     1
 66
     0
277
    -2
287
     1
 67
     0
278
    -2
288
     1
 68
     0
279
    -2
289
     1
 69
     0
  7
Standard
140
6.0
170
     5
 62
     0
 63
     7
283
     0
 90
        4
 91
        0
  1

274
    -2
284
     1
 64
     0
275
    -2
285
     1
 65
     0
276
    -2
286
     1
 66
     0
277
    -2
287
     1
 67
     0
278
    -2
288
     1
 68
     0
279
    -2
289
     1
 69
     0
  7
Standard
140
4.5
170
     5
 62
     0
 63
     7
283
     0
 90
        4
 91
        0
  1

274
    -2
284
     1
 64
     0
275
    -2
285
     1
 65
     0
276
    -2
286
     1
 66
     0
277
    -2
287
     1
 67
     0
278
    -2
288
     1
 68
     0
279
    -2
289
     1
 69
     0
  0
VISUALSTYLE
  5
22
102
{ACAD_REACTORS
330
23
102
}
330
23
100
AcDbVisualStyle
  2
2dWireframe
 70
     4
177
     3
291
     0
 70
    58
 90
        0
176
     1
 90
        2
176
     1
 90
        0
176
     1
 90
        0
176
     1
 40
0.6
176
     1
 40
30.0
176
     1
 62
     7
420
 16777215
176
     1
 90
        1
176
     1
 90
        4
176
     1
 62
     7
176
     1
 62
   257
176
     1
 90
        1
176
     1
 90
        1
176
     1
 40
1.0
176
     1
 90
        0
176
     1
 62
   257
176
     1
 40
1.0
176
     1
 90
        1
176
     1
 90
        6
176
     1
 90
        2
176
     1
 62
     7
176
     1
 90
        5
176
     1
 90
        0
176
     1
 90
        0
176
     1
290
     0
176
     1
 90
        1
176
     1
 40
0.0
176
     1
 90
        0
176
     1
290
     1
176
     1
290
     1
176
     1
290
     0
176
     1
290
     0
176
     1
290
     0
176
     1
290
     0
176
     1
290
     0
176
     1
290
     0
176
     1
290
     0
176
     1
 90
       50
176
     1
 40
0.0
176
     1
 40
1.0
176
     1
 90
        0
176
     1
 62
    18
176
     1
 90
       50
176
     1
 90
        3
176
     1
 62
     5
420
      255
176
     1
290
     0
176
     1
 90
       50
176
     1
 90
       50
176
     1
 90
       50
176
     1
290
     0
176
     1
 90
       50
176
     1
 62
   256
176
     0
 40
1.0
176
     0
 90
        2
176
     1
  1
strokes_ogs.tif
176
     1
290
     0
176
     1
 40
1.0
176
     1
 40
1.0
176
     1
  0
VISUALSTYLE
  5
D4
102
{ACAD_REACTORS
330
23
102
}
330
23
100
AcDbVisualStyle
  2
Basic
 70
     7
177
     3
291
     1
 70
    58
 90
        1
176
     1
 90
        0
176
     1
 90
        1
176
     1
 90
        0
176
     1
 40
0.6
176
     1
 40
30.0
176
     1
 62
     7
420
 16777215
176
     1
 90
        0
176
     1
 90
        4
176
     1
 62
     7
176
     1
 62
   257
176
     1
 90
        1
176
     1
 90
        1
176
     1
 40
1.0
176
     1
 90
        8
176
     1
 62
     7
176
     1
 40
1.0
176
     1
 90
        1
176
     1
 90
        6
176
     1
 90
        2
176
     1
 62
     7
176
     1
 90
        5
176
     1
 90
        0
176
     1
 90
        0
176
     1
290
     0
176
     1
 90
        1
176
     1
 40
0.0
176
     1
 90
        0
176
     1
290
     0
176
     1
290
     1
176
     1
290
     1
176
     1
290
     0
176
     1
290
     0
176
     1
290
     0
176
     1
290
     0
176
     1
290
     0
176
     1
290
     0
176
     1
 90
       50
176
     1
 40
0.0
176
     1
 40
1.0
176
     1
 90
        0
176
     1
 62
    18
420
        0
176
     1
 90
       50
176
     1
 90
        3
176
     1
 62
     5
420
      255
176
     1
290
     0
176
     1
 90
       50
176
     1
 90
       50
176
     1
 90
       50
176
     1
290
     0
176
     1
 90
       50
176
     1
 62
   256
176
     0
 40
1.0
176
     0
 90
        2
176
     1
  1
strokes_ogs.tif
176
     1
290
     0
176
     1
 40
1.0
176
     1
 40
1.0
176
     1
  0
VISUALSTYLE
  5
D8
102
{ACAD_REACTORS
330
23
102
}
330
23
100
AcDbVisualStyle
  2
Brighten
 70
    12
177
     3
291
     1
 70
    58
 90
        2
176
     1
 90
        2
176
     1
 90
        0
176
     1
 90
        0
176
     1
 40
0.6
176
     1
 40
30.0
176
     1
 62
     7
420
 16777215
176
     1
 90
        1
176
     1
 90
        4
176
     1
 62
     7
176
     1
 62
   257
176
     1
 90
        1
176
     1
 90
        1
176
     1
 40
1.0
176
     1
 90
        8
176
     1
 62
     7
176
     1
 40
1.0
176
     1
 90
        1
176
     1
 90
        6
176
     1
 90
        2
176
     1
 62
     7
176
     1
 90
        5
176
     1
 90
        0
176
     1
 90
        0
176
     1
290
     0
176
     1
 90
        1
176
     1
 40
50.0
176
     1
 90
        0
176
     1
290
     0
176
     1
290
     1
176
     1
290
     1
176
     1
290
     0
176
     1
290
     0
176
     1
290
     0
176
     1
290
     0
176
     1
290
     0
176
     1
290
     0
176
     1
 90
       50
176
     1
 40
0.0
176
     1
 40
1.0
176
     1
 90
        0
176
     1
 62
    18
420
        0
176
     1
 90
       50
176
     1
 90
        3
176
     1
 62
     5
420
      255
176
     1
290
     0
176
     1
 90
       50
176
     1
 90
       50
176
     1
 90
       50
176
     1
290
     0
176
     1
 90
       50
176
     1
 62
   256
176
     0
 40
1.0
176
     0
 90
        2
176
     1
  1
strokes_ogs.tif
176
     1
290
     0
176
     1
 40
1.0
176
     1
 40
1.0
176
     1
  0
VISUALSTYLE
  5
DC
102
{ACAD_REACTORS
330
23
102
}
330
23
100
AcDbVisualStyle
  2
ColorChange
 70
    16
177
     3
291
     1
 70
    58
 90
        2
176
     1
 90
        2
176
     1
 90
        3
176
     1
 90
        0
176
     1
 40
0.6
176
     1
 40
30.0
176
     1
 62
     8
420
  8421504
176
     1
 90
        1
176
     1
 90
        4
176
     1
 62
     7
176
     1
 62
   257
176
     1
 90
        1
176
     1
 90
        1
176
     1
 40
1.0
176
     1
 90
        8
176
     1
 62
     8
420
  8421504
176
     1
 40
1.0
176
     1
 90
        1
176
     1
 90
        6
176
     1
 90
        2
176
     1
 62
     7
176
     1
 90
        5
176
     1
 90
        0
176
     1
 90
        0
176
     1
290
     0
176
     1
 90
        1
176
     1
 40
0.0
176
     1
 90
        0
176
     1
290
     0
176
     1
290
     1
176
     1
290
     1
176
     1
290
     0
176
     1
290
     0
176
     1
290
     0
176
     1
290
     0
176
     1
290
     0
176
     1
290
     0
176
     1
 90
       50
176
     1
 40
0.0
176
     1
 40
1.0
176
     1
 90
        0
176
     1
 62
    18
420
        0
176
     1
 90
       50
176
     1
 90
        3
176
     1
 62
     5
420
      255
176
     1
290
     0
176
     1
 90
       50
176
     1
 90
       50
176
     1
 90
       50
176
     1
290
     0
176
     1
 90
       50
176
     1
 62
   256
176
     0
 40
1.0
176
     0
 90
        2
176
     1
  1
strokes_ogs.tif
176
     1
290
     0
176
     1
 40
1.0
176
     1
 40
1.0
176
     1
  0
VISUALSTYLE
  5
D6
102
{ACAD_REACTORS
330
23
102
}
330
23
100
AcDbVisualStyle
  2
Conceptual
 70
     9
177
     3
291
     0
 70
    58
 90
        3
176
     1
 90
        2
176
     1
 90
        0
176
     1
 90
        0
176
     1
 40
0.6
176
     1
 40
30.0
176
     1
 62
     7
420
 16777215
176
     1
 90
        2
176
     1
 90
        2
176
     1
 62
     7
176
     1
 62
   257
176
     1
 90
        1
176
     1
 90
        1
176
     1
 40
179.0
176
     1
 90
        8
176
     1
 62
     7
176
     1
 40
1.0
176
     1
 90
        1
176
     1
 90
        6
176
     1
 90
        2
176
     1
 62
     7
176
     1
 90
        3
176
     1
 90
        0
176
     1
 90
        0
176
     1
290
     0
176
     1
 90
        1
176
     1
 40
0.0
176
     1
 90
        0
176
     1
290
     0
176
     1
290
     1
176
     1
290
     1
176
     1
290
     0
176
     1
290
     0
176
     1
290
     0
176
     1
290
     0
176
     1
290
     0
176
     1
290
     0
176
     1
 90
       50
176
     1
 40
0.0
176
     1
 40
1.0
176
     1
 90
        0
176
     1
 62
    18
420
        0
176
     1
 90
       50
176
     1
 90
        3
176
     1
 62
     5
420
      255
176
     1
290
     0
176
     1
 90
       50
176
     1
 90
       50
176
     1
 90
       50
176
     1
290
     0
176
     1
 90
       50
176
     1
 62
   256
176
     0
 40
1.0
176
     0
 90
        2
176
     1
  1
strokes_ogs.tif
176
     1
290
     0
176
     1
 40
1.0
176
     1
 40
1.0
176
     1
  0
VISUALSTYLE
  5
D7
102
{ACAD_REACTORS
330
23
102
}
330
23
100
AcDbVisualStyle
  2
Dim
 70
    11
177
     3
291
     1
 70
    58
 90
        2
176
     1
 90
        2
176
     1
 90
        0
176
     1
 90
        0
176
     1
 40
0.6
176
     1
 40
30.0
176
     1
 62
     7
420
 16777215
176
     1
 90
        1
176
     1
 90
        4
176
     1
 62
     7
176
     1
 62
   257
176
     1
 90
        1
176
     1
 90
        1
176
     1
 40
1.0
176
     1
 90
        8
176
     1
 62
     7
176
     1
 40
1.0
176
     1
 90
        1
176
     1
 90
        6
176
     1
 90
        2
176
     1
 62
     7
176
     1
 90
        5
176
     1
 90
        0
176
     1
 90
        0
176
     1
290
     0
176
     1
 90
        1
176
     1
 40
-50.0
176
     1
 90
        0
176
     1
290
     0
176
     1
290
     1
176
     1
290
     1
176
     1
290
     0
176
     1
290
     0
176
     1
290
     0
176
     1
290
     0
176
     1
290
     0
176
     1
290
     0
176
     1
 90
       50
176
     1
 40
0.0
176
     1
 40
1.0
176
     1
 90
        0
176
     1
 62
    18
420
        0
176
     1
 90
       50
176
     1
 90
        3
176
     1
 62
     5
420
      255
176
     1
290
     0
176
     1
 90
       50
176
     1
 90
       50
176
     1
 90
       50
176
     1
290
     0
176
     1
 90
       50
176
     1
 62
   256
176
     0
 40
1.0
176
     0
 90
        2
176
     1
  1
strokes_ogs.tif
176
     1
290
     0
176
     1
 40
1.0
176
     1
 40
1.0
176
     1
  0
VISUALSTYLE
  5
E4
102
{ACAD_REACTORS
330
23
102
}
330
23
100
AcDbVisualStyle
  2
EdgeColorOff
 70
    22
177
     3
291
     1
 70
    58
 90
        2
176
     0
 90
        2
176
     0
 90
        0
176
     0
 90
        0
176
     0
 40
0.6
176
     0
 40
30.0
176
     0
 62
     7
420
 16777215
176
     0
 90
        1
176
     0
 90
        4
176
     0
 62
     7
176
     0
 62
   257
176
     0
 90
        1
176
     0
 90
        1
176
     0
 40
1.0
176
     0
 90
        8
176
     2
 62
     7
176
     0
 40
1.0
176
     0
 90
        1
176
     0
 90
        6
176
     0
 90
        2
176
     0
 62
     7
176
     0
 90
        5
176
     0
 90
        0
176
     0
 90
        0
176
     0
290
     0
176
     0
 90
        1
176
     0
 40
0.0
176
     0
 90
        0
176
     0
290
     0
176
     0
290
     1
176
     0
290
     1
176
     0
290
     0
176
     0
290
     0
176
     0
290
     0
176
     0
290
     0
176
     0
290
     0
176
     0
290
     0
176
     0
 90
       50
176
     0
 40
0.0
176
     0
 40
1.0
176
     0
 90
        0
176
     0
 62
    18
420
        0
176
     0
 90
       50
176
     0
 90
        3
176
     0
 62
     5
420
      255
176
     0
290
     0
176
     0
 90
       50
176
     0
 90
       50
176
     0
 90
       50
176
     0
290
     0
176
     0
 90
       50
176
     0
 62
   256
176
     0
 40
1.0
176
     0
 90
        2
176
     0
  1
strokes_ogs.tif
176
     0
290
     0
176
     0
 40
1.0
176
     0
 40
1.0
176
     0
  0
VISUALSTYLE
  5
DB
102
{ACAD_REACTORS
330
23
102
}
330
23
100
AcDbVisualStyle
  2
Facepattern
 70
    15
177
     3
291
     1
 70
    58
 90
        2
176
     1
 90
        2
176
     1
 90
        0
176
     1
 90
        0
176
     1
 40
0.6
176
     1
 40
30.0
176
     1
 62
     7
420
 16777215
176
     1
 90
        1
176
     1
 90
        4
176
     1
 62
     7
176
     1
 62
   257
176
     1
 90
        1
176
     1
 90
        1
176
     1
 40
1.0
176
     1
 90
        8
176
     1
 62
     7
176
     1
 40
1.0
176
     1
 90
        1
176
     1
 90
        6
176
     1
 90
        2
176
     1
 62
     7
176
     1
 90
        5
176
     1
 90
        0
176
     1
 90
        0
176
     1
290
     0
176
     1
 90
        1
176
     1
 40
0.0
176
     1
 90
        0
176
     1
290
     0
176
     1
290
     1
176
     1
290
     1
176
     1
290
     0
176
     1
290
     0
176
     1
290
     0
176
     1
290
     0
176
     1
290
     0
176
     1
290
     0
176
     1
 90
       50
176
     1
 40
0.0
176
     1
 40
1.0
176
     1
 90
        0
176
     1
 62
    18
420
        0
176
     1
 90
       50
176
     1
 90
        3
176
     1
 62
     5
420
      255
176
     1
290
     0
176
     1
 90
       50
176
     1
 90
       50
176
     1
 90
       50
176
     1
290
     0
176
     1
 90
       50
176
     1
 62
   256
176
     0
 40
1.0
176
     0
 90
        2
176
     1
  1
strokes_ogs.tif
176
     1
290
     0
176
     1
 40
1.0
176
     1
 40
1.0
176
     1
  0
VISUALSTYLE
  5
D0
102
{ACAD_REACTORS
330
23
102
}
330
23
100
AcDbVisualStyle
  2
Flat
 70
     0
177
     3
291
     1
 70
    58
 90
        2
176
     1
 90
        1
176
     1
 90
        1
176
     1
 90
        2
176
     1
 40
0.6
176
     1
 40
30.0
176
     1
 62
     7
420
 16777215
176
     1
 90
        0
176
     1
 90
        0
176
     1
 62
     7
176
     1
 62
   257
176
     1
 90
        1
176
     1
 90
        1
176
     1
 40
1.0
176
     1
 90
        8
176
     1
 62
     7
176
     1
 40
1.0
176
     1
 90
        1
176
     1
 90
        6
176
     1
 90
        2
176
     1
 62
     7
176
     1
 90
        5
176
     1
 90
        0
176
     1
 90
        0
176
     1
290
     0
176
     1
 90
       13
176
     1
 40
0.0
176
     1
 90
        0
176
     1
290
     0
176
     1
290
     1
176
     1
290
     1
176
     1
290
     0
176
     1
290
     0
176
     1
290
     0
176
     1
290
     0
176
     1
290
     0
176
     1
290
     0
176
     1
 90
       50
176
     1
 40
0.0
176
     1
 40
1.0
176
     1
 90
        0
176
     1
 62
    18
420
        0
176
     1
 90
       50
176
     1
 90
        3
176
     1
 62
     5
420
      255
176
     1
290
     0
176
     1
 90
       50
176
     1
 90
       50
176
     1
 90
       50
176
     1
290
     0
176
     1
 90
       50
176
     1
 62
   256
176
     0
 40
1.0
176
     0
 90
        2
176
     1
  1
strokes_ogs.tif
176
     1
290
     0
176
     1
 40
1.0
176
     1
 40
1.0
176
     1
  0
VISUALSTYLE
  5
D1
102
{ACAD_REACTORS
330
23
102
}
330
23
100
AcDbVisualStyle
  2
FlatWithEdges
 70
     1
177
     3
291
     1
 70
    58
 90
        2
176
     1
 90
        1
176
     1
 90
        1
176
     1
 90
        2
176
     1
 40
0.6
176
     1
 40
30.0
176
     1
 62
     7
420
 16777215
176
     1
 90
        1
176
     1
 90
        0
176
     1
 62
     7
176
     1
 62
   257
176
     1
 90
        1
176
     1
 90
        1
176
     1
 40
1.0
176
     1
 90
        0
176
     1
 62
   257
176
     1
 40
1.0
176
     1
 90
        1
176
     1
 90
        6
176
     1
 90
        2
176
     1
 62
     7
176
     1
 90
        5
176
     1
 90
        0
176
     1
 90
        0
176
     1
290
     0
176
     1
 90
       13
176
     1
 40
0.0
176
     1
 90
        0
176
     1
290
     0
176
     1
290
     1
176
     1
290
     1
176
     1
290
     0
176
     1
290
     0
176
     1
290
     0
176
     1
290
     0
176
     1
290
     0
176
     1
290
     0
176
     1
 90
       50
176
     1
 40
0.0
176
     1
 40
1.0
176
     1
 90
        0
176
     1
 62
    18
420
        0
176
     1
 90
       50
176
     1
 90
        3
176
     1
 62
     5
420
      255
176
     1
290
     0
176
     1
 90
       50
176
     1
 90
       50
176
     1
 90
       50
176
     1
290
     0
176
     1
 90
       50
176
     1
 62
   256
176
     0
 40
1.0
176
     0
 90
        2
176
     1
  1
strokes_ogs.tif
176
     1
290
     0
176
     1
 40
1.0
176
     1
 40
1.0
176
     1
  0
VISUALSTYLE
  5
D2
102
{ACAD_REACTORS
330
23
102
}
330
23
100
AcDbVisualStyle
  2
Gouraud
 70
     2
177
     3
291
     1
 70
    58
 90
        2
176
     1
 90
        2
176
     1
 90
        1
176
     1
 90
        2
176
     1
 40
0.6
176
     1
 40
30.0
176
     1
 62
     7
420
 16777215
176
     1
 90
        0
176
     1
 90
        0
176
     1
 62
     7
176
     1
 62
   257
176
     1
 90
        1
176
     1
 90
        1
176
     1
 40
1.0
176
     1
 90
        0
176
     1
 62
     7
176
     1
 40
1.0
176
     1
 90
        1
176
     1
 90
        6
176
     1
 90
        2
176
     1
 62
     7
176
     1
 90
        5
176
     1
 90
        0
176
     1
 90
        0
176
     1
290
     0
176
     1
 90
       13
176
     1
 40
0.0
176
     1
 90
        0
176
     1
290
     0
176
     1
290
     1
176
     1
290
     1
176
     1
290
     0
176
     1
290
     0
176
     1
290
     0
176
     1
290
     0
176
     1
290
     0
176
     1
290
     0
176
     1
 90
       50
176
     1
 40
0.0
176
     1
 40
1.0
176
     1
 90
        0
176
     1
 62
    18
420
        0
176
     1
 90
       50
176
     1
 90
        3
176
     1
 62
     5
420
      255
176
     1
290
     0
176
     1
 90
       50
176
     1
 90
       50
176
     1
 90
       50
176
     1
290
     0
176
     1
 90
       50
176
     1
 62
   256
176
     0
 40
1.0
176
     0
 90
        2
176
     1
  1
strokes_ogs.tif
176
     1
290
     0
176
     1
 40
1.0
176
     1
 40
1.0
176
     1
  0
VISUALSTYLE
  5
D3
102
{ACAD_REACTORS
330
23
102
}
330
23
100
AcDbVisualStyle
  2
GouraudWithEdges
 70
     3
177
     3
291
     1
 70
    58
 90
        2
176
     1
 90
        2
176
     1
 90
        1
176
     1
 90
        2
176
     1
 40
0.6
176
     1
 40
30.0
176
     1
 62
     7
420
 16777215
176
     1
 90
        1
176
     1
 90
        0
176
     1
 62
     7
176
     1
 62
   257
176
     1
 90
        1
176
     1
 90
        1
176
     1
 40
1.0
176
     1
 90
        0
176
     1
 62
   257
176
     1
 40
1.0
176
     1
 90
        1
176
     1
 90
        6
176
     1
 90
        2
176
     1
 62
     7
176
     1
 90
        5
176
     1
 90
        0
176
     1
 90
        0
176
     1
290
     0
176
     1
 90
       13
176
     1
 40
0.0
176
     1
 90
        0
176
     1
290
     0
176
     1
290
     1
176
     1
290
     1
176
     1
290
     0
176
     1
290
     0
176
     1
290
     0
176
     1
290
     0
176
     1
290
     0
176
     1
290
     0
176
     1
 90
       50
176
     1
 40
0.0
176
     1
 40
1.0
176
     1
 90
        0
176
     1
 62
    18
420
        0
176
     1
 90
       50
176
     1
 90
        3
176
     1
 62
     5
420
      255
176
     1
290
     0
176
     1
 90
       50
176
     1
 90
       50
176
     1
 90
       50
176
     1
290
     0
176
     1
 90
       50
176
     1
 62
   256
176
     0
 40
1.0
176
     0
 90
        2
176
     1
  1
strokes_ogs.tif
176
     1
290
     0
176
     1
 40
1.0
176
     1
 40
1.0
176
     1
  0
VISUALSTYLE
  5
D5
102
{ACAD_REACTORS
330
23
102
}
330
23
100
AcDbVisualStyle
  2
Hidden
 70
     6
177
     3
291
     0
 70
    58
 90
        1
176
     1
 90
        2
176
     1
 90
        2
176
     1
 90
        0
176
     1
 40
0.6
176
     1
 40
30.0
176
     1
 62
     7
420
 16777215
176
     1
 90
        2
176
     1
 90
        2
176
     1
 62
     7
176
     1
 62
   257
176
     1
 90
        2
176
     1
 90
        1
176
     1
 40
40.0
176
     1
 90
        0
176
     1
 62
   257
176
     1
 40
1.0
176
     1
 90
        1
176
     1
 90
        6
176
     1
 90
        2
176
     1
 62
     7
176
     1
 90
        3
176
     1
 90
        0
176
     1
 90
        0
176
     1
290
     0
176
     1
 90
        1
176
     1
 40
0.0
176
     1
 90
        0
176
     1
290
     0
176
     1
290
     1
176
     1
290
     1
176
     1
290
     0
176
     1
290
     0
176
     1
290
     0
176
     1
290
     0
176
     1
290
     0
176
     1
290
     0
176
     1
 90
       50
176
     1
 40
0.0
176
     1
 40
1.0
176
     1
 90
        0
176
     1
 62
    18
420
        0
176
     1
 90
       50
176
     1
 90
        3
176
     1
 62
     5
420
      255
176
     1
290
     0
176
     1
 90
       50
176
     1
 90
       50
176
     1
 90
       50
176
     1
290
     0
176
     1
 90
       50
176
     1
 62
   256
176
     0
 40
1.0
176
     0
 90
        2
176
     1
  1
strokes_ogs.tif
176
     1
290
     0
176
     1
 40
1.0
176
     1
 40
1.0
176
     1
  0
VISUALSTYLE
  5
E2
102
{ACAD_REACTORS
330
23
102
}
330
23
100
AcDbVisualStyle
  2
JitterOff
 70
    20
177
     3
291
     1
 70
    58
 90
        2
176
     0
 90
        2
176
     0
 90
        0
176
     0
 90
        0
176
     0
 40
0.6
176
     0
 40
30.0
176
     0
 62
     7
420
 16777215
176
     0
 90
        1
176
     0
 90
        4
176
     0
 62
     7
176
     0
 62
   257
176
     0
 90
        1
176
     0
 90
        1
176
     0
 40
1.0
176
     0
 90
       10
176
     2
 62
     7
176
     0
 40
1.0
176
     0
 90
        1
176
     0
 90
        6
176
     0
 90
        2
176
     0
 62
     7
176
     0
 90
        5
176
     0
 90
        0
176
     0
 90
        0
176
     0
290
     0
176
     0
 90
        1
176
     0
 40
0.0
176
     0
 90
        0
176
     0
290
     0
176
     0
290
     1
176
     0
290
     1
176
     0
290
     0
176
     0
290
     0
176
     0
290
     0
176
     0
290
     0
176
     0
290
     0
176
     0
290
     0
176
     0
 90
       50
176
     0
 40
0.0
176
     0
 40
1.0
176
     0
 90
        0
176
     0
 62
    18
420
        0
176
     0
 90
       50
176
     0
 90
        3
176
     0
 62
     5
420
      255
176
     0
290
     0
176
     0
 90
       50
176
     0
 90
       50
176
     0
 90
       50
176
     0
290
     0
176
     0
 90
       50
176
     0
 62
   256
176
     0
 40
1.0
176
     0
 90
        2
176
     0
  1
strokes_ogs.tif
176
     0
290
     0
176
     0
 40
1.0
176
     0
 40
1.0
176
     0
  0
VISUALSTYLE
  5
DA
102
{ACAD_REACTORS
330
23
102
}
330
23
100
AcDbVisualStyle
  2
Linepattern
 70
    14
177
     3
291
     1
 70
    58
 90
        2
176
     1
 90
        2
176
     1
 90
        0
176
     1
 90
        0
176
     1
 40
0.6
176
     1
 40
30.0
176
     1
 62
     7
420
 16777215
176
     1
 90
        1
176
     1
 90
        4
176
     1
 62
     7
176
     1
 62
   257
176
     1
 90
        7
176
     1
 90
        7
176
     1
 40
1.0
176
     1
 90
        8
176
     1
 62
     7
176
     1
 40
1.0
176
     1
 90
        1
176
     1
 90
        6
176
     1
 90
        2
176
     1
 62
     7
176
     1
 90
        5
176
     1
 90
        0
176
     1
 90
        0
176
     1
290
     0
176
     1
 90
        1
176
     1
 40
0.0
176
     1
 90
        0
176
     1
290
     0
176
     1
290
     1
176
     1
290
     1
176
     1
290
     0
176
     1
290
     0
176
     1
290
     0
176
     1
290
     0
176
     1
290
     0
176
     1
290
     0
176
     1
 90
       50
176
     1
 40
0.0
176
     1
 40
1.0
176
     1
 90
        0
176
     1
 62
    18
420
        0
176
     1
 90
       50
176
     1
 90
        3
176
     1
 62
     5
420
      255
176
     1
290
     0
176
     1
 90
       50
176
     1
 90
       50
176
     1
 90
       50
176
     1
290
     0
176
     1
 90
       50
176
     1
 62
   256
176
     0
 40
1.0
176
     0
 90
        2
176
     1
  1
strokes_ogs.tif
176
     1
290
     0
176
     1
 40
1.0
176
     1
 40
1.0
176
     1
  0
VISUALSTYLE
  5
E3
102
{ACAD_REACTORS
330
23
102
}
330
23
100
AcDbVisualStyle
  2
OverhangOff
 70
    21
177
     3
291
     1
 70
    58
 90
        2
176
     0
 90
        2
176
     0
 90
        0
176
     0
 90
        0
176
     0
 40
0.6
176
     0
 40
30.0
176
     0
 62
     7
420
 16777215
176
     0
 90
        1
176
     0
 90
        4
176
     0
 62
     7
176
     0
 62
   257
176
     0
 90
        1
176
     0
 90
        1
176
     0
 40
1.0
176
     0
 90
        9
176
     2
 62
     7
176
     0
 40
1.0
176
     0
 90
        1
176
     0
 90
        6
176
     0
 90
        2
176
     0
 62
     7
176
     0
 90
        5
176
     0
 90
        0
176
     0
 90
        0
176
     0
290
     0
176
     0
 90
        1
176
     0
 40
0.0
176
     0
 90
        0
176
     0
290
     0
176
     0
290
     1
176
     0
290
     1
176
     0
290
     0
176
     0
290
     0
176
     0
290
     0
176
     0
290
     0
176
     0
290
     0
176
     0
290
     0
176
     0
 90
       50
176
     0
 40
0.0
176
     0
 40
1.0
176
     0
 90
        0
176
     0
 62
    18
420
        0
176
     0
 90
       50
176
     0
 90
        3
176
     0
 62
     5
420
      255
176
     0
290
     0
176
     0
 90
       50
176
     0
 90
       50
176
     0
 90
       50
176
     0
290
     0
176
     0
 90
       50
176
     0
 62
   256
176
     0
 40
1.0
176
     0
 90
        2
176
     0
  1
strokes_ogs.tif
176
     0
290
     0
176
     0
 40
1.0
176
     0
 40
1.0
176
     0
  0
VISUALSTYLE
  5
3F
102
{ACAD_REACTORS
330
23
102
}
330
23
100
AcDbVisualStyle
  2
Realistic
 70
     8
177
     3
291
     0
 70
    58
 90
        2
176
     1
 90
        3
176
     1
 90
        0
176
     1
 90
        2
176
     1
 40
0.6
176
     1
 40
30.0
176
     1
 62
     7
420
 16777215
176
     1
 90
        0
176
     1
 90
        0
176
     1
 62
     7
176
     1
 62
   257
176
     1
 90
        1
176
     1
 90
        1
176
     1
 40
1.0
176
     1
 90
        8
176
     1
 62
   257
176
     1
 40
1.0
176
     1
 90
        1
176
     1
 90
        6
176
     1
 90
        2
176
     1
 62
     7
176
     1
 90
        3
176
     1
 90
        0
176
     1
 90
        0
176
     1
290
     0
176
     1
 90
       13
176
     1
 40
0.0
176
     1
 90
        0
176
     1
290
     0
176
     1
290
     1
176
     1
290
     1
176
     1
290
     0
176
     1
290
     0
176
     1
290
     0
176
     1
290
     0
176
     1
290
     0
176
     1
290
     0
176
     1
 90
       50
176
     1
 40
0.0
176
     1
 40
1.0
176
     1
 90
        0
176
     1
 62
    18
176
     1
 90
       50
176
     1
 90
        3
176
     1
 62
     5
420
      255
176
     1
290
     0
176
     1
 90
       50
176
     1
 90
       50
176
     1
 90
       50
176
     1
290
     0
176
     1
 90
       50
176
     1
 62
   256
176
     0
 40
1.0
176
     0
 90
        2
176
     1
  1
strokes_ogs.tif
176
     1
290
     0
176
     1
 40
1.0
176
     1
 40
1.0
176
     1
  0
VISUALSTYLE
  5
E1
102
{ACAD_REACTORS
330
23
102
}
330
23
100
AcDbVisualStyle
  2
Shaded
 70
    27
177
     3
291
     0
 70
    58
 90
        2
176
     1
 90
        2
176
     1
 90
        1
176
     1
 90
        2
176
     1
 40
0.6
176
     1
 40
30.0
176
     1
 62
     7
420
 16777215
176
     1
 90
        0
176
     1
 90
        4
176
     1
 62
     7
176
     1
 62
   257
176
     1
 90
        1
176
     1
 90
        1
176
     1
 40
1.0
176
     1
 90
        8
176
     1
 62
   257
176
     1
 40
1.0
176
     1
 90
        1
176
     1
 90
        6
176
     1
 90
        2
176
     1
 62
     8
420
  7895160
176
     1
 90
        3
176
     1
 90
        0
176
     1
 90
        0
176
     1
290
     0
176
     1
 90
        5
176
     1
 40
0.0
176
     1
 90
        0
176
     1
290
     0
176
     1
290
     1
176
     1
290
     1
176
     1
290
     0
176
     1
290
     0
176
     1
290
     0
176
     1
290
     0
176
     1
290
     0
176
     1
290
     0
176
     1
 90
       50
176
     1
 40
0.0
176
     1
 40
1.0
176
     1
 90
        0
176
     1
 62
    18
420
        0
176
     1
 90
       50
176
     1
 90
        3
176
     1
 62
     5
420
      255
176
     1
290
     0
176
     1
 90
       50
176
     1
 90
       50
176
     1
 90
       50
176
     1
290
     0
176
     1
 90
       50
176
     1
 62
   256
176
     0
 40
1.0
176
     0
 90
        2
176
     1
  1
strokes_ogs.tif
176
     1
290
     0
176
     1
 40
1.0
176
     1
 40
1.0
176
     1
  0
VISUALSTYLE
  5
E0
102
{ACAD_REACTORS
330
23
102
}
330
23
100
AcDbVisualStyle
  2
Shaded with edges
 70
    26
177
     3
291
     0
 70
    58
 90
        2
176
     1
 90
        2
176
     1
 90
        1
176
     1
 90
        2
176
     1
 40
0.6
176
     1
 40
30.0
176
     1
 62
     7
420
 16777215
176
     1
 90
        1
176
     1
 90
        2
176
     1
 62
     7
176
     1
 62
   257
176
     1
 90
        2
176
     1
 90
        1
176
     1
 40
1.0
176
     1
 90
        8
176
     1
 62
   257
176
     1
 40
1.0
176
     1
 90
        1
176
     1
 90
        6
176
     1
 90
        2
176
     1
 62
     7
176
     1
 90
        3
176
     1
 90
        0
176
     1
 90
        0
176
     1
290
     0
176
     1
 90
        5
176
     1
 40
0.0
176
     1
 90
        0
176
     1
290
     0
176
     1
290
     1
176
     1
290
     1
176
     1
290
     0
176
     1
290
     0
176
     1
290
     0
176
     1
290
     0
176
     1
290
     0
176
     1
290
     0
176
     1
 90
       50
176
     1
 40
0.0
176
     1
 40
1.0
176
     1
 90
        0
176
     1
 62
    18
420
        0
176
     1
 90
       50
176
     1
 90
        3
176
     1
 62
     5
420
      255
176
     1
290
     0
176
     1
 90
       50
176
     1
 90
       50
176
     1
 90
       50
176
     1
290
     0
176
     1
 90
       50
176
     1
 62
   256
176
     0
 40
1.0
176
     0
 90
        2
176
     1
  1
strokes_ogs.tif
176
     1
290
     0
176
     1
 40
1.0
176
     1
 40
1.0
176
     1
  0
VISUALSTYLE
  5
DD
102
{ACAD_REACTORS
330
23
102
}
330
23
100
AcDbVisualStyle
  2
Shades of Gray
 70
    23
177
     3
291
     0
 70
    58
 90
        2
176
     1
 90
        2
176
     1
 90
        3
176
     1
 90
        0
176
     1
 40
0.6
176
     1
 40
30.0
176
     1
 62
     7
420
 16777215
176
     1
 90
        2
176
     1
 90
        2
176
     1
 62
     7
176
     1
 62
     7
176
     1
 90
        1
176
     1
 90
        1
176
     1
 40
40.0
176
     1
 90
        8
176
     1
 62
     7
176
     1
 40
1.0
176
     1
 90
        1
176
     1
 90
        6
176
     1
 90
        2
176
     1
 62
     7
176
     1
 90
        3
176
     1
 90
        0
176
     1
 90
        0
176
     1
290
     0
176
     1
 90
        1
176
     1
 40
0.0
176
     1
 90
        0
176
     1
290
     0
176
     1
290
     1
176
     1
290
     1
176
     1
290
     0
176
     1
290
     0
176
     1
290
     0
176
     1
290
     0
176
     1
290
     0
176
     1
290
     0
176
     1
 90
       50
176
     1
 40
0.0
176
     1
 40
1.0
176
     1
 90
        0
176
     1
 62
    18
420
        0
176
     1
 90
       50
176
     1
 90
        3
176
     1
 62
     5
420
      255
176
     1
290
     0
176
     1
 90
       50
176
     1
 90
       50
176
     1
 90
       50
176
     1
290
     0
176
     1
 90
       50
176
     1
 62
   256
176
     0
 40
1.0
176
     0
 90
        2
176
     1
  1
strokes_ogs.tif
176
     1
290
     0
176
     1
 40
1.0
176
     1
 40
1.0
176
     1
  0
VISUALSTYLE
  5
DE
102
{ACAD_REACTORS
330
23
102
}
330
23
100
AcDbVisualStyle
  2
Sketchy
 70
    24
177
     3
291
     0
 70
    58
 90
        1
176
     1
 90
        2
176
     1
 90
        2
176
     1
 90
        0
176
     1
 40
0.6
176
     1
 40
30.0
176
     1
 62
     7
420
 16777215
176
     1
 90
        2
176
     1
 90
        2
176
     1
 62
     7
176
     1
 62
     7
176
     1
 90
        1
176
     1
 90
        1
176
     1
 40
40.0
176
     1
 90
       11
176
     1
 62
     7
176
     1
 40
1.0
176
     1
 90
        1
176
     1
 90
        6
176
     1
 90
        2
176
     1
 62
     7
176
     1
 90
        6
176
     1
 90
        0
176
     1
 90
        0
176
     1
290
     0
176
     1
 90
        1
176
     1
 40
0.0
176
     1
 90
        0
176
     1
290
     0
176
     1
290
     1
176
     1
290
     1
176
     1
290
     0
176
     1
290
     0
176
     1
290
     0
176
     1
290
     0
176
     1
290
     0
176
     1
290
     0
176
     1
 90
       50
176
     1
 40
0.0
176
     1
 40
1.0
176
     1
 90
        0
176
     1
 62
    18
420
        0
176
     1
 90
       50
176
     1
 90
        3
176
     1
 62
     5
420
      255
176
     1
290
     0
176
     1
 90
       50
176
     1
 90
       50
176
     1
 90
       50
176
     1
290
     0
176
     1
 90
       50
176
     1
 62
   256
176
     0
 40
1.0
176
     0
 90
        2
176
     1
  1
strokes_ogs.tif
176
     1
290
     0
176
     1
 40
1.0
176
     1
 40
1.0
176
     1
  0
VISUALSTYLE
  5
D9
102
{ACAD_REACTORS
330
23
102
}
330
23
100
AcDbVisualStyle
  2
Thicken
 70
    13
177
     3
291
     1
 70
    58
 90
        2
176
     1
 90
        2
176
     1
 90
        0
176
     1
 90
        0
176
     1
 40
0.6
176
     1
 40
30.0
176
     1
 62
     7
420
 16777215
176
     1
 90
        1
176
     1
 90
        4
176
     1
 62
     7
176
     1
 62
   257
176
     1
 90
        1
176
     1
 90
        1
176
     1
 40
1.0
176
     1
 90
       12
176
     1
 62
     7
176
     1
 40
1.0
176
     1
 90
        1
176
     1
 90
        6
176
     1
 90
        2
176
     1
 62
     7
176
     1
 90
        5
176
     1
 90
        0
176
     1
 90
        0
176
     1
290
     0
176
     1
 90
        1
176
     1
 40
0.0
176
     1
 90
        0
176
     1
290
     0
176
     1
290
     1
176
     1
290
     1
176
     1
290
     0
176
     1
290
     0
176
     1
290
     0
176
     1
290
     0
176
     1
290
     0
176
     1
290
     0
176
     1
 90
       50
176
     1
 40
0.0
176
     1
 40
1.0
176
     1
 90
        0
176
     1
 62
    18
420
        0
176
     1
 90
       50
176
     1
 90
        3
176
     1
 62
     5
420
      255
176
     1
290
     0
176
     1
 90
       50
176
     1
 90
       50
176
     1
 90
       50
176
     1
290
     0
176
     1
 90
       50
176
     1
 62
   256
176
     0
 40
1.0
176
     0
 90
        2
176
     1
  1
strokes_ogs.tif
176
     1
290
     0
176
     1
 40
1.0
176
     1
 40
1.0
176
     1
  0
VISUALSTYLE
  5
40
102
{ACAD_REACTORS
330
23
102
}
330
23
100
AcDbVisualStyle
  2
Wireframe
 70
     5
177
     3
291
     0
 70
    58
 90
        0
176
     1
 90
        2
176
     1
 90
        0
176
     1
 90
        0
176
     1
 40
0.6
176
     1
 40
30.0
176
     1
 62
     7
420
 16777215
176
     1
 90
        1
176
     1
 90
        4
176
     1
 62
     7
176
     1
 62
   257
176
     1
 90
        1
176
     1
 90
        1
176
     1
 40
1.0
176
     1
 90
        0
176
     1
 62
   257
176
     1
 40
1.0
176
     1
 90
        1
176
     1
 90
        6
176
     1
 90
        2
176
     1
 62
     7
176
     1
 90
        3
176
     1
 90
        0
176
     1
 90
        0
176
     1
290
     0
176
     1
 90
        1
176
     1
 40
0.0
176
     1
 90
        0
176
     1
290
     0
176
     1
290
     1
176
     1
290
     1
176
     1
290
     0
176
     1
290
     0
176
     1
290
     0
176
     1
290
     0
176
     1
290
     0
176
     1
290
     0
176
     1
 90
       50
176
     1
 40
0.0
176
     1
 40
1.0
176
     1
 90
        0
176
     1
 62
    18
176
     1
 90
       50
176
     1
 90
        3
176
     1
 62
     5
420
      255
176
     1
290
     0
176
     1
 90
       50
176
     1
 90
       50
176
     1
 90
       50
176
     1
290
     0
176
     1
 90
       50
176
     1
 62
   256
176
     0
 40
1.0
176
     0
 90
        2
176
     1
  1
strokes_ogs.tif
176
     1
290
     0
176
     1
 40
1.0
176
     1
 40
1.0
176
     1
  0
VISUALSTYLE
  5
DF
102
{ACAD_REACTORS
330
23
102
}
330
23
100
AcDbVisualStyle
  2
X-Ray
 70
    25
177
     3
291
     0
 70
    58
 90
        2
176
     1
 90
        2
176
     1
 90
        1
176
     1
 90
        1
176
     1
 40
0.5
176
     1
 40
30.0
176
     1
 62
     7
420
 16777215
176
     1
 90
        1
176
     1
 90
        0
176
     1
 62
     7
176
     1
 62
   257
176
     1
 90
        1
176
     1
 90
        1
176
     1
 40
1.0
176
     1
 90
        8
176
     1
 62
     7
176
     1
 40
1.0
176
     1
 90
        1
176
     1
 90
        6
176
     1
 90
        2
176
     1
 62
     7
176
     1
 90
        3
176
     1
 90
        0
176
     1
 90
        0
176
     1
290
     0
176
     1
 90
       13
176
     1
 40
0.0
176
     1
 90
        0
176
     1
290
     0
176
     1
290
     1
176
     1
290
     1
176
     1
290
     0
176
     1
290
     0
176
     1
290
     0
176
     1
290
     0
176
     1
290
     0
176
     1
290
     0
176
     1
 90
       50
176
     1
 40
0.0
176
     1
 40
1.0
176
     1
 90
        0
176
     1
 62
    18
420
        0
176
     1
 90
       50
176
     1
 90
        3
176
     1
 62
     5
420
      255
176
     1
290
     0
176
     1
 90
       50
176
     1
 90
       50
176
     1
 90
       50
176
     1
290
     0
176
     1
 90
       50
176
     1
 62
   256
176
     0
 40
1.0
176
     0
 90
        2
176
     1
  1
strokes_ogs.tif
176
     1
290
     0
176
     1
 40
1.0
176
     1
 40
1.0
176
     1
  0
DICTIONARYVAR
  5
35
102
{ACAD_REACTORS
330
34
102
}
330
34
100
DictionaryVariables
280
     0
  1
1:1
  0
DICTIONARYVAR
  5
36
102
{ACAD_REACTORS
330
34
102
}
330
34
100
DictionaryVariables
280
     0
  1
3.500000
  0
DICTIONARYVAR
  5
37
102
{ACAD_REACTORS
330
34
102
}
330
34
100
DictionaryVariables
280
     0
  1
acadiso.lin
  0
DICTIONARYVAR
  5
38
102
{ACAD_REACTORS
330
34
102
}
330
34
100
DictionaryVariables
280
     0
  1
STANDARD
  0
DICTIONARYVAR
  5
39
102
{ACAD_REACTORS
330
34
102
}
330
34
100
DictionaryVariables
280
     0
  1
STANDARD
  0
DICTIONARYVAR
  5
3A
102
{ACAD_REACTORS
330
34
102
}
330
34
100
DictionaryVariables
280
     0
  1
Metric50
  0
DICTIONARYVAR
  5
3B
102
{ACAD_REACTORS
330
34
102
}
330
34
100
DictionaryVariables
280
     0
  1
Metric50
  0
DICTIONARYVAR
  5
3C
102
{ACAD_REACTORS
330
34
102
}
330
34
100
DictionaryVariables
280
     0
  1
0
  0
DICTIONARY
  5
CB
330
3E
100
AcDbDictionary
280
     1
281
     1
  3
ACAD_ROUNDTRIP_2008_TABLESTYLE_CELLSTYLEMAP
360
170
  0
CELLSTYLEMAP
  5
170
102
{ACAD_REACTORS
330
CB
102
}
330
CB
100
AcDbCellStyleMap
 90
        3
300
CELLSTYLE
  1
TABLEFORMAT_BEGIN
 90
        5
170
     1
 91
        0
 92
    32768
 62
   257
 93
        1
300
CONTENTFORMAT
  1
CONTENTFORMAT_BEGIN
 90
        0
 91
        0
 92
        4
 93
        0
300

 40
0.0
140
1.0
 94
        5
 62
     0
340
19
144
6.0
309
CONTENTFORMAT_END
171
     1
301
MARGIN
  1
CELLMARGIN_BEGIN
 40
1.5
 40
1.5
 40
1.5
 40
1.5
 40
0.18
 40
0.18
309
CELLMARGIN_END
 94
        6
 95
        1
302
GRIDFORMAT
  1
GRIDFORMAT_BEGIN
 90
        0
 91
        1
 62
     0
 92
       -2
340
1C
 93
        0
 40
0.045
309
GRIDFORMAT_END
 95
        2
302
GRIDFORMAT
  1
GRIDFORMAT_BEGIN
 90
        0
 91
        1
 62
     0
 92
       -2
340
1C
 93
        0
 40
0.045
309
GRIDFORMAT_END
 95
        4
302
GRIDFORMAT
  1
GRIDFORMAT_BEGIN
 90
        0
 91
        1
 62
     0
 92
       -2
340
1C
 93
        0
 40
0.045
309
GRIDFORMAT_END
 95
        8
302
GRIDFORMAT
  1
GRIDFORMAT_BEGIN
 90
        0
 91
        1
 62
     0
 92
       -2
340
1C
 93
        0
 40
0.045
309
GRIDFORMAT_END
 95
       16
302
GRIDFORMAT
  1
GRIDFORMAT_BEGIN
 90
        0
 91
        1
 62
     0
 92
       -2
340
1C
 93
        0
 40
0.045
309
GRIDFORMAT_END
 95
       32
302
GRIDFORMAT
  1
GRIDFORMAT_BEGIN
 90
        0
 91
        1
 62
     0
 92
       -2
340
1C
 93
        0
 40
0.045
309
GRIDFORMAT_END
309
TABLEFORMAT_END
  1
CELLSTYLE_BEGIN
 90
        1
 91
        1
300
_TITLE
309
CELLSTYLE_END
300
CELLSTYLE
  1
TABLEFORMAT_BEGIN
 90
        5
170
     1
 91
        0
 92
        0
 62
   257
 93
        1
300
CONTENTFORMAT
  1
CONTENTFORMAT_BEGIN
 90
        0
 91
        0
 92
        4
 93
        0
300

 40
0.0
140
1.0
 94
        5
 62
     0
340
19
144
4.5
309
CONTENTFORMAT_END
171
     1
301
MARGIN
  1
CELLMARGIN_BEGIN
 40
1.5
 40
1.5
 40
1.5
 40
1.5
 40
0.18
 40
0.18
309
CELLMARGIN_END
 94
        6
 95
        1
302
GRIDFORMAT
  1
GRIDFORMAT_BEGIN
 90
        0
 91
        1
 62
     0
 92
       -2
340
1C
 93
        0
 40
0.045
309
GRIDFORMAT_END
 95
        2
302
GRIDFORMAT
  1
GRIDFORMAT_BEGIN
 90
        0
 91
        1
 62
     0
 92
       -2
340
1C
 93
        0
 40
0.045
309
GRIDFORMAT_END
 95
        4
302
GRIDFORMAT
  1
GRIDFORMAT_BEGIN
 90
        0
 91
        1
 62
     0
 92
       -2
340
1C
 93
        0
 40
0.045
309
GRIDFORMAT_END
 95
        8
302
GRIDFORMAT
  1
GRIDFORMAT_BEGIN
 90
        0
 91
        1
 62
     0
 92
       -2
340
1C
 93
        0
 40
0.045
309
GRIDFORMAT_END
 95
       16
302
GRIDFORMAT
  1
GRIDFORMAT_BEGIN
 90
        0
 91
        1
 62
     0
 92
       -2
340
1C
 93
        0
 40
0.045
309
GRIDFORMAT_END
 95
       32
302
GRIDFORMAT
  1
GRIDFORMAT_BEGIN
 90
        0
 91
        1
 62
     0
 92
       -2
340
1C
 93
        0
 40
0.045
309
GRIDFORMAT_END
309
TABLEFORMAT_END
  1
CELLSTYLE_BEGIN
 90
        2
 91
        1
300
_HEADER
309
CELLSTYLE_END
300
CELLSTYLE
  1
TABLEFORMAT_BEGIN
 90
        5
170
     1
 91
        0
 92
        0
 62
   257
 93
        1
300
CONTENTFORMAT
  1
CONTENTFORMAT_BEGIN
 90
        0
 91
        0
 92
        4
 93
        0
300

 40
0.0
140
1.0
 94
        2
 62
     0
340
19
144
4.5
309
CONTENTFORMAT_END
171
     1
301
MARGIN
  1
CELLMARGIN_BEGIN
 40
1.5
 40
1.5
 40
1.5
 40
1.5
 40
0.18
 40
0.18
309
CELLMARGIN_END
 94
        6
 95
        1
302
GRIDFORMAT
  1
GRIDFORMAT_BEGIN
 90
        0
 91
        1
 62
     0
 92
       -2
340
1C
 93
        0
 40
0.045
309
GRIDFORMAT_END
 95
        2
302
GRIDFORMAT
  1
GRIDFORMAT_BEGIN
 90
        0
 91
        1
 62
     0
 92
       -2
340
1C
 93
        0
 40
0.045
309
GRIDFORMAT_END
 95
        4
302
GRIDFORMAT
  1
GRIDFORMAT_BEGIN
 90
        0
 91
        1
 62
     0
 92
       -2
340
1C
 93
        0
 40
0.045
309
GRIDFORMAT_END
 95
        8
302
GRIDFORMAT
  1
GRIDFORMAT_BEGIN
 90
        0
 91
        1
 62
     0
 92
       -2
340
1C
 93
        0
 40
0.045
309
GRIDFORMAT_END
 95
       16
302
GRIDFORMAT
  1
GRIDFORMAT_BEGIN
 90
        0
 91
        1
 62
     0
 92
       -2
340
1C
 93
        0
 40
0.045
309
GRIDFORMAT_END
 95
       32
302
GRIDFORMAT
  1
GRIDFORMAT_BEGIN
 90
        0
 91
        1
 62
     0
 92
       -2
340
1C
 93
        0
 40
0.045
309
GRIDFORMAT_END
309
TABLEFORMAT_END
  1
CELLSTYLE_BEGIN
 90
        3
 91
        2
300
_DATA
309
CELLSTYLE_END
  0
ENDSEC
  0
SECTION
  2
ACDSDATA
 70
     2
 71
     8
  0
ACDSSCHEMA
 90
        0
  1
AcDb_Thumbnail_Schema
  2
AcDbDs::ID
280
    10
 91
        8
  2
Thumbnail_Data
280
    15
 91
        0
101
ACDSRECORD
 95
        0
 90
        1
  2
AcDbDs::TreatedAsObjectData
280
     1
291
     1
101
ACDSRECORD
 95
        0
 90
        2
  2
AcDbDs::Legacy
280
     1
291
     1
101
ACDSRECORD
  1
AcDbDs::ID
 90
        3
  2
AcDs:Indexable
280
     1
291
     1
101
ACDSRECORD
  1
AcDbDs::ID
 90
        4
  2
AcDbDs::HandleAttribute
280
     7
282
     1
  0
ACDSSCHEMA
 90
        1
  1
AcDbDs::TreatedAsObjectDataSchema
  2
AcDbDs::TreatedAsObjectData
280
     1
 91
        0
  0
ACDSSCHEMA
 90
        2
  1
AcDbDs::LegacySchema
  2
AcDbDs::Legacy
280
     1
 91
        0
  0
ACDSSCHEMA
 90
        3
  1
AcDbDs::IndexedPropertySchema
  2
AcDs:Indexable
280
     1
 91
        0
  0
ACDSSCHEMA
 90
        4
  1
AcDbDs::HandleAttributeSchema
  2
AcDbDs::HandleAttribute
280
     7
 91
        1
284
     1
  0
ACDSRECORD
 90
        0
  2
AcDbDs::ID
280
    10
320
E
  2
Thumbnail_Data
280
    15
 94
     1064
310
89504E470D0A1A0A0000000D49484452000001000000006F08030000003479EE6F00000300504C5445212830FFFFFF2128300000000000000000000000000000000000000000000000000000330000660000990000CC0000FF0033000033330033660033990033CC0033FF0066000066330066660066990066CC0066FF0099
310
000099330099660099990099CC0099FF00CC0000CC3300CC6600CC9900CCCC00CCFF00FF0000FF3300FF6600FF9900FFCC00FFFF3300003300333300663300993300CC3300FF3333003333333333663333993333CC3333FF3366003366333366663366993366CC3366FF3399003399333399663399993399CC3399FF33CC00
310
33CC3333CC6633CC9933CCCC33CCFF33FF0033FF3333FF6633FF9933FFCC33FFFF6600006600336600666600996600CC6600FF6633006633336633666633996633CC6633FF6666006666336666666666996666CC6666FF6699006699336699666699996699CC6699FF66CC0066CC3366CC6666CC9966CCCC66CCFF66FF0066
310
FF3366FF6666FF9966FFCC66FFFF9900009900339900669900999900CC9900FF9933009933339933669933999933CC9933FF9966009966339966669966999966CC9966FF9999009999339999669999999999CC9999FF99CC0099CC3399CC6699CC9999CCCC99CCFF99FF0099FF3399FF6699FF9999FFCC99FFFFCC0000CC00
310
33CC0066CC0099CC00CCCC00FFCC3300CC3333CC3366CC3399CC33CCCC33FFCC6600CC6633CC6666CC6699CC66CCCC66FFCC9900CC9933CC9966CC9999CC99CCCC99FFCCCC00CCCC33CCCC66CCCC99CCCCCCCCCCFFCCFF00CCFF33CCFF66CCFF99CCFFCCCCFFFFFF0000FF0033FF0066FF0099FF00CCFF00FFFF3300FF3333
310
FF3366FF3399FF33CCFF33FFFF6600FF6633FF6666FF6699FF66CCFF66FFFF9900FF9933FF9966FF9999FF99CCFF99FFFFCC00FFCC33FFCC66FFCC99FFCCCCFFCCFFFFFF00FFFF33FFFF66FFFF99FFFFCCFFFFFF0000000D0D0D1A1A1A2828283535354343435050505D5D5D6B6B6B787878868686939393A1A1A1AEAEAEBB
310
BBBBC9C9C9D6D6D6E4E4E4F1F1F1FFFFFF0000000000000000000000000000000000000000000000000000000000002E4550F10000004E4944415478DAEDD5B109003008044057C9FE4BA61024A44899E6EF0AC1F615AD020000000000000000000000000000E06DB5E0008E1A37F69117C0DDDA0037C01700000000000000
310
000000007EDB7BD00718B8D28F950000000049454E44AE42608250025C8F02100B305C010000000000000000000000000000200B207E2204C04C3004A0988937042806DFE58F0203403B80AF6E8118809CA7403C80C72000000000000000000000000000F897982B0000000027C07A303C1B013CAD88B8AD17B86DE7BC4162
310
9E5B735E3F8D015867D154C2A2A988B7C84892244992244992FED10BB815A118622C01E10000000049454E44AE426082
  0
ENDSEC
  0
EOF
